STARTFONT 2.3
FONT -FontForge-Bungee Shade-Book-R-Normal--24-240-72-72-P-205-ISO10646-1
SIZE 24 72 72  2
FONTBOUNDINGBOX 62 61 -15 -22
COMMENT "Generated by fontforge, http://fontforge.sourceforge.net"
COMMENT "Copyright 2008 The Bungee Project Authors (david@djr.com)"
STARTPROPERTIES 40
FOUNDRY "FontForge"
FAMILY_NAME "Bungee Shade"
WEIGHT_NAME "Book"
SLANT "R"
SETWIDTH_NAME "Normal"
ADD_STYLE_NAME ""
PIXEL_SIZE 24
POINT_SIZE 240
RESOLUTION_X 72
RESOLUTION_Y 72
SPACING "P"
AVERAGE_WIDTH 205
CHARSET_REGISTRY "ISO10646"
CHARSET_ENCODING "1"
FONTNAME_REGISTRY ""
CHARSET_COLLECTIONS "ISO8859-2 ISO8859-9 ISO8859-4 ISO10646-1"
BITS_PER_PIXEL 2
FONT_NAME "BungeeShade-Regular"
FACE_NAME "Bungee Shade"
COPYRIGHT "Copyright 2008 The Bungee Project Authors (david@djr.com)"
FONT_VERSION "1.000;PS 1.0;hotconv 1.0.72;makeotf.lib2.5.5900"
FONT_ASCENT 21
FONT_DESCENT 3
UNDERLINE_POSITION 0
UNDERLINE_THICKNESS 0
X_HEIGHT 17
CAP_HEIGHT 17
RAW_ASCENT 860
RAW_DESCENT 140
NORM_SPACE 8
RELATIVE_WEIGHT 40
RELATIVE_SETWIDTH 50
SUPERSCRIPT_X 0
SUPERSCRIPT_Y 8
SUPERSCRIPT_SIZE 14
SUBSCRIPT_X 0
SUBSCRIPT_Y 1
SUBSCRIPT_SIZE 14
AVG_LOWERCASE_WIDTH 195
AVG_UPPERCASE_WIDTH 199
ENDPROPERTIES
CHARS 1065
STARTCHAR space
ENCODING 32
SWIDTH 325 0
DWIDTH 8 0
BBX 1 1 0 0
BITMAP
00
ENDCHAR
STARTCHAR exclam
ENCODING 33
SWIDTH 524 0
DWIDTH 13 0
BBX 11 21 1 -3
BITMAP
015550
060004
1E0000
7E0400
BF0400
BF0410
7F0410
7F0410
7F0410
7F0410
7F0010
7F4010
7FEA90
7FAA50
2E0004
2E0404
7E0004
BF0000
BFFFE0
BFFF40
7FFD00
ENDCHAR
STARTCHAR quotedbl
ENCODING 34
SWIDTH 746 0
DWIDTH 18 0
BBX 18 12 0 6
BITMAP
0155515550
0B001D0010
2F041D0410
7F041D0410
7F041D0410
7F041D0410
7F041D0410
7F001D0010
7F002E0010
7FFFFFFF80
7FFEFFFD00
3FF8BFF400
ENDCHAR
STARTCHAR numbersign
ENCODING 35
SWIDTH 850 0
DWIDTH 20 0
BBX 20 21 0 -3
BITMAP
0001550554
001D013404
007C01F004
00E811A005
0240000100
0B40400100
2F41555550
3F80400100
3FE4469119
3FF04BC124
2FA0468114
0A00000401
2E05555541
BE01000401
BE01000405
BFD11F44B4
BFC02F0090
6FC02F0040
0FFFBFFE00
1FFE7FF800
1FF47FD000
ENDCHAR
STARTCHAR dollar
ENCODING 36
SWIDTH 750 0
DWIDTH 18 0
BBX 18 25 0 -5
BITMAP
0000555000
0002001000
0005040540
0000040040
0040040040
0700555040
1F01000040
3F041FFE00
7F040AF800
7F04000500
7F41000040
7F80154010
7FE4000410
3FFFA50410
2FFFFF0410
0755540410
0700000410
2F05555010
7F00040040
7F40040500
7FFF002400
7FFF401000
7FFFFF8000
007FFE0000
003FF40000
ENDCHAR
STARTCHAR percent
ENCODING 37
SWIDTH 1131 0
DWIDTH 27 0
BBX 27 21 0 -3
BITMAP
00155401550000
01400008010000
07055068010000
2E1004B4440000
7E1284B4440000
BE12C4B0440000
BE12C4A0040000
BE1144A1105540
BF100491140014
BF4550C1241504
7FD00680304044
7FFFFF84711C04
2FFFDF44711D04
06FA2F04B11D04
00002E00F11C04
00003E10F44044
00007D01F41504
0000BD02FD0010
0000BFFBFFFF80
0000FFE2FFFE00
0000FF40BFE400
ENDCHAR
STARTCHAR ampersand
ENCODING 38
SWIDTH 866 0
DWIDTH 21 0
BBX 21 21 0 -3
BITMAP
000155550000
001400010000
006000010000
02D015410000
07D040010000
0FD007FD0000
0FD107F40000
0FE000500000
0FE440455540
0B8150640040
0B0400745040
2E0400B44040
7E043FF44040
BE043FF04200
BE0400004100
BF0155550100
BF4000000400
7FE000001000
3FFFFFFF8000
1FFFFFFE0000
06FFFFE40000
ENDCHAR
STARTCHAR quotesingle
ENCODING 39
SWIDTH 456 0
DWIDTH 11 0
BBX 11 12 0 6
BITMAP
015550
070004
2F0004
7F4100
7F4100
3F4100
3F4100
3F4010
3F4010
3FFFD0
3FFF40
2FF800
ENDCHAR
STARTCHAR parenleft
ENCODING 40
SWIDTH 529 0
DWIDTH 13 0
BBX 13 25 0 -5
BITMAP
00015500
00100040
00800040
03405040
0F010040
2F040500
7F042C00
7F041000
7F041000
7F041000
7F041000
7F041000
7F041000
7F041000
7F041000
7F041000
7F041000
7F040500
7F010040
7F405040
7FC00040
7FF40040
3FFFFD00
1FFFF400
01BFD000
ENDCHAR
STARTCHAR parenright
ENCODING 41
SWIDTH 529 0
DWIDTH 13 0
BBX 12 25 0 -5
BITMAP
005540
020014
1F0001
7F0501
7F0041
BF0010
BFF410
7FF410
6FF410
03F410
03F410
03F410
03F410
03F410
03F410
03F410
03F410
03F410
030041
1F0501
7F0004
7F0010
BFFF80
7FFE00
7FE400
ENDCHAR
STARTCHAR asterisk
ENCODING 42
SWIDTH 818 0
DWIDTH 20 0
BBX 18 17 1 1
BITMAP
0001554000
0007404000
001F404000
015F844540
0701845000
1E00040010
3D05445410
7E40190050
BFFD111F80
FFF8000A00
6FE0444100
01800C0040
07D02E0100
1FF87F0400
2FFFFFE000
0BFDBF4000
01F43D0000
ENDCHAR
STARTCHAR plus
ENCODING 43
SWIDTH 834 0
DWIDTH 20 0
BBX 18 18 1 -1
BITMAP
0000554000
0002400000
000B400000
002F440000
003F440000
016A041550
0900040010
2D05555410
BD00040010
FE00040010
FFFF443F90
FFFF443F00
BFFF443800
003F400000
003F400000
003FFE4000
003FFD0000
003FF40000
ENDCHAR
STARTCHAR comma
ENCODING 44
SWIDTH 484 0
DWIDTH 12 0
BBX 11 13 0 -5
BITMAP
005554
020004
0F0004
3F0544
7F0044
7F4044
7FFD44
7F8044
3F4504
1F4010
3FFF80
3FFD00
2FE400
ENDCHAR
STARTCHAR hyphen
ENCODING 45
SWIDTH 520 0
DWIDTH 12 0
BBX 12 8 0 3
BITMAP
015555
060000
2E0550
BE0000
BE0001
BFFFFD
BFFFF4
7FFFD0
ENDCHAR
STARTCHAR period
ENCODING 46
SWIDTH 484 0
DWIDTH 12 0
BBX 11 10 0 -3
BITMAP
005554
020004
1F0004
3F0104
7F0104
7F0004
7F0004
7FFFE4
7FFFC0
3FFE00
ENDCHAR
STARTCHAR slash
ENCODING 47
SWIDTH 487 0
DWIDTH 12 0
BBX 12 25 0 -4
BITMAP
000555
002401
00B001
03F041
03F041
07E040
07E044
0BD004
0BD104
0FC104
0FC104
0F8104
1F8100
1F8110
2F4010
2F4410
3F0410
3F0410
3E0410
7E0400
7E0040
BD0040
BFFE40
FFF800
BFE000
ENDCHAR
STARTCHAR zero
ENCODING 48
SWIDTH 827 0
DWIDTH 20 0
BBX 19 21 0 -3
BITMAP
0001555500
0010000010
0080155004
0741000104
1F41000104
2F041FD044
3F041FD044
7F041FD044
7F041FD044
7F041FD044
7F041FD044
7F041FD044
7F041FD044
7F410A8104
7F41000104
3F80155004
3FD0000010
2FF9000180
1FFFFFFE00
07FFFFF400
006FFE8000
ENDCHAR
STARTCHAR one
ENCODING 49
SWIDTH 701 0
DWIDTH 17 0
BBX 17 21 0 -3
BITMAP
0055554000
0240001000
0F40001000
2F41541000
3F40041000
3F95041000
3FFD041000
3FFD041000
15FD041000
00FD041000
00FD041000
00FD041000
00FD041000
00A9041500
0600040040
1F05555040
7F00000040
7F00000040
7FFFFFFE00
7FFFFFF800
7FFFFFD000
ENDCHAR
STARTCHAR two
ENCODING 50
SWIDTH 739 0
DWIDTH 18 0
BBX 17 21 0 -3
BITMAP
0055555400
0280000100
0B80000040
2F81554040
2F80001040
2FFFFD0440
2FFFF80440
1FFE400040
0010005040
0140150040
0701000500
1F0401B400
3E041FC000
7E042A5540
BE04000000
BE05555400
BE00000000
BE00000040
BFFFFFFF40
BFFFFFFD00
7FFFFFE000
ENDCHAR
STARTCHAR three
ENCODING 51
SWIDTH 737 0
DWIDTH 18 0
BBX 18 21 0 -3
BITMAP
0155555000
0700000400
2F00000100
7F05550100
7F00004100
7FEAA04100
7FFFF04100
7FF0004400
00B0004100
02F0554040
07F0000000
07F0000410
07FFFE0410
07FFFE0410
0300000410
1F05555040
7F00000040
7F00000500
7FFFFFF400
7FFFFFD000
7FFFFE4000
ENDCHAR
STARTCHAR four
ENCODING 52
SWIDTH 809 0
DWIDTH 19 0
BBX 18 21 1 -3
BITMAP
0155415540
1D00460010
7D005E0010
FD007E0410
FD007E0410
FD007E0410
FD007E0410
FD007E0410
FD003E0410
FD04000410
FD04000410
FD01555410
FF00000410
FF90000410
BFFFFE0410
3FFFFE0410
0BFFFE0010
0000BE0010
0000BFFF40
0000BFFD00
00007FF400
ENDCHAR
STARTCHAR five
ENCODING 53
SWIDTH 747 0
DWIDTH 18 0
BBX 18 21 0 -3
BITMAP
0055555540
0340000040
1F40000040
3F41555040
3F41000040
3F410AAA00
3F411FFC00
3F41000500
3F41000040
3F41555010
3F40000410
3F80000410
3FFFFE0410
3FFFFE0410
1B40000410
0F05555010
3F00000040
7F00000100
7FFFFFF800
7FFFFFD000
3FFFFE4000
ENDCHAR
STARTCHAR six
ENCODING 54
SWIDTH 793 0
DWIDTH 19 0
BBX 19 21 0 -3
BITMAP
0005555540
0010000040
0080555040
0741000040
1F40000040
2F001FFE00
3F001AA900
3F00000050
7F00555410
7F01000104
7F00010104
7F001F8104
7F001FC104
7F401F8104
7F41000404
3F80555000
3FD0000010
2FF9000540
1FFFFFFD00
07FFFFF000
006FFE4000
ENDCHAR
STARTCHAR seven
ENCODING 55
SWIDTH 727 0
DWIDTH 17 0
BBX 17 21 0 -3
BITMAP
0155555540
0A00000040
2E00000040
BE05555040
BE00001040
BFFFFC1040
BFFFFC1040
7FFFE41040
0001001040
0014005040
0060050000
01E0500500
07D0416400
0BD043C000
0FD0420000
0FD0410000
0FD0010000
0FE0010000
0FFFF40000
0FFFD00000
0BFF400000
ENDCHAR
STARTCHAR eight
ENCODING 56
SWIDTH 811 0
DWIDTH 19 0
BBX 19 21 0 -3
BITMAP
0001555500
0010000040
0090555010
02C1000410
0BC10A4110
0FC11F8110
1FD10F8110
1FF1000440
1FC0556410
0F41000104
0B04000104
2F042FD004
7F042FD004
7F042FD004
7F04000104
7F41000104
7F80555010
7FF9000180
2FFFFFFE00
0BFFFFF800
01AFFE4000
ENDCHAR
STARTCHAR nine
ENCODING 57
SWIDTH 793 0
DWIDTH 19 0
BBX 19 21 0 -3
BITMAP
0005555500
0010000040
0140555010
0701000410
1F04000104
3F042F4104
7F042F8104
7F041F4104
7F00000504
7F40555104
7F80000104
7FE4014104
3FFFFF8104
1FFAAA0104
01E0000400
02E0555010
0BE0000010
0BE0000140
0BFFFFFD00
0BFFFFE000
07FFFE4000
ENDCHAR
STARTCHAR colon
ENCODING 58
SWIDTH 484 0
DWIDTH 12 0
BBX 11 19 0 -3
BITMAP
005554
020004
0F0004
3F0104
7F0104
7F0004
7F0004
7F9554
7FFFE0
7FAA94
1B0004
1F0004
3F0104
7F0104
7F0004
7F0004
7FFFE4
7FFFC0
3FFE00
ENDCHAR
STARTCHAR semicolon
ENCODING 59
SWIDTH 484 0
DWIDTH 12 0
BBX 11 21 0 -5
BITMAP
005554
030004
1F0004
3F0104
7F0104
7F0004
7F4004
7FFFE0
7FAA94
2B0004
0B0004
3F0544
7F0044
7F4044
7FFD44
7F8044
3F4504
1F4010
3FFF80
3FFD00
2FE400
ENDCHAR
STARTCHAR less
ENCODING 60
SWIDTH 814 0
DWIDTH 20 0
BBX 17 18 1 -2
BITMAP
0000001540
0000150040
0005400040
0050015040
0200540040
0A04001A40
2E0416F800
7E047FE000
BE04055000
BE05000540
BF40540040
BFE0005040
7FFE900040
2FFFFE4040
06FFFFFA40
001BFFFE00
00006BF800
0000005000
ENDCHAR
STARTCHAR equal
ENCODING 61
SWIDTH 834 0
DWIDTH 20 0
BBX 18 15 1 0
BITMAP
0155555550
0900000010
2D05555410
BD00000010
FE55555550
FFFFFFFF80
FFFFFFFE00
6BAAAAA950
0900000010
2D05555410
BD00000010
FE00000010
FFFFFFFF90
FFFFFFFF00
BFFFFFF800
ENDCHAR
STARTCHAR greater
ENCODING 62
SWIDTH 814 0
DWIDTH 20 0
BBX 18 18 1 -2
BITMAP
0155000000
0B00540000
2F00005000
7F05400100
7F00054040
7FE5001000
7FFFE40410
7FFFFF0410
06BF900410
0014001440
0200054040
0B01500600
3F0001B800
7F016FE000
7F6FFE4000
7FFF900000
7F94000000
2400000000
ENDCHAR
STARTCHAR question
ENCODING 63
SWIDTH 756 0
DWIDTH 18 0
BBX 18 21 0 -3
BITMAP
0155555500
0B00000040
2F00000010
7F05555010
BF00000410
BFFFFE0410
7FFFE90410
7FF4000410
00A0001410
02F0554000
0BF0000140
07F415AD00
07FFFFF400
07F0018000
03E0000000
03E0400000
0BE0000000
0BF0010000
0BFFF90000
0BFFF40000
07FF800000
ENDCHAR
STARTCHAR at
ENCODING 64
SWIDTH 967 0
DWIDTH 23 0
BBX 22 25 1 -4
BITMAP
000055554000
001555555400
004500001500
0211AFFE4140
1D4BFFFFF140
3D5FFFFFF910
BD5050003910
FD5605552910
FD5D10012910
FD5C03D12910
FD5C43D12910
FD5C43D12910
FD5C43D12910
FD5C43D12910
FD5C01412510
FD5C10010140
FD5E05555440
FD5F40000500
FE4FFFFFF800
FF57FFFFE000
BFD55AAA5000
7FF955551000
2FFFFFFF9000
07FFFFFE0000
006BFFF80000
ENDCHAR
STARTCHAR A
ENCODING 65
SWIDTH 830 0
DWIDTH 20 0
BBX 20 21 0 -3
BITMAP
0001555500
0008000040
0028000040
00B4155000
01E0000010
02D0474410
03C00B8004
07810F8104
0B401FC004
1F40000004
2F04000041
3F05555541
3F04000041
7F04000041
7F042FE041
7F042FE041
7F002FE001
7F001BE000
7FFF8BFFF4
7FFE0BFFD0
3FF40BFF40
ENDCHAR
STARTCHAR B
ENCODING 66
SWIDTH 825 0
DWIDTH 20 0
BBX 19 21 1 -3
BITMAP
0155555400
0900000100
7D00000040
FD05554040
FD04001040
FD047E1040
FD047E0040
FD04290040
FD04001140
FD05555410
FD04000100
FD043F8104
FD047FC104
FD047F8104
FD04000104
FD05555404
FD00000010
FE00000040
FFFFFFFE00
FFFFFFF800
BFFFFF9000
ENDCHAR
STARTCHAR C
ENCODING 67
SWIDTH 728 0
DWIDTH 17 0
BBX 17 21 0 -3
BITMAP
0005555540
0010000040
0080000040
0740555040
1F41000040
2F000BFE40
3F041FFC00
3F041FE000
7F04100000
7F04100000
7F04100000
7F04100000
7F04100000
7F40055540
7F41000040
3F80555040
3FD0000040
2FF9000040
1FFFFFFE40
07FFFFFD00
01BFFFE000
ENDCHAR
STARTCHAR D
ENCODING 68
SWIDTH 846 0
DWIDTH 20 0
BBX 19 21 1 -3
BITMAP
0155555500
0900000050
7D00000010
FD05555004
FD04000404
FD04150104
FD043F8104
FD043FC104
FD043FC104
FD042FC104
FD042FC104
FD042FC104
FD042F8104
FD041A4104
FD04000504
FD05555000
FD00000010
FE00000140
FFFFFFFD00
FFFFFFF400
BFFFFE4000
ENDCHAR
STARTCHAR E
ENCODING 69
SWIDTH 754 0
DWIDTH 18 0
BBX 17 21 1 -3
BITMAP
0155555540
0900000040
7D00000040
FD05555040
FD04000040
FD047FFE00
FD047FF800
FD04000400
FD04000400
FD05550400
FD04000400
FD04155000
FD047FD000
FD042A5500
FD04000040
FD05555040
FD00000040
FE00000040
FFFFFFFE00
FFFFFFF800
BFFFFFD000
ENDCHAR
STARTCHAR F
ENCODING 70
SWIDTH 718 0
DWIDTH 17 0
BBX 16 21 1 -3
BITMAP
01555555
09000000
7D000000
FD055550
FD040001
FD042AA9
FD043FF4
FD043FE0
FD040010
FD040000
FD055500
FD040010
FD043FE0
FD043F40
FD043D00
FD000000
FD000000
FE000000
FFFE4000
FFFC0000
BFE00000
ENDCHAR
STARTCHAR G
ENCODING 71
SWIDTH 808 0
DWIDTH 19 0
BBX 19 21 0 -3
BITMAP
0005555540
0010000000
0080000000
0740555400
1F41000000
2F000BFE40
3F041FFD00
3F041FE000
7F04101554
7F04108004
7F0417C004
7F041FC104
7F041FC104
7F40054104
7F41000104
3F80555504
3FD0000004
2FF9000004
1FFFFFFFE0
07FFFFFF80
01BFFFFE00
ENDCHAR
STARTCHAR H
ENCODING 72
SWIDTH 859 0
DWIDTH 21 0
BBX 19 21 1 -3
BITMAP
0155405554
090001C004
7D000BC004
FD041FC104
FD042FC104
FD042FC104
FD041A8104
FD04000104
FD04000104
FD05555504
FD04000104
FD04000104
FD043FC104
FD043FC104
FD043FC104
FD042FC104
FD002FC004
FE006FC004
FFFF5FFFE0
FFFD1FFF80
BFE01FFD00
ENDCHAR
STARTCHAR I
ENCODING 73
SWIDTH 705 0
DWIDTH 17 0
BBX 17 21 0 -3
BITMAP
0155555500
0700000040
1F00000040
7F05555040
7F00000040
7F94001500
7FFD007800
7FFD006000
15FD004000
00FD004000
00FD004000
00FD004000
00FD004000
00A8001500
0200000040
1F05555040
3F00000040
7F00000040
7FFFFFFD00
7FFFFFF400
3FFFFFD000
ENDCHAR
STARTCHAR J
ENCODING 74
SWIDTH 788 0
DWIDTH 19 0
BBX 18 21 0 -3
BITMAP
0000005550
0000074010
00001F4010
00003F4010
00003F4010
00003F4010
00003F4010
00003F4010
00557F4010
06003F4010
1E003F4010
7E043F4010
BE043F0410
BE04040410
BF01000410
BF40554010
7F80000040
7FF5000500
2FFFFFF800
0BFFFFD000
01BFF90000
ENDCHAR
STARTCHAR K
ENCODING 75
SWIDTH 846 0
DWIDTH 20 0
BBX 19 21 1 -3
BITMAP
0155405550
0900020010
7D000A0010
FD042D0440
FD043C1040
FD04381040
FD04304100
FD04104140
FD04000010
FD05555404
FD04000104
FD04150104
FD043F8104
FD043F8104
FD043F8104
FD042F8104
FD002F8004
FE006FC004
FFFF6FFFE0
FFFD2FFF80
BFE01FFD00
ENDCHAR
STARTCHAR L
ENCODING 76
SWIDTH 795 0
DWIDTH 19 0
BBX 18 21 1 -3
BITMAP
0155400000
0900000000
7D00000000
FD04000000
FD04000000
FD04000000
FD04000000
FD04000000
FD04005540
FD04024010
FD041F0010
FD043F0410
FD043F0410
FD04150410
FD04000410
FD05555410
FD00000010
FE00000010
FFFFFFFF80
FFFFFFFE00
BFFFFFF400
ENDCHAR
STARTCHAR M
ENCODING 77
SWIDTH 949 0
DWIDTH 23 0
BBX 21 21 1 -3
BITMAP
015540055540
090010140040
7D0000700040
FD0501D05040
FD0442C11040
FD0441441040
FD0410001040
FD0404101040
FD0401401040
FD0450081040
FD04600C1040
FD04782C1040
FD047FFC1040
FD047EFC1040
FD0475FC1040
FD0441FC1040
FD0041FC0040
FE0041FC0040
FFFE41FFFE00
FFFC01FFF800
BFE000FFE000
ENDCHAR
STARTCHAR N
ENCODING 78
SWIDTH 853 0
DWIDTH 20 0
BBX 19 21 1 -3
BITMAP
0155005554
0900418004
7D0007C004
FD040BC104
FD0503C104
FD04418104
FD04104104
FD04040104
FD04010104
FD04004104
FD04604104
FD04781104
FD047D0504
FD047F4104
FD047F8104
FD047FC104
FD007FC004
FE005FC004
FFFE5FFFD0
FFFD1FFF40
BFE01FFD00
ENDCHAR
STARTCHAR O
ENCODING 79
SWIDTH 837 0
DWIDTH 20 0
BBX 20 21 0 -3
BITMAP
0001555540
0010000010
0080155404
0741000104
1F41000041
2F041FD041
3F041FE041
7F041FE041
7F041BE041
7F041BE041
7F041BE041
7F041BE041
7F041BE041
7F410A9041
7F41000101
3F80155404
3FD0000014
2FF9000190
1FFFFFFF00
07FFFFF800
006FFE9000
ENDCHAR
STARTCHAR P
ENCODING 80
SWIDTH 782 0
DWIDTH 19 0
BBX 18 21 1 -3
BITMAP
0155555400
0900000040
7D00000040
FD05555010
FD04000410
FD04290410
FD047F0410
FD047F0410
FD047F0410
FD04000410
FD04000400
FD05554040
FD04000500
FD043FF400
FD043FD000
FD043E0000
FD00000000
FE00400000
FFFE400000
FFFD000000
BFE0000000
ENDCHAR
STARTCHAR Q
ENCODING 81
SWIDTH 837 0
DWIDTH 20 0
BBX 20 23 0 -5
BITMAP
0001555540
0010000010
0080155004
0341000104
0F41000041
2F041FD041
3F041FE041
3F041FE041
7F041BE041
7F041BE041
7F041BE041
7F041BE041
7F041BE041
7F440A9041
7F41000040
3F81000100
3FD0155400
2FF4010040
1FFF800A00
07FFC00400
00BFFFE000
001FFF8000
001FFD0000
ENDCHAR
STARTCHAR R
ENCODING 82
SWIDTH 843 0
DWIDTH 20 0
BBX 19 21 1 -3
BITMAP
0155555500
0900000040
7D00000040
FD05554000
FD04001010
FD043D0010
FD043E0400
FD043E0440
FD04000040
FD04001010
FD05555404
FD04000104
FD043F8104
FD043FC104
FD043FC104
FD001FC004
FD001FC004
FE001FD004
FFFE5FFFE0
FFFC1FFF80
BFE00FFE00
ENDCHAR
STARTCHAR S
ENCODING 83
SWIDTH 750 0
DWIDTH 18 0
BBX 18 21 0 -3
BITMAP
0005555540
0050000040
0140000040
0B00555040
2F01000040
3F041FFE00
7F041AF800
7F04000500
7F01000040
7F80154010
7FE0000410
3FFFA50410
2FFFFF0410
0755540410
0700000410
2F05555010
7F00000040
7F00000100
7FFFFFF800
7FFFFFD000
7FFFFE4000
ENDCHAR
STARTCHAR T
ENCODING 84
SWIDTH 756 0
DWIDTH 18 0
BBX 18 21 0 -3
BITMAP
0155555550
0900000010
7D00000010
BD05555510
FE00040010
FFFE041F90
FFFE042F40
BFFE042800
00BE041000
00BE041000
00BE041000
00BE041000
00BE041000
00BE041000
00BE041000
00BE041000
00BE001000
00BF001000
00BFFF8000
00BFFE0000
007FF80000
ENDCHAR
STARTCHAR U
ENCODING 85
SWIDTH 846 0
DWIDTH 20 0
BBX 19 21 1 -3
BITMAP
0155405554
1D00428004
7D004B8004
FD046F8104
FD046F8104
FD046F8104
FD046F8104
FD046F8104
FD046F8104
FD046F8104
FD046F8104
FD046F8104
FD042F8104
FD04000104
FD05000404
FE00555010
FF80000050
BFE4000640
3FFFFFF800
1FFFFFE000
01BFFA4000
ENDCHAR
STARTCHAR V
ENCODING 86
SWIDTH 830 0
DWIDTH 20 0
BBX 20 21 0 -3
BITMAP
0155501554
0700109001
1F0017D001
7F041BD041
7F041FD041
7F041FD041
7F041FD041
7F041FD041
7F041FD041
7F410FC104
7F810B8104
7FC1074104
3FD0420410
2FE0400410
1FF0101000
0FF4155040
0BFC000040
03FD000100
02FFFFF900
01FFFFE000
00BFFF8000
ENDCHAR
STARTCHAR W
ENCODING 87
SWIDTH 931 0
DWIDTH 22 0
BBX 21 21 1 -3
BITMAP
015540055540
1D00401C0040
7D00407C0040
FD1041FC1040
FD1041FC1040
FD1041FC1040
FD1045BC1040
FD10601C1040
FD1050081040
FD1041441040
FD1004101040
FD1000101040
FD0411041040
FE0403441000
FF0447800100
FF4107C14100
BF800BC00000
7FC00FD00400
3FFFEFFFE000
2FFF4FFF8000
0FFD0BFE0000
ENDCHAR
STARTCHAR X
ENCODING 88
SWIDTH 837 0
DWIDTH 20 0
BBX 19 21 1 -3
BITMAP
0155405550
1D00428004
7D004B8004
FD105F8104
FD002F4104
FE041E0410
FF01040410
FF81001040
BFD0404000
3FF0154100
1FD0404000
0B41001040
0A04090410
1D042F0000
7D107F8104
FD107F8104
FD007F8004
FD006F8004
FFFE6FFFE0
FFF82FFF40
FFE01FFD00
ENDCHAR
STARTCHAR Y
ENCODING 89
SWIDTH 805 0
DWIDTH 19 0
BBX 19 21 0 -3
BITMAP
0155501554
0B0011D004
2F0017D004
7F041FD104
BF041FD104
BF041FD104
BF041FC104
BF010B4104
7F41010404
7FD0401010
7FE0101040
2FF8054000
0FFD010100
07FF010400
02FF410400
00FF410400
007F400400
003F400400
003FFFD000
003FFF4000
002FFD0000
ENDCHAR
STARTCHAR Z
ENCODING 90
SWIDTH 760 0
DWIDTH 18 0
BBX 18 21 0 -3
BITMAP
0055555540
0740000010
1F40000010
3F41555010
3F40000410
3FFFE01010
3FFFD00040
2FFF404100
000A010100
0028040400
0070101000
00D0404000
0340010000
0B01015550
2F04000010
7F01555410
7F00000010
7F00000010
7FFFFFFF80
7FFFFFFE00
7FFFFFF800
ENDCHAR
STARTCHAR bracketleft
ENCODING 91
SWIDTH 529 0
DWIDTH 13 0
BBX 13 25 0 -5
BITMAP
00555500
06000040
1F000040
7F055040
7F040040
7F040500
7F042C00
7F041000
7F041000
7F041000
7F041000
7F041000
7F041000
7F041000
7F041000
7F041000
7F041000
7F041500
7F040040
7F055040
7F000040
7F000040
7FFFFD00
7FFFF400
7FFFD000
ENDCHAR
STARTCHAR backslash
ENCODING 92
SWIDTH 487 0
DWIDTH 12 0
BBX 12 25 0 -4
BITMAP
015540
090040
2E0040
BE0400
FE0410
BF0410
BF0410
7F4410
7F4010
7F8110
3F8100
3FC104
2FC104
2FC104
1FD104
1FD004
0FE044
0FE041
0FF041
0BF041
0BF001
07F401
07FFF8
03FFE0
02FF80
ENDCHAR
STARTCHAR bracketright
ENCODING 93
SWIDTH 529 0
DWIDTH 13 0
BBX 12 25 0 -5
BITMAP
005555
020000
1F0000
7F0540
7F0010
BF0010
BFF410
7FF410
6FF410
03F410
03F410
03F410
03F410
03F410
03F410
03F410
03F410
03F410
030010
1F0540
7F0000
7F0001
BFFFFD
7FFFF4
7FFF80
ENDCHAR
STARTCHAR asciicircum
ENCODING 94
SWIDTH 814 0
DWIDTH 20 0
BBX 19 16 0 2
BITMAP
0001555000
0005000400
0028154100
00B4401100
01F0401040
03E0451040
03D10A0440
07D10F0440
0BC11F4410
0F802F8010
1F443F8110
2F003FC004
3E006FD004
3FFE5FFFE0
7FF81FFF80
7FE00BFD00
ENDCHAR
STARTCHAR underscore
ENCODING 95
SWIDTH 834 0
DWIDTH 20 0
BBX 18 8 1 -5
BITMAP
0155555550
0900000010
2D05555410
BD00000010
FE00000010
FFFFFFFFD0
FFFFFFFF40
BFFFFFF800
ENDCHAR
STARTCHAR grave
ENCODING 96
SWIDTH 600 0
DWIDTH 14 0
BBX 14 9 0 15
BITMAP
00500000
02055540
1E000010
7E055410
BF000010
BFFEA510
BFFFFFD0
6FFFFE00
0015A800
ENDCHAR
STARTCHAR a
ENCODING 97
SWIDTH 830 0
DWIDTH 20 0
BBX 20 21 0 -3
BITMAP
0001555500
0008000040
0028000040
00B4155000
01E0000010
02D0474410
03C00B8004
07810F8104
0B401FC004
1F40000004
2F04000041
3F05555541
3F04000041
7F04000041
7F042FE041
7F042FE041
7F002FE001
7F001BE000
7FFF8BFFF4
7FFE0BFFD0
3FF40BFF40
ENDCHAR
STARTCHAR b
ENCODING 98
SWIDTH 825 0
DWIDTH 20 0
BBX 19 21 1 -3
BITMAP
0155555400
0900000100
7D00000040
FD05554040
FD04001040
FD047E1040
FD047E0040
FD04290040
FD04001140
FD05555410
FD04000100
FD043F8104
FD047FC104
FD047F8104
FD04000104
FD05555404
FD00000010
FE00000040
FFFFFFFE00
FFFFFFF800
BFFFFF9000
ENDCHAR
STARTCHAR c
ENCODING 99
SWIDTH 728 0
DWIDTH 17 0
BBX 17 21 0 -3
BITMAP
0005555540
0010000040
0080000040
0740555040
1F41000040
2F000BFE40
3F041FFC00
3F041FE000
7F04100000
7F04100000
7F04100000
7F04100000
7F04100000
7F40055540
7F41000040
3F80555040
3FD0000040
2FF9000040
1FFFFFFE40
07FFFFFD00
01BFFFE000
ENDCHAR
STARTCHAR d
ENCODING 100
SWIDTH 846 0
DWIDTH 20 0
BBX 19 21 1 -3
BITMAP
0155555500
0900000050
7D00000010
FD05555004
FD04000404
FD04150104
FD043F8104
FD043FC104
FD043FC104
FD042FC104
FD042FC104
FD042FC104
FD042F8104
FD041A4104
FD04000504
FD05555000
FD00000010
FE00000140
FFFFFFFD00
FFFFFFF400
BFFFFE4000
ENDCHAR
STARTCHAR e
ENCODING 101
SWIDTH 754 0
DWIDTH 18 0
BBX 17 21 1 -3
BITMAP
0155555540
0900000040
7D00000040
FD05555040
FD04000040
FD047FFE00
FD047FF800
FD04000400
FD04000400
FD05550400
FD04000400
FD04155000
FD047FD000
FD042A5500
FD04000040
FD05555040
FD00000040
FE00000040
FFFFFFFE00
FFFFFFF800
BFFFFFD000
ENDCHAR
STARTCHAR f
ENCODING 102
SWIDTH 718 0
DWIDTH 17 0
BBX 16 21 1 -3
BITMAP
01555555
09000000
7D000000
FD055550
FD040001
FD042AA9
FD043FF4
FD043FE0
FD040010
FD040000
FD055500
FD040010
FD043FE0
FD043F40
FD043D00
FD000000
FD000000
FE000000
FFFE4000
FFFC0000
BFE00000
ENDCHAR
STARTCHAR g
ENCODING 103
SWIDTH 808 0
DWIDTH 19 0
BBX 19 21 0 -3
BITMAP
0005555540
0010000000
0080000000
0740555400
1F41000000
2F000BFE40
3F041FFD00
3F041FE000
7F04101554
7F04108004
7F0417C004
7F041FC104
7F041FC104
7F40054104
7F41000104
3F80555504
3FD0000004
2FF9000004
1FFFFFFFE0
07FFFFFF80
01BFFFFE00
ENDCHAR
STARTCHAR h
ENCODING 104
SWIDTH 859 0
DWIDTH 21 0
BBX 19 21 1 -3
BITMAP
0155405554
090001C004
7D000BC004
FD041FC104
FD042FC104
FD042FC104
FD041A8104
FD04000104
FD04000104
FD05555504
FD04000104
FD04000104
FD043FC104
FD043FC104
FD043FC104
FD042FC104
FD002FC004
FE006FC004
FFFF5FFFE0
FFFD1FFF80
BFE01FFD00
ENDCHAR
STARTCHAR i
ENCODING 105
SWIDTH 705 0
DWIDTH 17 0
BBX 17 21 0 -3
BITMAP
0155555500
0700000040
1F00000040
7F05555040
7F00000040
7F94001500
7FFD007800
7FFD006000
15FD004000
00FD004000
00FD004000
00FD004000
00FD004000
00A8001500
0200000040
1F05555040
3F00000040
7F00000040
7FFFFFFD00
7FFFFFF400
3FFFFFD000
ENDCHAR
STARTCHAR j
ENCODING 106
SWIDTH 788 0
DWIDTH 19 0
BBX 18 21 0 -3
BITMAP
0000005550
0000074010
00001F4010
00003F4010
00003F4010
00003F4010
00003F4010
00003F4010
00557F4010
06003F4010
1E003F4010
7E043F4010
BE043F0410
BE04040410
BF01000410
BF40554010
7F80000040
7FF5000500
2FFFFFF800
0BFFFFD000
01BFF90000
ENDCHAR
STARTCHAR k
ENCODING 107
SWIDTH 846 0
DWIDTH 20 0
BBX 19 21 1 -3
BITMAP
0155405550
0900020010
7D000A0010
FD042D0440
FD043C1040
FD04381040
FD04304100
FD04104140
FD04000010
FD05555404
FD04000104
FD04150104
FD043F8104
FD043F8104
FD043F8104
FD042F8104
FD002F8004
FE006FC004
FFFF6FFFE0
FFFD2FFF80
BFE01FFD00
ENDCHAR
STARTCHAR l
ENCODING 108
SWIDTH 795 0
DWIDTH 19 0
BBX 18 21 1 -3
BITMAP
0155400000
0900000000
7D00000000
FD04000000
FD04000000
FD04000000
FD04000000
FD04000000
FD04005540
FD04024010
FD041F0010
FD043F0410
FD043F0410
FD04150410
FD04000410
FD05555410
FD00000010
FE00000010
FFFFFFFF80
FFFFFFFE00
BFFFFFF400
ENDCHAR
STARTCHAR m
ENCODING 109
SWIDTH 949 0
DWIDTH 23 0
BBX 21 21 1 -3
BITMAP
015540055540
090010140040
7D0000700040
FD0501D05040
FD0442C11040
FD0441441040
FD0410001040
FD0404101040
FD0401401040
FD0450081040
FD04600C1040
FD04782C1040
FD047FFC1040
FD047EFC1040
FD0475FC1040
FD0441FC1040
FD0041FC0040
FE0041FC0040
FFFE41FFFE00
FFFC01FFF800
BFE000FFE000
ENDCHAR
STARTCHAR n
ENCODING 110
SWIDTH 853 0
DWIDTH 20 0
BBX 19 21 1 -3
BITMAP
0155005554
0900418004
7D0007C004
FD040BC104
FD0503C104
FD04418104
FD04104104
FD04040104
FD04010104
FD04004104
FD04604104
FD04781104
FD047D0504
FD047F4104
FD047F8104
FD047FC104
FD007FC004
FE005FC004
FFFE5FFFD0
FFFD1FFF40
BFE01FFD00
ENDCHAR
STARTCHAR o
ENCODING 111
SWIDTH 837 0
DWIDTH 20 0
BBX 20 21 0 -3
BITMAP
0001555540
0010000010
0080155404
0741000104
1F41000041
2F041FD041
3F041FE041
7F041FE041
7F041BE041
7F041BE041
7F041BE041
7F041BE041
7F041BE041
7F410A9041
7F41000101
3F80155404
3FD0000014
2FF9000190
1FFFFFFF00
07FFFFF800
006FFE9000
ENDCHAR
STARTCHAR p
ENCODING 112
SWIDTH 782 0
DWIDTH 19 0
BBX 18 21 1 -3
BITMAP
0155555400
0900000040
7D00000040
FD05555010
FD04000410
FD04290410
FD047F0410
FD047F0410
FD047F0410
FD04000410
FD04000400
FD05554040
FD04000500
FD043FF400
FD043FD000
FD043E0000
FD00000000
FE00400000
FFFE400000
FFFD000000
BFE0000000
ENDCHAR
STARTCHAR q
ENCODING 113
SWIDTH 837 0
DWIDTH 20 0
BBX 20 23 0 -5
BITMAP
0001555540
0010000010
0080155004
0341000104
0F41000041
2F041FD041
3F041FE041
3F041FE041
7F041BE041
7F041BE041
7F041BE041
7F041BE041
7F041BE041
7F440A9041
7F41000040
3F81000100
3FD0155400
2FF4010040
1FFF800A00
07FFC00400
00BFFFE000
001FFF8000
001FFD0000
ENDCHAR
STARTCHAR r
ENCODING 114
SWIDTH 843 0
DWIDTH 20 0
BBX 19 21 1 -3
BITMAP
0155555500
0900000040
7D00000040
FD05554000
FD04001010
FD043D0010
FD043E0400
FD043E0440
FD04000040
FD04001010
FD05555404
FD04000104
FD043F8104
FD043FC104
FD043FC104
FD001FC004
FD001FC004
FE001FD004
FFFE5FFFE0
FFFC1FFF80
BFE00FFE00
ENDCHAR
STARTCHAR s
ENCODING 115
SWIDTH 750 0
DWIDTH 18 0
BBX 18 21 0 -3
BITMAP
0005555540
0050000040
0140000040
0B00555040
2F01000040
3F041FFE00
7F041AF800
7F04000500
7F01000040
7F80154010
7FE0000410
3FFFA50410
2FFFFF0410
0755540410
0700000410
2F05555010
7F00000040
7F00000100
7FFFFFF800
7FFFFFD000
7FFFFE4000
ENDCHAR
STARTCHAR t
ENCODING 116
SWIDTH 756 0
DWIDTH 18 0
BBX 18 21 0 -3
BITMAP
0155555550
0900000010
7D00000010
BD05555510
FE00040010
FFFE041F90
FFFE042F40
BFFE042800
00BE041000
00BE041000
00BE041000
00BE041000
00BE041000
00BE041000
00BE041000
00BE041000
00BE001000
00BF001000
00BFFF8000
00BFFE0000
007FF80000
ENDCHAR
STARTCHAR u
ENCODING 117
SWIDTH 846 0
DWIDTH 20 0
BBX 19 21 1 -3
BITMAP
0155405554
1D00428004
7D004B8004
FD046F8104
FD046F8104
FD046F8104
FD046F8104
FD046F8104
FD046F8104
FD046F8104
FD046F8104
FD046F8104
FD042F8104
FD04000104
FD05000404
FE00555010
FF80000050
BFE4000640
3FFFFFF800
1FFFFFE000
01BFFA4000
ENDCHAR
STARTCHAR v
ENCODING 118
SWIDTH 830 0
DWIDTH 20 0
BBX 20 21 0 -3
BITMAP
0155501554
0700109001
1F0017D001
7F041BD041
7F041FD041
7F041FD041
7F041FD041
7F041FD041
7F041FD041
7F410FC104
7F810B8104
7FC1074104
3FD0420410
2FE0400410
1FF0101000
0FF4155040
0BFC000040
03FD000100
02FFFFF900
01FFFFE000
00BFFF8000
ENDCHAR
STARTCHAR w
ENCODING 119
SWIDTH 931 0
DWIDTH 22 0
BBX 21 21 1 -3
BITMAP
015540055540
1D00401C0040
7D00407C0040
FD1041FC1040
FD1041FC1040
FD1041FC1040
FD1045BC1040
FD10601C1040
FD1050081040
FD1041441040
FD1004101040
FD1000101040
FD0411041040
FE0403441000
FF0447800100
FF4107C14100
BF800BC00000
7FC00FD00400
3FFFEFFFE000
2FFF4FFF8000
0FFD0BFE0000
ENDCHAR
STARTCHAR x
ENCODING 120
SWIDTH 837 0
DWIDTH 20 0
BBX 19 21 1 -3
BITMAP
0155405550
1D00428004
7D004B8004
FD105F8104
FD002F4104
FE041E0410
FF01040410
FF81001040
BFD0404000
3FF0154100
1FD0404000
0B41001040
0A04090410
1D042F0000
7D107F8104
FD107F8104
FD007F8004
FD006F8004
FFFE6FFFE0
FFF82FFF40
FFE01FFD00
ENDCHAR
STARTCHAR y
ENCODING 121
SWIDTH 805 0
DWIDTH 19 0
BBX 19 21 0 -3
BITMAP
0155501554
0B0011D004
2F0017D004
7F041FD104
BF041FD104
BF041FD104
BF041FC104
BF010B4104
7F41010404
7FD0401010
7FE0101040
2FF8054000
0FFD010100
07FF010400
02FF410400
00FF410400
007F400400
003F400400
003FFFD000
003FFF4000
002FFD0000
ENDCHAR
STARTCHAR z
ENCODING 122
SWIDTH 760 0
DWIDTH 18 0
BBX 18 21 0 -3
BITMAP
0055555540
0740000010
1F40000010
3F41555010
3F40000410
3FFFE01010
3FFFD00040
2FFF404100
000A010100
0028040400
0070101000
00D0404000
0340010000
0B01015550
2F04000010
7F01555410
7F00000010
7F00000010
7FFFFFFF80
7FFFFFFE00
7FFFFFF800
ENDCHAR
STARTCHAR braceleft
ENCODING 123
SWIDTH 555 0
DWIDTH 13 0
BBX 13 25 0 -5
BITMAP
00005540
00040040
00200040
00D01040
03C00040
0F810140
1F810A00
1F810400
2F810400
2F410400
2D040400
2D009000
BD041000
FE050400
FF810400
FF810400
7F810400
2F810540
2FC10040
2FD01040
2FE00040
1FFD0040
0FFFFE40
07FFF800
00AFE000
ENDCHAR
STARTCHAR bar
ENCODING 124
SWIDTH 447 0
DWIDTH 11 0
BBX 9 25 1 -4
BITMAP
015540
090040
2D0040
BD1040
FD1040
FD1040
FD1040
FD1040
FD1040
FD1040
FD1040
FD1040
FD1040
FD1040
FD1040
FD1040
FD1040
FD1040
FD1040
FD1040
FD0040
FD0040
FFFE00
FFF800
BFE000
ENDCHAR
STARTCHAR braceright
ENCODING 125
SWIDTH 555 0
DWIDTH 13 0
BBX 14 25 0 -5
BITMAP
00554000
02001000
1F000400
7F050100
7F004100
BF004100
BFF04100
7FF44100
6FF44100
07F44040
03F41010
03F90410
03F90410
03F41000
01F44140
03F44100
03F44100
03F04100
07004100
1F050100
7F000400
7F005400
BFFF8000
7FFE0000
7FE40000
ENDCHAR
STARTCHAR asciitilde
ENCODING 126
SWIDTH 834 0
DWIDTH 20 0
BBX 18 8 1 4
BITMAP
0015540050
0100005410
0905540010
7D00005410
FD05400010
FFBFFFAA80
FFFFFFFD00
B96AFFE000
ENDCHAR
STARTCHAR uni00A0
ENCODING 160
SWIDTH 325 0
DWIDTH 8 0
BBX 1 1 0 0
BITMAP
00
ENDCHAR
STARTCHAR exclamdown
ENCODING 161
SWIDTH 523 0
DWIDTH 13 0
BBX 11 21 1 -3
BITMAP
015550
060004
2E0004
7E0404
BE0004
BF4010
BFFFC0
BF9550
2F0010
2F0410
7F0410
7F0410
7F0410
7F0410
7F0400
7E0400
7E0004
7E0000
BFFFD0
BFFF40
7FFD00
ENDCHAR
STARTCHAR cent
ENCODING 162
SWIDTH 728 0
DWIDTH 17 0
BBX 17 23 0 -4
BITMAP
0000155000
0001800400
0007800540
0014010040
0040555040
0241000040
0B40000040
2F040BFF40
3F041FFD00
3F041FE000
7F04100000
7F04100000
7F04100000
7F40055540
7F41000040
3F80555040
3FD0010040
2FF9410040
1FFFC00F40
07FFC00800
00BFFFE000
001FFF4000
001FFD0000
ENDCHAR
STARTCHAR sterling
ENCODING 163
SWIDTH 795 0
DWIDTH 19 0
BBX 19 21 0 -3
BITMAP
0001555500
0010000100
0080000100
0280554100
0B41000100
1F410BFD00
2F410FF000
3D01018000
3D01000000
7D05500000
FD01001550
FD0101D004
FF410FC004
FF410A8104
7F41000104
3F41555504
3F40000004
3F80000004
3FFFFFFFE0
3FFFFFFF80
2FFFFFFD00
ENDCHAR
STARTCHAR currency
ENCODING 164
SWIDTH 921 0
DWIDTH 22 0
BBX 22 21 0 -3
BITMAP
000400000400
001100001100
014055554040
070000000410
1F8105541040
7FE050004100
7FF440004100
1FF442F44100
07F447F84100
03F447F84100
03F447F84100
03F447F84100
03F441904100
03E050014100
038105541040
030000000410
1F807AAB8040
3FE1FFFFE100
7FFBFFFFF800
1FE0001FE000
078000078000
ENDCHAR
STARTCHAR yen
ENCODING 165
SWIDTH 803 0
DWIDTH 19 0
BBX 19 21 0 -3
BITMAP
0155501554
0A0010D004
2E0017D004
7E041FD104
BF041FD104
BF041FD104
BF400F8104
7F81060010
7FE0400000
3FF4000040
1FE8000140
07C0010010
07C1555410
0FC0010010
1FD5010550
1FFF810F80
1FFF800D00
0BFF801400
002FFFD000
002FFF4000
002FF80000
ENDCHAR
STARTCHAR brokenbar
ENCODING 166
SWIDTH 447 0
DWIDTH 11 0
BBX 9 25 1 -4
BITMAP
015540
090040
2D0040
BD1040
FD1040
FD1040
FD1040
FD1040
FD0040
FD0040
FE5540
FFFD00
FFA540
6D0040
2D0040
BD1040
FD1040
FD1040
FD1040
FD1040
FD0040
FD0040
FFFE40
FFF800
BFE000
ENDCHAR
STARTCHAR section
ENCODING 167
SWIDTH 750 0
DWIDTH 18 0
BBX 18 21 0 -3
BITMAP
0005555540
0010000040
0180555040
0741000040
1F042FFF00
3F04055800
3F04000000
7F05555040
7F04190410
7F442F0010
7F81000110
7FD0555510
3FF9000110
2FFFFF0110
0F95540010
0740000400
1F41555040
3F40000500
3FFFFFF400
3FFFFFD000
3FFFFA0000
ENDCHAR
STARTCHAR dieresis
ENCODING 168
SWIDTH 600 0
DWIDTH 14 0
BBX 16 8 -1 15
BITMAP
00554554
02002401
1F043441
3F003401
7F403801
7FFFFFF8
7FFFFFD0
2FE6FF40
ENDCHAR
STARTCHAR copyright
ENCODING 169
SWIDTH 967 0
DWIDTH 23 0
BBX 22 25 1 -4
BITMAP
000055554000
001555555400
005500001500
0211AFFE4140
1D4BFFFFF100
3D5ED400B910
BD5205547910
FD5E1000B910
FD5E11FFF910
FD5D12FAF910
FD5D12E2F910
FD5D1102F910
FD5D1102F910
FD5D1102F910
FD5E1155F910
FD5E05547910
FD5F40007910
FD5FFAAAF910
FE4BFFFFF140
FF51AFF64540
BFD500001500
7FF955556800
2FFFFFFFD000
0BFFFFFF4000
006FFFA40000
ENDCHAR
STARTCHAR ordfeminine
ENCODING 170
SWIDTH 620 0
DWIDTH 15 0
BBX 15 21 0 -3
BITMAP
00155540
00900040
02C15000
0B800410
0F445110
1F04A104
2E10F044
3E100044
7E155544
BE100044
BE11F444
BE01F404
BE02F404
BFFBFFE0
BFA6AA90
BE000004
1E055504
7E000004
BFFFFFE0
BFFFFF80
BFFFFE00
ENDCHAR
STARTCHAR guillemotleft
ENCODING 171
SWIDTH 912 0
DWIDTH 22 0
BBX 21 16 0 -1
BITMAP
000005000140
000150405440
001400440040
004050501440
070500C14040
1F0406C10140
3F047FC12D00
7F041BC10540
7F0400C10040
7F4050905440
7FD000B40040
7FFE40FF9040
2FFFFAFFFE40
0BFFFEFFFE00
006FE01BF400
000040000000
ENDCHAR
STARTCHAR logicalnot
ENCODING 172
SWIDTH 834 0
DWIDTH 20 0
BBX 18 14 1 -1
BITMAP
0155555550
0900000010
2D00000010
BD05555510
FE00000110
FFFFFFC110
FFFFFFC110
BFFFFFC110
00001FC110
00001FC010
00001FC010
00001FFF90
00001FFF00
00001FF800
ENDCHAR
STARTCHAR uni00AD
ENCODING 173
SWIDTH 520 0
DWIDTH 12 0
BBX 12 8 0 3
BITMAP
015555
060000
2E0550
BE0000
BE0001
BFFFFD
BFFFF4
7FFFD0
ENDCHAR
STARTCHAR registered
ENCODING 174
SWIDTH 660 0
DWIDTH 16 0
BBX 15 16 0 2
BITMAP
001AAA90
005BFF94
029956D4
1F5954D4
3F5974D4
3F5904D4
7F595554
7F596554
7F587454
7F5EBE94
7F5BFF94
3FE55554
3FFFABD0
1FFFFE00
06FFF400
00150000
ENDCHAR
STARTCHAR macron
ENCODING 175
SWIDTH 600 0
DWIDTH 14 0
BBX 14 8 0 15
BITMAP
00555550
06000010
1E000010
7E055410
BE000010
BFFFFFC0
BFFFFE00
7FFFF800
ENDCHAR
STARTCHAR degree
ENCODING 176
SWIDTH 583 0
DWIDTH 14 0
BBX 14 14 0 4
BITMAP
00155500
01455440
07100110
2F105110
7F12E110
7F12E110
BF11E110
BF100110
BF055410
7F900040
7FFEAE00
3FFFF400
0BFF9000
00140000
ENDCHAR
STARTCHAR plusminus
ENCODING 177
SWIDTH 834 0
DWIDTH 20 0
BBX 18 21 1 -3
BITMAP
0000554000
0002400000
000B400000
002F440000
003F440000
016A041550
0900040010
2D05555410
BD00040010
FE00040010
FFFF443FD0
FFFF443F40
BFFF443800
016A001550
0900000010
2D05555410
BD00000010
FE00000010
FFFFFFFF90
FFFFFFFF00
BFFFFFF800
ENDCHAR
STARTCHAR twosuperior
ENCODING 178
SWIDTH 585 0
DWIDTH 14 0
BBX 14 16 0 2
BITMAP
00555500
07455440
1F400110
3FEA8110
3FFE4110
3FE00410
16415040
07040100
1E106800
3E11A540
7E100010
BE155410
BE000010
BFFFFF80
BFFFFD00
7FFFF400
ENDCHAR
STARTCHAR threesuperior
ENCODING 179
SWIDTH 584 0
DWIDTH 14 0
BBX 14 16 0 2
BITMAP
01555500
0B055000
2F000440
7F000440
7FFF4440
7FE50500
17D15440
0BD00110
0FFFD110
0FAA5110
0F000110
1F055410
7F000140
7FFFFD00
7FFFF400
7FFE8000
ENDCHAR
STARTCHAR acute
ENCODING 180
SWIDTH 600 0
DWIDTH 14 0
BBX 14 9 0 15
BITMAP
00000040
00555410
02000010
0E055410
7E000010
BF15AB80
BFFFFE00
BFFFE400
6A500000
ENDCHAR
STARTCHAR mu
ENCODING 181
SWIDTH 813 0
DWIDTH 20 0
BBX 18 20 1 -5
BITMAP
0155405550
0900424010
2D004B0010
FD006F0410
FD007F0410
FD007F0410
FD007F0410
FD007F0410
FD007F0410
FD007F0410
FD04150410
FD04001010
FD00554010
FD00000040
FD00001A00
FD007FF400
FD00BFD000
FFFFF90000
FFF8000000
FFE0000000
ENDCHAR
STARTCHAR paragraph
ENCODING 182
SWIDTH 782 0
DWIDTH 19 0
BBX 18 21 0 -3
BITMAP
0005555550
0040000010
0240000010
0A01555510
2E04000110
7E10000110
BE10000110
BE10000110
BE10000110
BE04000110
BF01555510
BF80100110
BFF4100110
7FFD11C110
2FFD11C110
06FD11C110
00FD01C010
00FD01C010
00FFFFFF80
00FFFFFE00
00FF9FF800
ENDCHAR
STARTCHAR periodcentered
ENCODING 183
SWIDTH 464 0
DWIDTH 11 0
BBX 11 10 0 2
BITMAP
005554
060004
1F0004
7F0104
7F0104
7F0004
7F0004
7FFFE0
7FFF80
7FFE00
ENDCHAR
STARTCHAR cedilla
ENCODING 184
SWIDTH 600 0
DWIDTH 14 0
BBX 10 10 2 -6
BITMAP
001540
01C010
078110
0F4410
1F0410
2E0040
3D0040
7FFE00
BFF400
FFD000
ENDCHAR
STARTCHAR onesuperior
ENCODING 185
SWIDTH 557 0
DWIDTH 13 0
BBX 13 16 0 2
BITMAP
01555400
07454400
1F404400
3F504400
3FF44400
3FF44400
2BF44400
03F44400
03F44400
03A44540
07004040
1F055440
7F000040
7FFFFF40
7FFFFD00
7FFFE000
ENDCHAR
STARTCHAR ordmasculine
ENCODING 186
SWIDTH 625 0
DWIDTH 15 0
BBX 15 21 0 -3
BITMAP
00155540
00400010
06015404
1E040004
3E10F444
7E11F444
BE11F444
BE11F444
BE11F444
BE10F444
BE040004
BF015404
BFD00050
BFFEAB40
3FAAA954
1E000004
1E055504
7E000004
BFFFFFE0
BFFFFF80
7FFFFE00
ENDCHAR
STARTCHAR guillemotright
ENCODING 187
SWIDTH 912 0
DWIDTH 22 0
BBX 21 15 1 0
BITMAP
029001A40000
1D1A4B069000
7D002F001900
FD1507054100
FD0043001040
FF4043901040
FFF842FD1040
BF9043E41040
1D0143005000
3D1007040000
FD001F000000
FD06BF019000
FEBEBFAF4000
FFE4BFF80000
E90079400000
ENDCHAR
STARTCHAR onequarter
ENCODING 188
SWIDTH 1303 0
DWIDTH 31 0
BBX 31 21 0 -3
BITMAP
0155540155400000
0740040600400000
1F45441E00400000
3F50447D10400000
3FF444BD11000000
3FF444BC11554554
2BF444FC12406804
03F444F80244B844
03F445F84344B844
03A445B44744B844
070040704744B844
1F0554704B441444
7F0000604B840044
7FFFFFE10F815544
7FFFFFD10FD00044
7FFFFBD11FFFF444
00000BC01FFFF804
00000FC01BFFF804
00000FFF8002FFE0
00001FFE0002FF80
00001FF40002FE00
ENDCHAR
STARTCHAR onehalf
ENCODING 189
SWIDTH 1260 0
DWIDTH 30 0
BBX 30 21 0 -3
BITMAP
0155540155400000
0740040600400000
1F45441E00400000
3F50447D10400000
3FF444BD11000000
3FF444BC11555500
3FF444FC12800040
07F444F802855410
03F445F843954110
03A445B447FFD110
0700407047F90110
1F05547046801410
7F00006046450140
7FFFFFE10F006D00
7FFFFFD10F10A550
7FFFEBD11F100010
00000BC01F055510
00000FC02F000010
00000FFFFFFFFF80
00001FFE7FFFFE00
00001FF87FFFF800
ENDCHAR
STARTCHAR threequarters
ENCODING 190
SWIDTH 1313 0
DWIDTH 32 0
BBX 31 21 0 -3
BITMAP
0155550055400000
0B00000300400000
2F05504F00400000
7F00047E00400000
7FFF44BD10400000
7FE505BD11554554
17D1547C11805804
0BD0012C12847844
0FEA512812847844
0FFFD12843847844
0F00012443847844
0F05543447841444
7F0000B047840044
7FFFFFF04BC15544
7FFFFBE10BE00044
7FFF97E10FFFF844
00000BD01FFFF804
00000BD017FFF804
00000FFF8002FFE4
00000FFE0002FFD0
00000FF80001FE00
ENDCHAR
STARTCHAR questiondown
ENCODING 191
SWIDTH 756 0
DWIDTH 18 0
BBX 18 21 0 -3
BITMAP
0000155500
0000900100
0002D00100
000BD04100
000FD00100
000FE00100
000FFFE800
000A500100
0000000100
0140554100
0B05000100
2F04001500
7F041FF400
7F041A9550
7F04000010
BF01555410
7F80000010
7FE4000010
3FFFFFFF80
1FFFFFFE00
06FFFFF800
ENDCHAR
STARTCHAR Agrave
ENCODING 192
SWIDTH 830 0
DWIDTH 20 0
BBX 20 27 0 -3
BITMAP
0005500000
0018155540
00B4100040
02F4055040
03F8000040
03FFFA5440
03FEAAAA00
01FC000040
0028000040
00B4155040
01F0000010
02E0474410
03C00B8000
07810F8104
0B401FC004
1F40000004
2F04000041
3F05555541
3F04000041
7F04000041
7F042FE041
7F042FE041
7F002FE001
7F001BE000
7FFF8BFFF4
7FFE0BFFD0
3FF40BFF40
ENDCHAR
STARTCHAR Aacute
ENCODING 193
SWIDTH 830 0
DWIDTH 20 0
BBX 20 27 0 -3
BITMAP
0000016A40
0006A95040
0028015040
00B4140040
02F4000000
03F856BD00
03FE555500
03FC000040
02F8000040
00B4155000
01E0000010
02D0474410
03C00B8004
07810F8104
0B401FC004
1F40000004
2F04000041
3F05555541
3F04000041
7F04000041
7F042FE041
7F042FE041
7F002FE001
7F001BE000
7FFF8BFFF4
7FFE0BFFD0
3FF40BFF40
ENDCHAR
STARTCHAR Acircumflex
ENCODING 194
SWIDTH 830 0
DWIDTH 20 0
BBX 20 27 0 -3
BITMAP
0000054000
0001501500
0004054040
0024101040
00F4000040
02F86BA440
03FFFFFF40
03FD000100
02F8000040
00B4155040
01F0000010
02E0474410
03D00B8010
07C10F8104
0B801FC004
1F40000004
2F04000040
3F05555541
3F04000041
7F04000041
7F042FE041
7F042FE041
7F002FE001
7F001BE001
7FFF8BFFF4
7FFE0BFFD0
3FF40BFF40
ENDCHAR
STARTCHAR Atilde
ENCODING 195
SWIDTH 830 0
DWIDTH 20 0
BBX 20 26 0 -3
BITMAP
0001000000
0014000040
0074154040
01F4000040
03F9550140
03FFAAAA00
03FD000000
02F8000040
00B4155040
01F0000010
02E0474410
03D00B8000
07810F8104
0B801FC004
1F40000004
2F04000040
3F05555541
3F04000041
7F04000041
7F042FE041
7F042FE041
7F002FE001
7F001BE000
7FFF8BFFF4
7FFE0BFFD0
3FF40BFF40
ENDCHAR
STARTCHAR Adieresis
ENCODING 196
SWIDTH 830 0
DWIDTH 20 0
BBX 20 26 0 -3
BITMAP
0005545540
0060070010
01F0470410
07F0070010
07F0074010
07FFFFFF40
07FD000100
07F8000040
00B4155040
01F0000010
02E0474410
03D00B8010
07C10F8104
0B801FC004
1F40000004
2F04000040
3F05555541
3F04000041
7F04000041
7F042FE041
7F042FE041
7F002FE001
7F001BE001
7FFF8BFFF4
7FFE0BFFD0
3FF40BFF40
ENDCHAR
STARTCHAR Aring
ENCODING 197
SWIDTH 830 0
DWIDTH 20 0
BBX 20 27 0 -3
BITMAP
0000555400
0001000100
0018155040
0074400440
01F44B8440
03F44BC440
03F44B8440
03F8400440
03FC155040
02F4155040
01F0000010
02E0474410
03D00B8010
0BC10F8104
0F801FC004
1F40000004
2F04000040
3F05555541
3F04000041
7F04000041
7F042FE041
7F042FE041
7F002FE001
7F001BE001
7FFF8BFFF4
7FFE0BFFD0
3FF40BFF40
ENDCHAR
STARTCHAR AE
ENCODING 198
SWIDTH 1105 0
DWIDTH 27 0
BBX 26 21 0 -3
BITMAP
00015555555550
00180000000010
00740000000010
01F01555555410
02E04000400010
03D047D047FFC0
07C10BD047FE00
0B810FD0400100
0F411FD0400100
1F440540154100
2F040000400100
3F05555542A900
7F04000047F800
7F04000042A550
7F042FD0400010
7F002FD0555410
7F002FD0000010
7F001FD0000010
7FFF8FFFFFFF90
7FFE0FFFFFFF00
3FF40BFFFFF800
ENDCHAR
STARTCHAR Ccedilla
ENCODING 199
SWIDTH 728 0
DWIDTH 17 0
BBX 17 24 0 -6
BITMAP
0005555540
0010000040
0080555040
0741000040
1F40000040
2F041FFF40
3F041FF800
3F041FE000
7F04100000
7F04100000
7F04100000
7F04100000
7F04055540
7F40000040
7F41000040
3F80555040
3FD0000040
2FF9410000
1FFFC11E00
07FF802800
00AF401000
002FFF4000
003FFD0000
002FE00000
ENDCHAR
STARTCHAR Egrave
ENCODING 200
SWIDTH 754 0
DWIDTH 18 0
BBX 17 27 1 -3
BITMAP
006A500000
02815AA400
0B81500400
2F80010400
2F80000400
2FFFA54000
2E55555540
1D00000040
2D00000040
BD05555040
FD04000040
FD047FFE00
FD047FF800
FD04000400
FD04000400
FD05550400
FD04000400
FD04155000
FD047FD000
FD042A5500
FD04000040
FD05555040
FD00000040
FE00000040
FFFFFFFE00
FFFFFFF800
BFFFFFD000
ENDCHAR
STARTCHAR Eacute
ENCODING 201
SWIDTH 754 0
DWIDTH 18 0
BBX 17 27 1 -3
BITMAP
000005A900
002AA54100
0090054100
03D0400100
0FD0000000
0FD15AE000
0E55555540
0D00000040
7D00000040
FD05555040
FD04000040
FD047FFE00
FD047FF800
FD04000400
FD04000400
FD05550400
FD04000400
FD04155000
FD047FD000
FD042A5500
FD04000040
FD05555040
FD00000040
FE00000040
FFFFFFFE00
FFFFFFF800
BFFFFFD000
ENDCHAR
STARTCHAR Ecircumflex
ENCODING 202
SWIDTH 754 0
DWIDTH 18 0
BBX 17 27 1 -3
BITMAP
0000550000
0001005000
0040550400
0281000000
0B80650000
1FDBFFE400
2E55555540
2D00000040
2D00000040
BD05555040
FD04000040
FD047FFE00
FD047FF800
FD04000400
FD04000400
FD05550400
FD04000400
FD04155000
FD047FD000
FD042A5500
FD04000040
FD05555040
FD00000040
FE00000040
FFFFFFFE00
FFFFFFF800
BFFFFFD000
ENDCHAR
STARTCHAR Edieresis
ENCODING 203
SWIDTH 754 0
DWIDTH 18 0
BBX 17 26 1 -3
BITMAP
0055455500
0240280100
0B44281100
2F40280100
3F80280000
3FFFFFFF40
3E00000040
2D00000040
7D05555040
FD04000040
FD047FFE00
FD047FF800
FD04000400
FD04000400
FD05550400
FD04000400
FD04155000
FD047FD000
FD042A5500
FD04000040
FD05555040
FD00000040
FE00000040
FFFFFFFE00
FFFFFFF800
BFFFFFD000
ENDCHAR
STARTCHAR Igrave
ENCODING 204
SWIDTH 705 0
DWIDTH 17 0
BBX 17 27 0 -3
BITMAP
006A540000
01C05AA800
07C1500100
1FC0014100
1FD0000100
1FFFA94000
1F55555500
0B00000040
0F00000040
3F05555040
7F00000040
7F94001500
7FFD007800
7FFD006000
15FD004000
00FD004000
00FD004000
00FD004000
00FD004000
00A8001500
0200000040
1F05555040
3F00000040
7F00000040
7FFFFFFD00
7FFFFFF400
3FFFFFD000
ENDCHAR
STARTCHAR Iacute
ENCODING 205
SWIDTH 705 0
DWIDTH 17 0
BBX 17 27 0 -3
BITMAP
000015A800
002AA50100
01C0054100
07C1400100
1FC0000000
1FD16AE000
1F55555500
1F00000040
1F00000040
2F05555040
7F00000040
7F94001500
7FFD007800
7FFD006000
15FD004000
00FD004000
00FD004000
00FD004000
00FD004000
00A8001500
0200000040
1F05555040
3F00000040
7F00000040
7FFFFFFD00
7FFFFFF400
3FFFFFD000
ENDCHAR
STARTCHAR Icircumflex
ENCODING 206
SWIDTH 705 0
DWIDTH 17 0
BBX 17 27 0 -3
BITMAP
0000150000
0000005400
0040550100
01C0000100
0BC0550100
1FDBFFE400
1F55555500
1F00000040
1F00000040
2F05555040
7F00000040
7F94001500
7FFD007800
7FFD006000
15FD004000
00FD004000
00FD004000
00FD004000
00FD004000
00A8001500
0200000040
1F05555040
3F00000040
7F00000040
7FFFFFFD00
7FFFFFF400
3FFFFFD000
ENDCHAR
STARTCHAR Idieresis
ENCODING 207
SWIDTH 705 0
DWIDTH 17 0
BBX 17 26 0 -3
BITMAP
0055455500
0240280100
0B44281100
2F40280100
3F80280000
3FFFFFFF00
3F40000040
2F00000040
2F05555040
7F00000040
7F94001500
7FFD007800
7FFD006000
15FD004000
00FD004000
00FD004000
00FD004000
00FD004000
00A8001500
0200000040
1F05555040
3F00000040
7F00000040
7FFFFFFD00
7FFFFFF400
3FFFFFD000
ENDCHAR
STARTCHAR Eth
ENCODING 208
SWIDTH 856 0
DWIDTH 21 0
BBX 20 21 0 -3
BITMAP
0055555540
0280000004
0B80000005
2F81555401
2F81000041
2F810FE041
2F810FF041
2D0101F041
2D0100F041
7D0550F041
FD0100F041
FD0101F041
FF810FF041
FF810AA041
7F81000041
2F81555501
2F80000004
2F80000050
2FFFFFFF80
2FFFFFFD00
1FFFFFA000
ENDCHAR
STARTCHAR Ntilde
ENCODING 209
SWIDTH 853 0
DWIDTH 20 0
BBX 19 26 1 -3
BITMAP
0004000000
0020000100
01E0554100
07E0000100
0BE5550000
0A55FFD554
09007FC004
2D002FC004
BD040BC104
FD0503C104
FD04418104
FD04104104
FD04040104
FD04010104
FD04004104
FD04604104
FD04781104
FD047D0504
FD047F4104
FD047F8104
FD047FC104
FD007FC004
FE005FC004
FFFE5FFFD0
FFFD1FFF40
BFE01FFD00
ENDCHAR
STARTCHAR Ograve
ENCODING 210
SWIDTH 837 0
DWIDTH 20 0
BBX 20 27 0 -3
BITMAP
0006540000
002815AA40
00B8140040
02F8005040
02F8000040
02FFFA5400
02FE400540
01A0000010
0080155404
0741000100
1F41000041
2F041FD041
3F041FE041
7F041FE041
7F041BE041
7F041BE041
7F041BE041
7F041BE041
7F041BE041
7F410A9041
7F41000100
3F80155404
3FD0000014
2FF9000190
1FFFFFFE00
07FFFFF800
006FFE9000
ENDCHAR
STARTCHAR Oacute
ENCODING 211
SWIDTH 837 0
DWIDTH 20 0
BBX 20 27 0 -3
BITMAP
0000005640
0006A95040
0018005040
00B8150040
02F8000000
02F856AD00
02FE400540
02E0000010
0180155404
0741000100
1F41000041
2F041FD041
3F041FE041
7F041FE041
7F041BE041
7F041BE041
7F041BE041
7F041BE041
7F041BE041
7F410A9041
7F41000100
3F80155404
3FD0000014
2FF9000190
1FFFFFFE00
07FFFFF800
006FFE9000
ENDCHAR
STARTCHAR Ocircumflex
ENCODING 212
SWIDTH 837 0
DWIDTH 20 0
BBX 20 27 0 -3
BITMAP
0000054000
0000400500
0004054040
0078000040
01F8064040
02FABFFE40
02FE400540
02E0000010
0280155404
0741000100
1F41000041
2F041FD041
3F041FE041
7F041FE041
7F041BE041
7F041BE041
7F041BE041
7F041BE041
7F041BE041
7F410A9041
7F41000100
3F80155404
3FD0000014
2FF9000190
1FFFFFFE00
07FFFFF800
006FFE9000
ENDCHAR
STARTCHAR Otilde
ENCODING 213
SWIDTH 837 0
DWIDTH 20 0
BBX 20 27 0 -3
BITMAP
0001554140
0004001440
0028000040
00F8155040
02F8000040
02F9650140
02FFA55A00
02E4000010
01C0155404
0741000100
1F41000041
2F041FD041
3F041FE041
7F041FE041
7F041BE041
7F041BE041
7F041BE041
7F041BE041
7F041BE041
7F410A9041
7F41000101
3F80155404
3FD0000014
2FF9000190
1FFFFFFF00
07FFFFF800
006FFE9000
ENDCHAR
STARTCHAR Odieresis
ENCODING 214
SWIDTH 837 0
DWIDTH 20 0
BBX 20 27 0 -3
BITMAP
0005545540
0020024010
01F0034010
03F0434410
07F0034010
07F0074000
07FFEAAF40
07F4000050
01C0155404
0741000104
1F41000041
2F041FD041
3F041FE041
7F041FE041
7F041BE041
7F041BE041
7F041BE041
7F041BE041
7F041BE041
7F410A9041
7F41000101
3F80155404
3FD0000014
2FF9000190
1FFFFFFF00
07FFFFF800
006FFE9000
ENDCHAR
STARTCHAR multiply
ENCODING 215
SWIDTH 834 0
DWIDTH 20 0
BBX 18 17 1 -1
BITMAP
0005000500
0050405140
0140114050
0700090010
1F81001040
7FE0404100
7FF8150400
1FFD040400
07F4110100
01D0404040
0241041010
0B002E0010
2F80BF8040
7FE1FFE100
7FF87FF800
1FD01FE000
0640074000
ENDCHAR
STARTCHAR Oslash
ENCODING 216
SWIDTH 837 0
DWIDTH 20 0
BBX 20 25 0 -5
BITMAP
0000000550
0000005000
0001554010
0010000410
0080555404
0741000000
1F44010041
2F042E0041
3F043D0041
3F04380041
7F04341041
7F04202041
7F04107041
7F0400B041
7F0400F041
7F4402E041
7F40000101
3F80555404
3FE0400014
2FE0000590
1FD01FFE00
0BEABFF800
0BFFFE9000
0FFD000000
0550000000
ENDCHAR
STARTCHAR Ugrave
ENCODING 217
SWIDTH 846 0
DWIDTH 20 0
BBX 19 27 1 -3
BITMAP
002A940000
00A056A900
03D0540100
0BD0014100
0FE0000100
0FFFE95000
0A55BFD554
1D007F8004
7D004F8004
FD046F8104
FD046F8104
FD046F8104
FD046F8104
FD046F8104
FD046F8104
FD046F8104
FD046F8104
FD046F8104
FD042F8104
FD04000104
FD05000404
FE00555010
FF80000050
BFE4000640
3FFFFFF800
1FFFFFE000
01BFFA4000
ENDCHAR
STARTCHAR Uacute
ENCODING 218
SWIDTH 846 0
DWIDTH 20 0
BBX 19 27 1 -3
BITMAP
0000056A00
000AA94040
0070015040
01F0500040
07F0000000
07F15AB800
0655BFD554
1D00678004
7D004B8004
FD046F8104
FD046F8104
FD046F8104
FD046F8104
FD046F8104
FD046F8104
FD046F8104
FD046F8104
FD046F8104
FD042F8104
FD04000104
FD05000404
FE00555010
FF80000050
BFE4000640
3FFFFFF800
1FFFFFE000
01BFFA4000
ENDCHAR
STARTCHAR Ucircumflex
ENCODING 219
SWIDTH 846 0
DWIDTH 20 0
BBX 19 27 1 -3
BITMAP
0000150000
0000000000
0010154100
01E0000100
07E16F9100
0BFFFFFE00
0A55BFD554
1D006F8004
7D004B8004
FD046F8104
FD046F8104
FD046F8104
FD046F8104
FD046F8104
FD046F8104
FD046F8104
FD046F8104
FD046F8104
FD042F4104
FD04000104
FD05000404
FE00555010
FF80000050
BFE4000640
3FFFFFF800
1FFFFFE000
01BFFA4000
ENDCHAR
STARTCHAR Udieresis
ENCODING 220
SWIDTH 846 0
DWIDTH 20 0
BBX 19 27 1 -3
BITMAP
0015515500
0080090040
07C00D0040
0FC10D1040
1FC00D0040
1FD01D0000
1FFFFFFFF4
1D007FC004
7D006F8004
FD045F8104
FD046F8104
FD046F8104
FD046F8104
FD046F8104
FD046F8104
FD046F8104
FD046F8104
FD046F8104
FD042F8104
FD04050104
FD05000404
FE00555010
FF40000000
BFE4000640
3FFFFFF800
1FFFFFE000
01BFFA4000
ENDCHAR
STARTCHAR Yacute
ENCODING 221
SWIDTH 805 0
DWIDTH 19 0
BBX 19 27 0 -3
BITMAP
0000016A40
0006A95040
0028015040
00B4100040
02F4000000
03F856BD00
03557FE554
0B002AD004
2F0017D004
7F041FD104
BF041FD104
BF041FD104
BF041FC104
BF010B4104
7F41010404
7FD0401010
7FE0101040
2FF8054000
0FFD010100
07FF010400
02FF410400
00FF410400
007F400400
003F400400
003FFFD000
003FFF4000
002FFD0000
ENDCHAR
STARTCHAR Thorn
ENCODING 222
SWIDTH 792 0
DWIDTH 19 0
BBX 18 21 1 -3
BITMAP
0155400000
0900000000
7D00000000
FD04155500
FD04000040
FD05554040
FD04000410
FD04000410
FD047F0410
FD047F0410
FD047F0410
FD04290410
FD04000410
FD05554040
FD04000040
FD04000500
FD003FF400
FE007FD000
FFFFE90000
FFFD000000
BFE4000000
ENDCHAR
STARTCHAR germandbls
ENCODING 223
SWIDTH 859 0
DWIDTH 21 0
BBX 20 21 1 -3
BITMAP
0155555500
0900000040
7D00000040
FD05554040
FD04001040
FD04141040
FD043C1040
FD043C1040
FD04380010
FD04345504
FD04380041
FD043FE041
FD043FE041
FD04394041
FD04340041
FD00341501
FD00340004
FE00740050
FFFFFFFF80
FFFFFFFD00
BFE2FFE400
ENDCHAR
STARTCHAR agrave
ENCODING 224
SWIDTH 830 0
DWIDTH 20 0
BBX 20 27 0 -3
BITMAP
0005500000
0018155540
00B4100040
02F4055040
03F8000040
03FFFA5440
03FEAAAA00
01FC000040
0028000040
00B4155040
01F0000010
02E0474410
03C00B8000
07810F8104
0B401FC004
1F40000004
2F04000041
3F05555541
3F04000041
7F04000041
7F042FE041
7F042FE041
7F002FE001
7F001BE000
7FFF8BFFF4
7FFE0BFFD0
3FF40BFF40
ENDCHAR
STARTCHAR aacute
ENCODING 225
SWIDTH 830 0
DWIDTH 20 0
BBX 20 27 0 -3
BITMAP
0000016A40
0006A95040
0028015040
00B4140040
02F4000000
03F856BD00
03FE555500
03FC000040
02F8000040
00B4155000
01E0000010
02D0474410
03C00B8004
07810F8104
0B401FC004
1F40000004
2F04000041
3F05555541
3F04000041
7F04000041
7F042FE041
7F042FE041
7F002FE001
7F001BE000
7FFF8BFFF4
7FFE0BFFD0
3FF40BFF40
ENDCHAR
STARTCHAR acircumflex
ENCODING 226
SWIDTH 830 0
DWIDTH 20 0
BBX 20 27 0 -3
BITMAP
0000054000
0001501500
0004054040
0024101040
00F4000040
02F86BA440
03FFFFFF40
03FD000100
02F8000040
00B4155040
01F0000010
02E0474410
03D00B8010
07C10F8104
0B801FC004
1F40000004
2F04000040
3F05555541
3F04000041
7F04000041
7F042FE041
7F042FE041
7F002FE001
7F001BE001
7FFF8BFFF4
7FFE0BFFD0
3FF40BFF40
ENDCHAR
STARTCHAR atilde
ENCODING 227
SWIDTH 830 0
DWIDTH 20 0
BBX 20 26 0 -3
BITMAP
0001000000
0014000040
0074154040
01F4000040
03F9550140
03FFAAAA00
03FD000000
02F8000040
00B4155040
01F0000010
02E0474410
03D00B8000
07810F8104
0B801FC004
1F40000004
2F04000040
3F05555541
3F04000041
7F04000041
7F042FE041
7F042FE041
7F002FE001
7F001BE000
7FFF8BFFF4
7FFE0BFFD0
3FF40BFF40
ENDCHAR
STARTCHAR adieresis
ENCODING 228
SWIDTH 830 0
DWIDTH 20 0
BBX 20 26 0 -3
BITMAP
0005545540
0060070010
01F0470410
07F0070010
07F0074010
07FFFFFF40
07FD000100
07F8000040
00B4155040
01F0000010
02E0474410
03D00B8010
07C10F8104
0B801FC004
1F40000004
2F04000040
3F05555541
3F04000041
7F04000041
7F042FE041
7F042FE041
7F002FE001
7F001BE001
7FFF8BFFF4
7FFE0BFFD0
3FF40BFF40
ENDCHAR
STARTCHAR aring
ENCODING 229
SWIDTH 830 0
DWIDTH 20 0
BBX 20 27 0 -3
BITMAP
0000555400
0001000100
0018155040
0074400440
01F44B8440
03F44BC440
03F44B8440
03F8400440
03FC155040
02F4155040
01F0000010
02E0474410
03D00B8010
0BC10F8104
0F801FC004
1F40000004
2F04000040
3F05555541
3F04000041
7F04000041
7F042FE041
7F042FE041
7F002FE001
7F001BE001
7FFF8BFFF4
7FFE0BFFD0
3FF40BFF40
ENDCHAR
STARTCHAR ae
ENCODING 230
SWIDTH 1105 0
DWIDTH 27 0
BBX 26 21 0 -3
BITMAP
00015555555550
00180000000010
00740000000010
01F01555555410
02E04000400010
03D047D047FFC0
07C10BD047FE00
0B810FD0400100
0F411FD0400100
1F440540154100
2F040000400100
3F05555542A900
7F04000047F800
7F04000042A550
7F042FD0400010
7F002FD0555410
7F002FD0000010
7F001FD0000010
7FFF8FFFFFFF90
7FFE0FFFFFFF00
3FF40BFFFFF800
ENDCHAR
STARTCHAR ccedilla
ENCODING 231
SWIDTH 728 0
DWIDTH 17 0
BBX 17 24 0 -6
BITMAP
0005555540
0010000040
0080555040
0741000040
1F40000040
2F041FFF40
3F041FF800
3F041FE000
7F04100000
7F04100000
7F04100000
7F04100000
7F04055540
7F40000040
7F41000040
3F80555040
3FD0000040
2FF9410000
1FFFC11E00
07FF802800
00AF401000
002FFF4000
003FFD0000
002FE00000
ENDCHAR
STARTCHAR egrave
ENCODING 232
SWIDTH 754 0
DWIDTH 18 0
BBX 17 27 1 -3
BITMAP
006A500000
02815AA400
0B81500400
2F80010400
2F80000400
2FFFA54000
2E55555540
1D00000040
2D00000040
BD05555040
FD04000040
FD047FFE00
FD047FF800
FD04000400
FD04000400
FD05550400
FD04000400
FD04155000
FD047FD000
FD042A5500
FD04000040
FD05555040
FD00000040
FE00000040
FFFFFFFE00
FFFFFFF800
BFFFFFD000
ENDCHAR
STARTCHAR eacute
ENCODING 233
SWIDTH 754 0
DWIDTH 18 0
BBX 17 27 1 -3
BITMAP
000005A900
002AA54100
0090054100
03D0400100
0FD0000000
0FD15AE000
0E55555540
0D00000040
7D00000040
FD05555040
FD04000040
FD047FFE00
FD047FF800
FD04000400
FD04000400
FD05550400
FD04000400
FD04155000
FD047FD000
FD042A5500
FD04000040
FD05555040
FD00000040
FE00000040
FFFFFFFE00
FFFFFFF800
BFFFFFD000
ENDCHAR
STARTCHAR ecircumflex
ENCODING 234
SWIDTH 754 0
DWIDTH 18 0
BBX 17 27 1 -3
BITMAP
0000550000
0001005000
0040550400
0281000000
0B80650000
1FDBFFE400
2E55555540
2D00000040
2D00000040
BD05555040
FD04000040
FD047FFE00
FD047FF800
FD04000400
FD04000400
FD05550400
FD04000400
FD04155000
FD047FD000
FD042A5500
FD04000040
FD05555040
FD00000040
FE00000040
FFFFFFFE00
FFFFFFF800
BFFFFFD000
ENDCHAR
STARTCHAR edieresis
ENCODING 235
SWIDTH 754 0
DWIDTH 18 0
BBX 17 26 1 -3
BITMAP
0055455500
0240280100
0B44281100
2F40280100
3F80280000
3FFFFFFF40
3E00000040
2D00000040
7D05555040
FD04000040
FD047FFE00
FD047FF800
FD04000400
FD04000400
FD05550400
FD04000400
FD04155000
FD047FD000
FD042A5500
FD04000040
FD05555040
FD00000040
FE00000040
FFFFFFFE00
FFFFFFF800
BFFFFFD000
ENDCHAR
STARTCHAR igrave
ENCODING 236
SWIDTH 705 0
DWIDTH 17 0
BBX 17 27 0 -3
BITMAP
006A540000
01C05AA800
07C1500100
1FC0014100
1FD0000100
1FFFA94000
1F55555500
0B00000040
0F00000040
3F05555040
7F00000040
7F94001500
7FFD007800
7FFD006000
15FD004000
00FD004000
00FD004000
00FD004000
00FD004000
00A8001500
0200000040
1F05555040
3F00000040
7F00000040
7FFFFFFD00
7FFFFFF400
3FFFFFD000
ENDCHAR
STARTCHAR iacute
ENCODING 237
SWIDTH 705 0
DWIDTH 17 0
BBX 17 27 0 -3
BITMAP
000015A800
002AA50100
01C0054100
07C1400100
1FC0000000
1FD16AE000
1F55555500
1F00000040
1F00000040
2F05555040
7F00000040
7F94001500
7FFD007800
7FFD006000
15FD004000
00FD004000
00FD004000
00FD004000
00FD004000
00A8001500
0200000040
1F05555040
3F00000040
7F00000040
7FFFFFFD00
7FFFFFF400
3FFFFFD000
ENDCHAR
STARTCHAR icircumflex
ENCODING 238
SWIDTH 705 0
DWIDTH 17 0
BBX 17 27 0 -3
BITMAP
0000150000
0000005400
0040550100
01C0000100
0BC0550100
1FDBFFE400
1F55555500
1F00000040
1F00000040
2F05555040
7F00000040
7F94001500
7FFD007800
7FFD006000
15FD004000
00FD004000
00FD004000
00FD004000
00FD004000
00A8001500
0200000040
1F05555040
3F00000040
7F00000040
7FFFFFFD00
7FFFFFF400
3FFFFFD000
ENDCHAR
STARTCHAR idieresis
ENCODING 239
SWIDTH 705 0
DWIDTH 17 0
BBX 17 26 0 -3
BITMAP
0055455500
0240280100
0B44281100
2F40280100
3F80280000
3FFFFFFF00
3F40000040
2F00000040
2F05555040
7F00000040
7F94001500
7FFD007800
7FFD006000
15FD004000
00FD004000
00FD004000
00FD004000
00FD004000
00A8001500
0200000040
1F05555040
3F00000040
7F00000040
7FFFFFFD00
7FFFFFF400
3FFFFFD000
ENDCHAR
STARTCHAR eth
ENCODING 240
SWIDTH 856 0
DWIDTH 21 0
BBX 20 21 0 -3
BITMAP
0055555540
0280000004
0B80000005
2F81555401
2F81000041
2F810FE041
2F810FF041
2D0101F041
2D0100F041
7D0550F041
FD0100F041
FD0101F041
FF810FF041
FF810AA041
7F81000041
2F81555501
2F80000004
2F80000050
2FFFFFFF80
2FFFFFFD00
1FFFFFA000
ENDCHAR
STARTCHAR ntilde
ENCODING 241
SWIDTH 853 0
DWIDTH 20 0
BBX 19 26 1 -3
BITMAP
0004000000
0020000100
01E0554100
07E0000100
0BE5550000
0A55FFD554
09007FC004
2D002FC004
BD040BC104
FD0503C104
FD04418104
FD04104104
FD04040104
FD04010104
FD04004104
FD04604104
FD04781104
FD047D0504
FD047F4104
FD047F8104
FD047FC104
FD007FC004
FE005FC004
FFFE5FFFD0
FFFD1FFF40
BFE01FFD00
ENDCHAR
STARTCHAR ograve
ENCODING 242
SWIDTH 837 0
DWIDTH 20 0
BBX 20 27 0 -3
BITMAP
0006540000
002815AA40
00B8140040
02F8005040
02F8000040
02FFFA5400
02FE400540
01A0000010
0080155404
0741000100
1F41000041
2F041FD041
3F041FE041
7F041FE041
7F041BE041
7F041BE041
7F041BE041
7F041BE041
7F041BE041
7F410A9041
7F41000100
3F80155404
3FD0000014
2FF9000190
1FFFFFFE00
07FFFFF800
006FFE9000
ENDCHAR
STARTCHAR oacute
ENCODING 243
SWIDTH 837 0
DWIDTH 20 0
BBX 20 27 0 -3
BITMAP
0000005640
0006A95040
0018005040
00B8150040
02F8000000
02F856AD00
02FE400540
02E0000010
0180155404
0741000100
1F41000041
2F041FD041
3F041FE041
7F041FE041
7F041BE041
7F041BE041
7F041BE041
7F041BE041
7F041BE041
7F410A9041
7F41000100
3F80155404
3FD0000014
2FF9000190
1FFFFFFE00
07FFFFF800
006FFE9000
ENDCHAR
STARTCHAR ocircumflex
ENCODING 244
SWIDTH 837 0
DWIDTH 20 0
BBX 20 27 0 -3
BITMAP
0000054000
0000400500
0004054040
0078000040
01F8064040
02FABFFE40
02FE400540
02E0000010
0280155404
0741000100
1F41000041
2F041FD041
3F041FE041
7F041FE041
7F041BE041
7F041BE041
7F041BE041
7F041BE041
7F041BE041
7F410A9041
7F41000100
3F80155404
3FD0000014
2FF9000190
1FFFFFFE00
07FFFFF800
006FFE9000
ENDCHAR
STARTCHAR otilde
ENCODING 245
SWIDTH 837 0
DWIDTH 20 0
BBX 20 27 0 -3
BITMAP
0001554140
0004001440
0028000040
00F8155040
02F8000040
02F9650140
02FFA55A00
02E4000010
01C0155404
0741000100
1F41000041
2F041FD041
3F041FE041
7F041FE041
7F041BE041
7F041BE041
7F041BE041
7F041BE041
7F041BE041
7F410A9041
7F41000101
3F80155404
3FD0000014
2FF9000190
1FFFFFFF00
07FFFFF800
006FFE9000
ENDCHAR
STARTCHAR odieresis
ENCODING 246
SWIDTH 837 0
DWIDTH 20 0
BBX 20 27 0 -3
BITMAP
0005545540
0020024010
01F0034010
03F0434410
07F0034010
07F0074000
07FFEAAF40
07F4000050
01C0155404
0741000104
1F41000041
2F041FD041
3F041FE041
7F041FE041
7F041BE041
7F041BE041
7F041BE041
7F041BE041
7F041BE041
7F410A9041
7F41000101
3F80155404
3FD0000014
2FF9000190
1FFFFFFF00
07FFFFF800
006FFE9000
ENDCHAR
STARTCHAR divide
ENCODING 247
SWIDTH 834 0
DWIDTH 20 0
BBX 18 19 1 -2
BITMAP
0000554000
0006001000
001E001000
007E041000
00BE001000
00BF555000
016AAA5550
0900000010
2D05555410
BE00000010
FFFFFFFFD0
FFFF002F40
BFFE002D00
007E041000
00BE001000
00BE001000
00BFFF8000
00BFFE0000
007FF40000
ENDCHAR
STARTCHAR oslash
ENCODING 248
SWIDTH 837 0
DWIDTH 20 0
BBX 20 25 0 -5
BITMAP
0000000550
0000005000
0001554010
0010000410
0080555404
0741000000
1F44010041
2F042E0041
3F043D0041
3F04380041
7F04341041
7F04202041
7F04107041
7F0400B041
7F0400F041
7F4402E041
7F40000101
3F80555404
3FE0400014
2FE0000590
1FD01FFE00
0BEABFF800
0BFFFE9000
0FFD000000
0550000000
ENDCHAR
STARTCHAR ugrave
ENCODING 249
SWIDTH 846 0
DWIDTH 20 0
BBX 19 27 1 -3
BITMAP
002A940000
00A056A900
03D0540100
0BD0014100
0FE0000100
0FFFE95000
0A55BFD554
1D007F8004
7D004F8004
FD046F8104
FD046F8104
FD046F8104
FD046F8104
FD046F8104
FD046F8104
FD046F8104
FD046F8104
FD046F8104
FD042F8104
FD04000104
FD05000404
FE00555010
FF80000050
BFE4000640
3FFFFFF800
1FFFFFE000
01BFFA4000
ENDCHAR
STARTCHAR uacute
ENCODING 250
SWIDTH 846 0
DWIDTH 20 0
BBX 19 27 1 -3
BITMAP
0000056A00
000AA94040
0070015040
01F0500040
07F0000000
07F15AB800
0655BFD554
1D00678004
7D004B8004
FD046F8104
FD046F8104
FD046F8104
FD046F8104
FD046F8104
FD046F8104
FD046F8104
FD046F8104
FD046F8104
FD042F8104
FD04000104
FD05000404
FE00555010
FF80000050
BFE4000640
3FFFFFF800
1FFFFFE000
01BFFA4000
ENDCHAR
STARTCHAR ucircumflex
ENCODING 251
SWIDTH 846 0
DWIDTH 20 0
BBX 19 27 1 -3
BITMAP
0000150000
0000000000
0010154100
01E0000100
07E16F9100
0BFFFFFE00
0A55BFD554
1D006F8004
7D004B8004
FD046F8104
FD046F8104
FD046F8104
FD046F8104
FD046F8104
FD046F8104
FD046F8104
FD046F8104
FD046F8104
FD042F4104
FD04000104
FD05000404
FE00555010
FF80000050
BFE4000640
3FFFFFF800
1FFFFFE000
01BFFA4000
ENDCHAR
STARTCHAR udieresis
ENCODING 252
SWIDTH 846 0
DWIDTH 20 0
BBX 19 27 1 -3
BITMAP
0015515500
0080090040
07C00D0040
0FC10D1040
1FC00D0040
1FD01D0000
1FFFFFFFF4
1D007FC004
7D006F8004
FD045F8104
FD046F8104
FD046F8104
FD046F8104
FD046F8104
FD046F8104
FD046F8104
FD046F8104
FD046F8104
FD042F8104
FD04050104
FD05000404
FE00555010
FF40000000
BFE4000640
3FFFFFF800
1FFFFFE000
01BFFA4000
ENDCHAR
STARTCHAR yacute
ENCODING 253
SWIDTH 805 0
DWIDTH 19 0
BBX 19 27 0 -3
BITMAP
0000016A40
0006A95040
0028015040
00B4100040
02F4000000
03F856BD00
03557FE554
0B002AD004
2F0017D004
7F041FD104
BF041FD104
BF041FD104
BF041FC104
BF010B4104
7F41010404
7FD0401010
7FE0101040
2FF8054000
0FFD010100
07FF010400
02FF410400
00FF410400
007F400400
003F400400
003FFFD000
003FFF4000
002FFD0000
ENDCHAR
STARTCHAR thorn
ENCODING 254
SWIDTH 792 0
DWIDTH 19 0
BBX 18 21 1 -3
BITMAP
0155400000
0900000000
7D00000000
FD04155500
FD04000040
FD05554040
FD04000410
FD04000410
FD047F0410
FD047F0410
FD047F0410
FD04290410
FD04000410
FD05554040
FD04000040
FD04000500
FD003FF400
FE007FD000
FFFFE90000
FFFD000000
BFE4000000
ENDCHAR
STARTCHAR ydieresis
ENCODING 255
SWIDTH 805 0
DWIDTH 19 0
BBX 19 26 0 -3
BITMAP
0015555540
0060060040
02E0460440
0BE0060040
0BE00B0000
0BFFFFFFF8
0B003FD004
0F002BD004
3F041BD104
7F041FD104
BF041FD104
BF041FC104
BF000F4104
BF41060400
7FC0400000
7FE0101000
3FF4054000
1FFD010100
07FF010400
02FF410400
00FF410400
007F400400
003F400400
003FFFD000
003FFF4000
002FFD0000
ENDCHAR
STARTCHAR Amacron
ENCODING 256
SWIDTH 830 0
DWIDTH 20 0
BBX 20 26 0 -3
BITMAP
0005555540
0014000040
0074155040
01F4000040
03F8000040
03FFFFFE00
03FD000100
02F8000040
00B4155040
01F0000010
02E0474410
03D00B8010
07C10F8104
0B801FC004
1F40000004
2F04000040
3F05555541
3F04000041
7F04000041
7F042FE041
7F042FE041
7F002FE001
7F001BE001
7FFF8BFFF4
7FFE0BFFD0
3FF40BFF40
ENDCHAR
STARTCHAR amacron
ENCODING 257
SWIDTH 830 0
DWIDTH 20 0
BBX 20 26 0 -3
BITMAP
0005555540
0014000040
0074155040
01F4000040
03F8000040
03FFFFFE00
03FD000100
02F8000040
00B4155040
01F0000010
02E0474410
03D00B8010
07C10F8104
0B801FC004
1F40000004
2F04000040
3F05555541
3F04000041
7F04000041
7F042FE041
7F042FE041
7F002FE001
7F001BE001
7FFF8BFFF4
7FFE0BFFD0
3FF40BFF40
ENDCHAR
STARTCHAR Abreve
ENCODING 258
SWIDTH 830 0
DWIDTH 20 0
BBX 20 27 0 -3
BITMAP
0005501540
002405C040
00B4068040
02F4400440
03F8155000
03FF400400
03FFEAAA00
01FD000140
0078000040
0074155040
01F0000010
02E0474410
03D00B8014
07C10F8104
0B801FC004
1F40000004
2F04000041
3F05555541
3F04000041
7F04000041
7F042FE041
7F042FE041
7F002FE001
7F001BE000
7FFF8BFFF4
7FFE0BFFD0
3FF40BFF40
ENDCHAR
STARTCHAR abreve
ENCODING 259
SWIDTH 830 0
DWIDTH 20 0
BBX 20 27 0 -3
BITMAP
0005501540
002405C040
00B4068040
02F4400440
03F8155000
03FF400400
03FFEAAA00
01FD000140
0078000040
0074155040
01F0000010
02E0474410
03D00B8014
07C10F8104
0B801FC004
1F40000004
2F04000041
3F05555541
3F04000041
7F04000041
7F042FE041
7F042FE041
7F002FE001
7F001BE000
7FFF8BFFF4
7FFE0BFFD0
3FF40BFF40
ENDCHAR
STARTCHAR Aogonek
ENCODING 260
SWIDTH 830 0
DWIDTH 20 0
BBX 20 26 0 -8
BITMAP
0001555500
0008000040
0028000040
00B4155000
01E0000010
02D0474410
03C00B8004
07810F8104
0B401FC004
1F40000004
2F04000041
3F05555541
3F04000041
7F04000041
7F042FE041
7F042FE041
7F002FE101
7F001BD100
7FFF8BD114
7FFE0BC114
3FF40FC141
00000FD001
00001FE400
00001FFFF4
00000FFFD0
000006FE40
ENDCHAR
STARTCHAR aogonek
ENCODING 261
SWIDTH 830 0
DWIDTH 20 0
BBX 20 26 0 -8
BITMAP
0001555500
0008000040
0028000040
00B4155000
01E0000010
02D0474410
03C00B8004
07810F8104
0B401FC004
1F40000004
2F04000041
3F05555541
3F04000041
7F04000041
7F042FE041
7F042FE041
7F002FE101
7F001BD100
7FFF8BD114
7FFE0BC114
3FF40FC141
00000FD001
00001FE400
00001FFFF4
00000FFFD0
000006FE40
ENDCHAR
STARTCHAR Cacute
ENCODING 262
SWIDTH 728 0
DWIDTH 17 0
BBX 17 27 0 -3
BITMAP
0000015A80
0006A95040
0018015040
00B8140040
01F8000000
02FC56AD00
02FE555540
02E0000040
0280000040
0140555040
0741000040
1F000BFE40
2F041FFC00
3F041FE000
7F04100000
7F04100000
7F04100000
7F04100000
7F04100000
7F40055540
7F41000040
3F80555040
3FD0000040
2FF9000040
1FFFFFFE40
0BFFFFFD00
01BFFFE000
ENDCHAR
STARTCHAR cacute
ENCODING 263
SWIDTH 728 0
DWIDTH 17 0
BBX 17 27 0 -3
BITMAP
0000015A80
0006A95040
0018015040
00B8140040
01F8000000
02FC56AD00
02FE555540
02E0000040
0280000040
0140555040
0741000040
1F000BFE40
2F041FFC00
3F041FE000
7F04100000
7F04100000
7F04100000
7F04100000
7F04100000
7F40055540
7F41000040
3F80555040
3FD0000040
2FF9000040
1FFFFFFE40
0BFFFFFD00
01BFFFE000
ENDCHAR
STARTCHAR Ccircumflex
ENCODING 264
SWIDTH 728 0
DWIDTH 17 0
BBX 17 27 0 -3
BITMAP
0000054000
0000001500
0010154040
0070000040
02F0154040
07F6FFF900
07FE555540
07E0000040
0780000040
0140555040
0741000040
1F000BFE40
3F041FFC00
3F041FE000
7F04100000
7F04100000
7F04100000
7F04100000
7F04100000
7F40055540
7F41000040
3F80555040
3FD0000040
2FF9000040
1FFFFFFE40
0BFFFFFD00
01BFFFE000
ENDCHAR
STARTCHAR ccircumflex
ENCODING 265
SWIDTH 728 0
DWIDTH 17 0
BBX 17 27 0 -3
BITMAP
0000054000
0000001500
0010154040
0070000040
02F0154040
07F6FFF900
07FE555540
07E0000040
0780000040
0140555040
0741000040
1F000BFE40
3F041FFC00
3F041FE000
7F04100000
7F04100000
7F04100000
7F04100000
7F04100000
7F40055540
7F41000040
3F80555040
3FD0000040
2FF9000040
1FFFFFFE40
0BFFFFFD00
01BFFFE000
ENDCHAR
STARTCHAR Cdotaccent
ENCODING 266
SWIDTH 728 0
DWIDTH 17 0
BBX 17 27 0 -3
BITMAP
0000555000
0001800400
000B800400
002F810400
002F800400
002F801000
002E555540
0010000040
0080000040
0240555040
0F41000040
2F000BFE40
3F041FFC00
3F041FE000
7F04100000
7F04100000
7F04100000
7F04100000
7F04100000
7F40055540
7F41000040
3F80555040
3FD0000040
2FF9000040
1FFFFFFE40
07FFFFFD00
01BFFFE000
ENDCHAR
STARTCHAR cdotaccent
ENCODING 267
SWIDTH 728 0
DWIDTH 17 0
BBX 17 27 0 -3
BITMAP
0000555000
0001800400
000B800400
002F810400
002F800400
002F801000
002E555540
0010000040
0080000040
0240555040
0F41000040
2F000BFE40
3F041FFC00
3F041FE000
7F04100000
7F04100000
7F04100000
7F04100000
7F04100000
7F40055540
7F41000040
3F80555040
3FD0000040
2FF9000040
1FFFFFFE40
07FFFFFD00
01BFFFE000
ENDCHAR
STARTCHAR Ccaron
ENCODING 268
SWIDTH 728 0
DWIDTH 17 0
BBX 17 27 0 -3
BITMAP
0000001500
0070154040
01F0001040
07F0154040
07F9000000
07FF906400
07FE555540
01A0000040
0040000040
0240555040
0B41000040
2F000BFE40
3F041FFC00
3F041FE000
7F04100000
7F04100000
7F04100000
7F04100000
7F04100000
7F40055540
7F41000040
3F80555040
3FD0000040
2FF9000040
1FFFFFFE40
07FFFFFD00
01BFFFE000
ENDCHAR
STARTCHAR ccaron
ENCODING 269
SWIDTH 728 0
DWIDTH 17 0
BBX 17 27 0 -3
BITMAP
0000001500
0070154040
01F0001040
07F0154040
07F9000000
07FF906400
07FE555540
01A0000040
0040000040
0240555040
0B41000040
2F000BFE40
3F041FFC00
3F041FE000
7F04100000
7F04100000
7F04100000
7F04100000
7F04100000
7F40055540
7F41000040
3F80555040
3FD0000040
2FF9000040
1FFFFFFE40
07FFFFFD00
01BFFFE000
ENDCHAR
STARTCHAR Dcaron
ENCODING 270
SWIDTH 846 0
DWIDTH 20 0
BBX 19 27 1 -3
BITMAP
0000001500
0060154100
02E0000100
0BE0154100
0BF4000000
0BFF91A000
0600001540
0900000050
3D00000010
BD05555004
FD04000404
FD04150104
FD043F8104
FD043FC104
FD043FC104
FD042FC104
FD042FC104
FD042FC104
FD042F8104
FD041A4104
FD04000504
FD05555000
FD00000010
FD00000140
FFFFFFFD00
FFFFFFF400
BFFFFE4000
ENDCHAR
STARTCHAR dcaron
ENCODING 271
SWIDTH 846 0
DWIDTH 20 0
BBX 19 27 1 -3
BITMAP
0000001500
0060154100
02E0000100
0BE0154100
0BF4000000
0BFF91A000
0600001540
0900000050
3D00000010
BD05555004
FD04000404
FD04150104
FD043F8104
FD043FC104
FD043FC104
FD042FC104
FD042FC104
FD042FC104
FD042F8104
FD041A4104
FD04000504
FD05555000
FD00000010
FD00000140
FFFFFFFD00
FFFFFFF400
BFFFFE4000
ENDCHAR
STARTCHAR Dcroat
ENCODING 272
SWIDTH 856 0
DWIDTH 21 0
BBX 20 21 0 -3
BITMAP
0055555540
0280000004
0B80000005
2F81555401
2F81000041
2F810FE041
2F810FF041
2D0101F041
2D0100F041
7D0550F041
FD0100F041
FD0101F041
FF810FF041
FF810AA041
7F81000041
2F81555501
2F80000004
2F80000050
2FFFFFFF80
2FFFFFFD00
1FFFFFA000
ENDCHAR
STARTCHAR dcroat
ENCODING 273
SWIDTH 856 0
DWIDTH 21 0
BBX 20 21 0 -3
BITMAP
0055555540
0280000004
0B80000005
2F81555401
2F81000041
2F810FE041
2F810FF041
2D0101F041
2D0100F041
7D0550F041
FD0100F041
FD0101F041
FF810FF041
FF810AA041
7F81000041
2F81555501
2F80000004
2F80000050
2FFFFFFF80
2FFFFFFD00
1FFFFFA000
ENDCHAR
STARTCHAR Emacron
ENCODING 274
SWIDTH 754 0
DWIDTH 18 0
BBX 17 26 1 -3
BITMAP
0015555400
0180000000
0781554000
1F80000000
2FC0000000
2E55555540
2D00000040
2D00000040
BD05555040
FD04000040
FD047FFE00
FD047FF800
FD04000400
FD04000400
FD05550400
FD04000400
FD04155000
FD047FD000
FD042A5500
FD04000040
FD05555040
FD00000040
FE00000040
FFFFFFFE00
FFFFFFF800
BFFFFFD000
ENDCHAR
STARTCHAR emacron
ENCODING 275
SWIDTH 754 0
DWIDTH 18 0
BBX 17 26 1 -3
BITMAP
0015555400
0180000000
0781554000
1F80000000
2FC0000000
2E55555540
2D00000040
2D00000040
BD05555040
FD04000040
FD047FFE00
FD047FF800
FD04000400
FD04000400
FD05550400
FD04000400
FD04155000
FD047FD000
FD042A5500
FD04000040
FD05555040
FD00000040
FE00000040
FFFFFFFE00
FFFFFFF800
BFFFFFD000
ENDCHAR
STARTCHAR Ebreve
ENCODING 276
SWIDTH 754 0
DWIDTH 18 0
BBX 17 27 1 -3
BITMAP
0015415400
01804A0100
07C0290100
1FC1001100
1FD0554000
1FF9004000
1E55555540
0900000040
2D00000040
BD05555040
FD04000040
FD047FFE00
FD047FF800
FD04000400
FD04000400
FD05550400
FD04000400
FD04155000
FD047FD000
FD042A5500
FD04000040
FD05555040
FD00000040
FE00000040
FFFFFFFE00
FFFFFFF800
BFFFFFD000
ENDCHAR
STARTCHAR ebreve
ENCODING 277
SWIDTH 754 0
DWIDTH 18 0
BBX 17 27 1 -3
BITMAP
0015415400
01804A0100
07C0290100
1FC1001100
1FD0554000
1FF9004000
1E55555540
0900000040
2D00000040
BD05555040
FD04000040
FD047FFE00
FD047FF800
FD04000400
FD04000400
FD05550400
FD04000400
FD04155000
FD047FD000
FD042A5500
FD04000040
FD05555040
FD00000040
FE00000040
FFFFFFFE00
FFFFFFF800
BFFFFFD000
ENDCHAR
STARTCHAR Edotaccent
ENCODING 278
SWIDTH 754 0
DWIDTH 18 0
BBX 17 27 1 -3
BITMAP
0001550000
0018004000
0078004000
01F8104000
02F8004000
02FC000000
0155555540
0D00000040
7D00000040
FD05555040
FD04000040
FD047FFE00
FD047FF800
FD04000400
FD04000400
FD05550400
FD04000400
FD04155000
FD047FD000
FD042A5500
FD04000040
FD05555040
FD00000040
FE00000040
FFFFFFFE00
FFFFFFF800
BFFFFFD000
ENDCHAR
STARTCHAR edotaccent
ENCODING 279
SWIDTH 754 0
DWIDTH 18 0
BBX 17 27 1 -3
BITMAP
0001550000
0018004000
0078004000
01F8104000
02F8004000
02FC000000
0155555540
0D00000040
7D00000040
FD05555040
FD04000040
FD047FFE00
FD047FF800
FD04000400
FD04000400
FD05550400
FD04000400
FD04155000
FD047FD000
FD042A5500
FD04000040
FD05555040
FD00000040
FE00000040
FFFFFFFE00
FFFFFFF800
BFFFFFD000
ENDCHAR
STARTCHAR Eogonek
ENCODING 280
SWIDTH 754 0
DWIDTH 18 0
BBX 17 26 1 -8
BITMAP
0155555540
0900000040
7D00000040
FD05555040
FD04000040
FD047FFE00
FD047FF800
FD04000400
FD04000400
FD05550400
FD04000400
FD04155000
FD047FD000
FD042A5500
FD04000040
FD05555040
FD00004040
FE00004040
FFFFF44640
FFFFF44500
BFFFF45040
0003F80040
0003FD0040
0003FFFE00
0002FFF800
0000BFD000
ENDCHAR
STARTCHAR eogonek
ENCODING 281
SWIDTH 754 0
DWIDTH 18 0
BBX 17 26 1 -8
BITMAP
0155555540
0900000040
7D00000040
FD05555040
FD04000040
FD047FFE00
FD047FF800
FD04000400
FD04000400
FD05550400
FD04000400
FD04155000
FD047FD000
FD042A5500
FD04000040
FD05555040
FD00004040
FE00004040
FFFFF44640
FFFFF44500
BFFFF45040
0003F80040
0003FD0040
0003FFFE00
0002FFF800
0000BFD000
ENDCHAR
STARTCHAR Ecaron
ENCODING 282
SWIDTH 754 0
DWIDTH 18 0
BBX 17 27 1 -3
BITMAP
0000005400
01C0550100
07C1000100
1FC0550100
1FE4000000
1FFE419000
1E55555540
0900000040
2D00000040
BD05555040
FD04000040
FD047FFE00
FD047FF800
FD04000400
FD04000400
FD05550400
FD04000400
FD04155000
FD047FD000
FD042A5500
FD04000040
FD05555040
FD00000040
FE00000040
FFFFFFFE00
FFFFFFF800
BFFFFFD000
ENDCHAR
STARTCHAR ecaron
ENCODING 283
SWIDTH 754 0
DWIDTH 18 0
BBX 17 27 1 -3
BITMAP
0000005400
01C0550100
07C1000100
1FC0550100
1FE4000000
1FFE419000
1E55555540
0900000040
2D00000040
BD05555040
FD04000040
FD047FFE00
FD047FF800
FD04000400
FD04000400
FD05550400
FD04000400
FD04155000
FD047FD000
FD042A5500
FD04000040
FD05555040
FD00000040
FE00000040
FFFFFFFE00
FFFFFFF800
BFFFFFD000
ENDCHAR
STARTCHAR Gcircumflex
ENCODING 284
SWIDTH 808 0
DWIDTH 19 0
BBX 19 27 0 -3
BITMAP
0000054000
0000500500
0004054040
001C100400
00BC000000
01FC1BE400
01FFFFFF80
01F9000040
01D0000000
0180555400
0741000000
1F400BFF80
2F041FFD00
3F041FF400
7F04101554
7F04108004
7F0417C004
7F041FC104
7F041FC104
7F40054104
7F41000104
3F80555504
3FD0000004
2FF8000004
1FFFFFFFE0
0BFFFFFF80
01BFFFFE00
ENDCHAR
STARTCHAR gcircumflex
ENCODING 285
SWIDTH 808 0
DWIDTH 19 0
BBX 19 27 0 -3
BITMAP
0000054000
0000500500
0004054040
001C100400
00BC000000
01FC1BE400
01FFFFFF80
01F9000040
01D0000000
0180555400
0741000000
1F400BFF80
2F041FFD00
3F041FF400
7F04101554
7F04108004
7F0417C004
7F041FC104
7F041FC104
7F40054104
7F41000104
3F80555504
3FD0000004
2FF8000004
1FFFFFFFE0
0BFFFFFF80
01BFFFFE00
ENDCHAR
STARTCHAR Gbreve
ENCODING 286
SWIDTH 808 0
DWIDTH 19 0
BBX 19 27 0 -3
BITMAP
0005541540
0018049010
00B8068000
02F8400440
02FC155000
02FF500400
02FE555540
00E0000000
0040000000
0140555400
0B41000000
1F000BFE40
3F041FFD00
3F041FE000
7F04101554
7F04108004
7F0417C004
7F041FC104
7F041FC104
7F40054104
7F41000104
3F80555504
3FD0000004
2FF9000004
1FFFFFFFE0
0BFFFFFF80
01BFFFFE00
ENDCHAR
STARTCHAR gbreve
ENCODING 287
SWIDTH 808 0
DWIDTH 19 0
BBX 19 27 0 -3
BITMAP
0005541540
0018049010
00B8068000
02F8400440
02FC155000
02FF500400
02FE555540
00E0000000
0040000000
0140555400
0B41000000
1F000BFE40
3F041FFD00
3F041FE000
7F04101554
7F04108004
7F0417C004
7F041FC104
7F041FC104
7F40054104
7F41000104
3F80555504
3FD0000004
2FF9000004
1FFFFFFFE0
0BFFFFFF80
01BFFFFE00
ENDCHAR
STARTCHAR Gdotaccent
ENCODING 288
SWIDTH 808 0
DWIDTH 19 0
BBX 19 27 0 -3
BITMAP
0000155400
0000800400
0007C00400
000FC10400
001FC00400
001FC00000
001E555540
0010000000
0040000000
0240555400
0B41000000
2F000BFE40
3F041FFD00
3F041FE000
7F04101554
7F04108004
7F0417C004
7F041FC104
7F041FC104
7F40054104
7F41000104
3F80555504
3FD0000004
2FF9000004
1FFFFFFFE0
07FFFFFF80
01BFFFFE00
ENDCHAR
STARTCHAR gdotaccent
ENCODING 289
SWIDTH 808 0
DWIDTH 19 0
BBX 19 27 0 -3
BITMAP
0000155400
0000800400
0007C00400
000FC10400
001FC00400
001FC00000
001E555540
0010000000
0040000000
0240555400
0B41000000
2F000BFE40
3F041FFD00
3F041FE000
7F04101554
7F04108004
7F0417C004
7F041FC104
7F041FC104
7F40054104
7F41000104
3F80555504
3FD0000004
2FF9000004
1FFFFFFFE0
07FFFFFF80
01BFFFFE00
ENDCHAR
STARTCHAR Gcommaaccent
ENCODING 290
SWIDTH 808 0
DWIDTH 19 0
BBX 19 30 0 -12
BITMAP
0005555540
0010000000
0080000000
0740555400
0F41000000
2F000BFE40
3F041FFD00
3F041FE000
7F04101554
7F04108004
7F0417C004
7F041FC104
7F041FC104
7F40054104
7F41000104
3F80555504
3FD0000004
2FF9000004
1FFFFFFFE0
07FFD00B80
01BFC00600
000BC14400
001FC00400
001FC00400
001FFE4400
001FD54400
000BD06000
000FFF8000
000FFE0000
000FE40000
ENDCHAR
STARTCHAR gcommaaccent
ENCODING 291
SWIDTH 808 0
DWIDTH 19 0
BBX 19 30 0 -12
BITMAP
0005555540
0010000000
0080000000
0740555400
0F41000000
2F000BFE40
3F041FFD00
3F041FE000
7F04101554
7F04108004
7F0417C004
7F041FC104
7F041FC104
7F40054104
7F41000104
3F80555504
3FD0000004
2FF9000004
1FFFFFFFE0
07FFD00B80
01BFC00600
000BC14400
001FC00400
001FC00400
001FFE4400
001FD54400
000BD06000
000FFF8000
000FFE0000
000FE40000
ENDCHAR
STARTCHAR Hcircumflex
ENCODING 292
SWIDTH 859 0
DWIDTH 21 0
BBX 19 27 1 -3
BITMAP
0000154000
0001401400
0020154100
00A0400000
07E0194000
07F6FFF900
0A55BFD554
09003FC004
2D000BC004
BD041FC104
FD042FC104
FD042FC104
FD041A8104
FD04000104
FD04000104
FD05555504
FD04000104
FD04000104
FD043FC104
FD043FC104
FD043FC104
FD042FC104
FD002FC004
FE006FC004
FFFF5FFFE0
FFFD1FFF80
BFE01FFD00
ENDCHAR
STARTCHAR hcircumflex
ENCODING 293
SWIDTH 859 0
DWIDTH 21 0
BBX 19 27 1 -3
BITMAP
0000154000
0001401400
0020154100
00A0400000
07E0194000
07F6FFF900
0A55BFD554
09003FC004
2D000BC004
BD041FC104
FD042FC104
FD042FC104
FD041A8104
FD04000104
FD04000104
FD05555504
FD04000104
FD04000104
FD043FC104
FD043FC104
FD043FC104
FD042FC104
FD002FC004
FE006FC004
FFFF5FFFE0
FFFD1FFF80
BFE01FFD00
ENDCHAR
STARTCHAR Hbar
ENCODING 294
SWIDTH 879 0
DWIDTH 21 0
BBX 21 21 0 -3
BITMAP
005550055500
028004340100
0B8005F40100
2F4106A04140
2E0100004040
3D0555555040
BD0100004040
FE0100004040
FF810FF44140
FF810FF04100
BF8100004100
2F8100004100
2F8155554100
2F8100004100
2F8100004100
2F810FF44100
2F800FF40100
2F800FF40100
2FFFE7FFF900
2FFF83FFE000
1FFD03FF8000
ENDCHAR
STARTCHAR hbar
ENCODING 295
SWIDTH 879 0
DWIDTH 21 0
BBX 21 21 0 -3
BITMAP
005550055500
028004340100
0B8005F40100
2F4106A04140
2E0100004040
3D0555555040
BD0100004040
FE0100004040
FF810FF44140
FF810FF04100
BF8100004100
2F8100004100
2F8155554100
2F8100004100
2F8100004100
2F810FF44100
2F800FF40100
2F800FF40100
2FFFE7FFF900
2FFF83FFE000
1FFD03FF8000
ENDCHAR
STARTCHAR Itilde
ENCODING 296
SWIDTH 705 0
DWIDTH 17 0
BBX 17 26 0 -3
BITMAP
0010000000
0080000100
02C1550100
0BC0000100
1FD5540000
1F55555500
1F00000040
1F00000040
2F05555040
7F00000040
7F94001500
7FFD007800
7FFD006000
15FD004000
00FD004000
00FD004000
00FD004000
00FD004000
00A8001500
0200000040
1F05555040
3F00000040
7F00000040
7FFFFFFD00
7FFFFFF400
3FFFFFD000
ENDCHAR
STARTCHAR itilde
ENCODING 297
SWIDTH 705 0
DWIDTH 17 0
BBX 17 26 0 -3
BITMAP
0010000000
0080000100
02C1550100
0BC0000100
1FD5540000
1F55555500
1F00000040
1F00000040
2F05555040
7F00000040
7F94001500
7FFD007800
7FFD006000
15FD004000
00FD004000
00FD004000
00FD004000
00FD004000
00A8001500
0200000040
1F05555040
3F00000040
7F00000040
7FFFFFFD00
7FFFFFF400
3FFFFFD000
ENDCHAR
STARTCHAR Imacron
ENCODING 298
SWIDTH 705 0
DWIDTH 17 0
BBX 17 26 0 -3
BITMAP
0015555400
0080000100
03C1554100
0FC0000100
1FC0000400
1FFFFFFF00
1F40000040
1F00000040
2F05555040
7F00000040
7F94001500
7FFD007800
7FFD006000
15FD004000
00FD004000
00FD004000
00FD004000
00FD004000
00A8001500
0200000040
1F05555040
3F00000040
7F00000040
7FFFFFFD00
7FFFFFF400
3FFFFFD000
ENDCHAR
STARTCHAR imacron
ENCODING 299
SWIDTH 705 0
DWIDTH 17 0
BBX 17 26 0 -3
BITMAP
0015555400
0080000100
03C1554100
0FC0000100
1FC0000400
1FFFFFFF00
1F40000040
1F00000040
2F05555040
7F00000040
7F94001500
7FFD007800
7FFD006000
15FD004000
00FD004000
00FD004000
00FD004000
00FD004000
00A8001500
0200000040
1F05555040
3F00000040
7F00000040
7FFFFFFD00
7FFFFFF400
3FFFFFD000
ENDCHAR
STARTCHAR Ibreve
ENCODING 300
SWIDTH 705 0
DWIDTH 17 0
BBX 17 27 0 -3
BITMAP
0015415400
0180490100
0780290100
1FC1005100
2FD0550000
1FF9004000
1F55555500
0B00000040
0B00000040
3F05555040
7F00000040
7F94001500
7FFD007800
7FFD006000
15FD004000
00FD004000
00FD004000
00FD004000
00FD004000
00A8001500
0200000040
1F05555040
3F00000040
7F00000040
7FFFFFFD00
7FFFFFF400
3FFFFFD000
ENDCHAR
STARTCHAR ibreve
ENCODING 301
SWIDTH 705 0
DWIDTH 17 0
BBX 17 27 0 -3
BITMAP
0015415400
0180490100
0780290100
1FC1005100
2FD0550000
1FF9004000
1F55555500
0B00000040
0B00000040
3F05555040
7F00000040
7F94001500
7FFD007800
7FFD006000
15FD004000
00FD004000
00FD004000
00FD004000
00FD004000
00A8001500
0200000040
1F05555040
3F00000040
7F00000040
7FFFFFFD00
7FFFFFF400
3FFFFFD000
ENDCHAR
STARTCHAR Iogonek
ENCODING 302
SWIDTH 705 0
DWIDTH 17 0
BBX 17 26 0 -8
BITMAP
0155555500
0700000040
1F00000040
7F05555040
7F00000040
7F94001500
7FFD007800
7FFD006000
15FD004000
00FD004000
00FD004000
00FD004000
00FD004000
00A8001500
0200000040
1F05555040
3F00004040
7F00004040
7FFFF44A00
7FFFF04900
3FFFF05040
0003F40040
0007F90000
0007FFFD00
0003FFF400
0001BF8000
ENDCHAR
STARTCHAR iogonek
ENCODING 303
SWIDTH 705 0
DWIDTH 17 0
BBX 17 26 0 -8
BITMAP
0155555500
0700000040
1F00000040
7F05555040
7F00000040
7F94001500
7FFD007800
7FFD006000
15FD004000
00FD004000
00FD004000
00FD004000
00FD004000
00A8001500
0200000040
1F05555040
3F00004040
7F00004040
7FFFF44A00
7FFFF04900
3FFFF05040
0003F40040
0007F90000
0007FFFD00
0003FFF400
0001BF8000
ENDCHAR
STARTCHAR Idotaccent
ENCODING 304
SWIDTH 705 0
DWIDTH 17 0
BBX 17 27 0 -3
BITMAP
0001554000
0009004000
002D004000
00FD004000
00FD004000
00FD004000
0155555500
0700000040
1F00000040
7F05555040
7F00000040
7F94001500
7FFD007800
7FFD006000
15FD004000
00FD004000
00FD004000
00FD004000
00FD004000
00A8001500
0200000040
1F05555040
3F00000040
7F00000040
7FFFFFFD00
7FFFFFF400
3FFFFFD000
ENDCHAR
STARTCHAR dotlessi
ENCODING 305
SWIDTH 705 0
DWIDTH 17 0
BBX 17 21 0 -3
BITMAP
0155555500
0700000040
1F00000040
7F05555040
7F00000040
7F94001500
7FFD007800
7FFD006000
15FD004000
00FD004000
00FD004000
00FD004000
00FD004000
00A8001500
0200000040
1F05555040
3F00000040
7F00000040
7FFFFFFD00
7FFFFFF400
3FFFFFD000
ENDCHAR
STARTCHAR IJ
ENCODING 306
SWIDTH 844 0
DWIDTH 20 0
BBX 19 21 1 -3
BITMAP
0155405550
0900028004
7D000B8004
FD042F8104
FD043F8104
FD043F8104
FD043F8104
FD043F8104
FD003F8104
FD003F8104
FE557F8104
FFFE7F8104
FFF87F4104
5650150104
0900000400
3D05555010
BD00000000
FE00000100
FFFFFFFC00
FFFFFFE000
BFFFFE4000
ENDCHAR
STARTCHAR ij
ENCODING 307
SWIDTH 844 0
DWIDTH 20 0
BBX 19 21 1 -3
BITMAP
0155405550
0900028004
7D000B8004
FD042F8104
FD043F8104
FD043F8104
FD043F8104
FD043F8104
FD003F8104
FD003F8104
FE557F8104
FFFE7F8104
FFF87F4104
5650150104
0900000400
3D05555010
BD00000000
FE00000100
FFFFFFFC00
FFFFFFE000
BFFFFE4000
ENDCHAR
STARTCHAR Jcircumflex
ENCODING 308
SWIDTH 788 0
DWIDTH 19 0
BBX 20 27 0 -3
BITMAP
0000001500
0000000010
0000201541
0001E00001
0007E06F91
000BFFFFFE
000BFF4018
000BAB4010
00001F4010
00003F4010
00003F4010
00003F4010
00003F4010
00003F4010
00557F4010
06003F4010
1E003F4010
7E043F4010
BE043F0410
BE04040410
BF01000410
BF40554010
7F80000040
7FF5000500
2FFFFFF800
0BFFFFD000
01BFF90000
ENDCHAR
STARTCHAR jcircumflex
ENCODING 309
SWIDTH 788 0
DWIDTH 19 0
BBX 20 27 0 -3
BITMAP
0000001500
0000000010
0000201541
0001E00001
0007E06F91
000BFFFFFE
000BFF4018
000BAB4010
00001F4010
00003F4010
00003F4010
00003F4010
00003F4010
00003F4010
00557F4010
06003F4010
1E003F4010
7E043F4010
BE043F0410
BE04040410
BF01000410
BF40554010
7F80000040
7FF5000500
2FFFFFF800
0BFFFFD000
01BFF90000
ENDCHAR
STARTCHAR Kcommaaccent
ENCODING 310
SWIDTH 846 0
DWIDTH 20 0
BBX 19 30 1 -12
BITMAP
0155405550
0900020010
7D000A0010
FD042D0440
FD043C1040
FD04381040
FD04304100
FD04104140
FD04000010
FD05555404
FD04000104
FD04150104
FD043F8104
FD043F8104
FD043F8104
FD042F8104
FD002F8004
FE006FC004
FFFF6FFFE0
FFFD5ABF80
BFE7002D00
001F051000
007F001000
007F001000
007FF91000
007F550000
002F954000
003FFD0000
003FE00000
0015400000
ENDCHAR
STARTCHAR kcommaaccent
ENCODING 311
SWIDTH 846 0
DWIDTH 20 0
BBX 19 30 1 -12
BITMAP
0155405550
0900020010
7D000A0010
FD042D0440
FD043C1040
FD04381040
FD04304100
FD04104140
FD04000010
FD05555404
FD04000104
FD04150104
FD043F8104
FD043F8104
FD043F8104
FD042F8104
FD002F8004
FE006FC004
FFFF6FFFE0
FFFD5ABF80
BFE7002D00
001F051000
007F001000
007F001000
007FF91000
007F550000
002F954000
003FFD0000
003FE00000
0015400000
ENDCHAR
STARTCHAR kgreenlandic
ENCODING 312
SWIDTH 846 0
DWIDTH 20 0
BBX 19 21 1 -3
BITMAP
0155405550
0900020010
7D000A0010
FD042D0440
FD043C1040
FD04381040
FD04304100
FD04104140
FD04000010
FD05555404
FD04000104
FD04150104
FD043F8104
FD043F8104
FD043F8104
FD042F8104
FD002F8004
FE006FC004
FFFF6FFFE0
FFFD2FFF80
BFE01FFD00
ENDCHAR
STARTCHAR Lacute
ENCODING 313
SWIDTH 795 0
DWIDTH 19 0
BBX 18 27 1 -3
BITMAP
0000014000
0055541000
0500041000
1D05501000
7D00001000
FE15AF8000
FFAABD0000
FD00240000
BD00000000
BD04000000
FD04000000
FD04000000
FD04000000
FD04000000
FD04005540
FD04024010
FD041F0010
FD043F0410
FD043F0410
FD04150410
FD04000410
FD05555410
FD00000010
FE00000010
FFFFFFFF80
FFFFFFFE00
BFFFFFF400
ENDCHAR
STARTCHAR lacute
ENCODING 314
SWIDTH 795 0
DWIDTH 19 0
BBX 18 27 1 -3
BITMAP
0000014000
0055541000
0500041000
1D05501000
7D00001000
FE15AF8000
FFAABD0000
FD00240000
BD00000000
BD04000000
FD04000000
FD04000000
FD04000000
FD04000000
FD04005540
FD04024010
FD041F0010
FD043F0410
FD043F0410
FD04150410
FD04000410
FD05555410
FD00000010
FE00000010
FFFFFFFF80
FFFFFFFE00
BFFFFFF400
ENDCHAR
STARTCHAR Lcommaaccent
ENCODING 315
SWIDTH 795 0
DWIDTH 19 0
BBX 18 30 1 -12
BITMAP
0155400000
0900000000
7D00000000
FD04000000
FD04000000
FD04000000
FD04000000
FD04000000
FD04005540
FD04024010
FD041F0010
FD043F0410
FD043F0410
FD04150410
FD04000410
FD05555410
FD00000010
FE00000010
FFFFFFFF80
FFFF003E00
BFFE002400
003E151000
00BE011000
00BE011000
00BFF91000
00BF144000
002F554000
007FF80000
007FE00000
0015400000
ENDCHAR
STARTCHAR lcommaaccent
ENCODING 316
SWIDTH 795 0
DWIDTH 19 0
BBX 18 30 1 -12
BITMAP
0155400000
0900000000
7D00000000
FD04000000
FD04000000
FD04000000
FD04000000
FD04000000
FD04005540
FD04024010
FD041F0010
FD043F0410
FD043F0410
FD04150410
FD04000410
FD05555410
FD00000010
FE00000010
FFFFFFFF80
FFFF003E00
BFFE002400
003E151000
00BE011000
00BE011000
00BFF91000
00BF144000
002F554000
007FF80000
007FE00000
0015400000
ENDCHAR
STARTCHAR Lcaron
ENCODING 317
SWIDTH 795 0
DWIDTH 19 0
BBX 18 21 1 -3
BITMAP
0155405550
0900070010
7D001F0000
FD043E0440
FD043E0040
FD043D0040
FD043D0000
FD043FFD00
FD043FA540
FD043F4010
FD041F0010
FD043F0410
FD043F0410
FD04150410
FD04000410
FD05555410
FD00000010
FE00000010
FFFFFFFF80
FFFFFFFE00
BFFFFFF400
ENDCHAR
STARTCHAR lcaron
ENCODING 318
SWIDTH 795 0
DWIDTH 19 0
BBX 18 21 1 -3
BITMAP
0155405550
0900070010
7D001F0000
FD043E0440
FD043E0040
FD043D0040
FD043D0000
FD043FFD00
FD043FA540
FD043F4010
FD041F0010
FD043F0410
FD043F0410
FD04150410
FD04000410
FD05555410
FD00000010
FE00000010
FFFFFFFF80
FFFFFFFE00
BFFFFFF400
ENDCHAR
STARTCHAR Ldot
ENCODING 319
SWIDTH 795 0
DWIDTH 19 0
BBX 18 21 1 -3
BITMAP
0155400000
0900000000
7D00000000
FD04000000
FD04005540
FD04070010
FD042F0410
FD043F0010
FD043F0010
FD043FFF80
FD043FA940
FD042F4010
FD041F0010
FD04150410
FD04000410
FD05555410
FD00000010
FE00000010
FFFFFFFF80
FFFFFFFE00
BFFFFFF400
ENDCHAR
STARTCHAR ldot
ENCODING 320
SWIDTH 795 0
DWIDTH 19 0
BBX 18 21 1 -3
BITMAP
0155400000
0900000000
7D00000000
FD04000000
FD04005540
FD04070010
FD042F0410
FD043F0010
FD043F0010
FD043FFF80
FD043FA940
FD042F4010
FD041F0010
FD04150410
FD04000410
FD05555410
FD00000010
FE00000010
FFFFFFFF80
FFFFFFFE00
BFFFFFF400
ENDCHAR
STARTCHAR Lslash
ENCODING 321
SWIDTH 805 0
DWIDTH 19 0
BBX 19 21 0 -3
BITMAP
0055500000
0280040000
0B80040000
2F81040000
2F81040000
2F81054000
2F41004000
2D01004000
2D05405554
BD01019004
FD010FD004
FF810FD004
FF810FD004
BF81054004
2F81000004
2F81555504
2F80000004
2F80000004
2FFFFFFFE0
2FFFFFFF80
1FFFFFFE00
ENDCHAR
STARTCHAR lslash
ENCODING 322
SWIDTH 805 0
DWIDTH 19 0
BBX 19 21 0 -3
BITMAP
0055500000
0280040000
0B80040000
2F81040000
2F81040000
2F81054000
2F41004000
2D01004000
2D05405554
BD01019004
FD010FD004
FF810FD004
FF810FD004
BF81054004
2F81000004
2F81555504
2F80000004
2F80000004
2FFFFFFFE0
2FFFFFFF80
1FFFFFFE00
ENDCHAR
STARTCHAR Nacute
ENCODING 323
SWIDTH 853 0
DWIDTH 20 0
BBX 19 27 1 -3
BITMAP
0000056A00
000AA94040
0070015040
01F0500040
07F0000000
07F45AB800
0655FFD554
09007BC004
2D0007C004
BD040BC104
FD0503C104
FD04418104
FD04104104
FD04040104
FD04010104
FD04004104
FD04604104
FD04781104
FD047D0504
FD047F4104
FD047F8104
FD047FC104
FD007FC004
FE005FC004
FFFE5FFFD0
FFFD1FFF40
BFE01FFD00
ENDCHAR
STARTCHAR nacute
ENCODING 324
SWIDTH 853 0
DWIDTH 20 0
BBX 19 27 1 -3
BITMAP
0000056A00
000AA94040
0070015040
01F0500040
07F0000000
07F45AB800
0655FFD554
09007BC004
2D0007C004
BD040BC104
FD0503C104
FD04418104
FD04104104
FD04040104
FD04010104
FD04004104
FD04604104
FD04781104
FD047D0504
FD047F4104
FD047F8104
FD047FC104
FD007FC004
FE005FC004
FFFE5FFFD0
FFFD1FFF40
BFE01FFD00
ENDCHAR
STARTCHAR Ncommaaccent
ENCODING 325
SWIDTH 853 0
DWIDTH 20 0
BBX 19 30 1 -12
BITMAP
0155005554
0900418004
7D0007C004
FD040BC104
FD0503C104
FD04418104
FD04104104
FD04040104
FD04010104
FD04004104
FD04604104
FD04781104
FD047D0504
FD047F4104
FD047F8104
FD047FC104
FD007FC004
FE005FC004
FFFE5FFFD0
FFFD5ABF40
BFE7001D00
001F051000
007F005000
007F005000
007FF91000
007F451000
002F954000
003FFD0000
003FF40000
0015400000
ENDCHAR
STARTCHAR ncommaaccent
ENCODING 326
SWIDTH 853 0
DWIDTH 20 0
BBX 19 30 1 -12
BITMAP
0155005554
0900418004
7D0007C004
FD040BC104
FD0503C104
FD04418104
FD04104104
FD04040104
FD04010104
FD04004104
FD04604104
FD04781104
FD047D0504
FD047F4104
FD047F8104
FD047FC104
FD007FC004
FE005FC004
FFFE5FFFD0
FFFD5ABF40
BFE7001D00
001F051000
007F005000
007F005000
007FF91000
007F451000
002F954000
003FFD0000
003FF40000
0015400000
ENDCHAR
STARTCHAR Ncaron
ENCODING 327
SWIDTH 853 0
DWIDTH 20 0
BBX 19 27 1 -3
BITMAP
006A401500
01E0150100
07E0000100
0BE0150100
0BF4000400
0BFF91A400
0A55FFD554
09007AC004
3D0007C004
BD040BC104
FD0503C104
FD04418104
FD04104104
FD04040104
FD04010104
FD04004104
FD04604104
FD04781104
FD047D0504
FD047F4104
FD047F8104
FD047FC104
FD007FC004
FE005FC004
FFFE5FFFD0
FFFD1FFF40
BFE01FFD00
ENDCHAR
STARTCHAR ncaron
ENCODING 328
SWIDTH 853 0
DWIDTH 20 0
BBX 19 27 1 -3
BITMAP
006A401500
01E0150100
07E0000100
0BE0150100
0BF4000400
0BFF91A400
0A55FFD554
09007AC004
3D0007C004
BD040BC104
FD0503C104
FD04418104
FD04104104
FD04040104
FD04010104
FD04004104
FD04604104
FD04781104
FD047D0504
FD047F4104
FD047F8104
FD047FC104
FD007FC004
FE005FC004
FFFE5FFFD0
FFFD1FFF40
BFE01FFD00
ENDCHAR
STARTCHAR napostrophe
ENCODING 329
SWIDTH 853 0
DWIDTH 20 0
BBX 20 29 0 -3
BITMAP
0055500000
0200100000
1F05100000
3F00500000
7F40500000
7FFC100000
7F45000000
2F40000000
2FEA801AA9
3F40207001
2F4005F001
2F4103F041
3F4141F041
3F41106041
3F41041041
3F41010041
3F41004041
3F41001041
3F41181041
3F411E0441
3F411F4141
3F411FD041
3F411FE041
3F411FF041
3F401FF001
3F4017F001
3FFF97FFF4
3FFF47FFD0
2FF807FF40
ENDCHAR
STARTCHAR Eng
ENCODING 330
SWIDTH 846 0
DWIDTH 20 0
BBX 19 23 1 -5
BITMAP
0005555500
0040000040
0200555010
0A05000400
3D04000104
BD003F4104
FD007F8104
FD007F8104
FD006F8104
FD006F8104
FD006F8104
FD006F8104
FD006F8104
FD006F8104
FD006F8104
FD006E4104
FD00740004
FD00741010
FFFFF40010
FFFFF40140
BFE3FEAD00
0003FFF000
0002FE4000
ENDCHAR
STARTCHAR eng
ENCODING 331
SWIDTH 846 0
DWIDTH 20 0
BBX 19 23 1 -5
BITMAP
0005555500
0040000040
0200555010
0A05000400
3D04000104
BD003F4104
FD007F8104
FD007F8104
FD006F8104
FD006F8104
FD006F8104
FD006F8104
FD006F8104
FD006F8104
FD006F8104
FD006E4104
FD00740004
FD00741010
FFFFF40010
FFFFF40140
BFE3FEAD00
0003FFF000
0002FE4000
ENDCHAR
STARTCHAR Omacron
ENCODING 332
SWIDTH 837 0
DWIDTH 20 0
BBX 20 26 0 -3
BITMAP
0005555540
0018000040
00B8155040
02F8000040
02F8000040
02FFEAAF00
02F4000050
01C0155404
0741000104
1F41000041
2F041FD041
3F041FE041
7F041FE041
7F041BE041
7F041BE041
7F041BE041
7F041BE041
7F041BE041
7F410A9041
7F41000101
3F80155404
3FD0000014
2FF9000190
1FFFFFFF00
07FFFFF800
006FFE9000
ENDCHAR
STARTCHAR omacron
ENCODING 333
SWIDTH 837 0
DWIDTH 20 0
BBX 20 26 0 -3
BITMAP
0005555540
0018000040
00B8155040
02F8000040
02F8000040
02FFEAAF00
02F4000050
01C0155404
0741000104
1F41000041
2F041FD041
3F041FE041
7F041FE041
7F041BE041
7F041BE041
7F041BE041
7F041BE041
7F041BE041
7F410A9041
7F41000101
3F80155404
3FD0000014
2FF9000190
1FFFFFFF00
07FFFFF800
006FFE9000
ENDCHAR
STARTCHAR Obreve
ENCODING 334
SWIDTH 837 0
DWIDTH 20 0
BBX 20 27 0 -3
BITMAP
0005501540
002405C040
00B4400440
02F8155040
03FC000040
03FF500500
02FFA9A900
00B4000050
0080155404
0741000104
1F41000041
2F041FD041
3F041FE041
7F041FE041
7F041BE041
7F041BE041
7F041BE041
7F041BE041
7F041BE041
7F410A9041
7F41000101
3F80155404
3FD0000014
2FF9000190
1FFFFFFF00
07FFFFF800
006FFE9000
ENDCHAR
STARTCHAR obreve
ENCODING 335
SWIDTH 837 0
DWIDTH 20 0
BBX 20 27 0 -3
BITMAP
0005501540
002405C040
00B4400440
02F8155040
03FC000040
03FF500500
02FFA9A900
00B4000050
0080155404
0741000104
1F41000041
2F041FD041
3F041FE041
7F041FE041
7F041BE041
7F041BE041
7F041BE041
7F041BE041
7F041BE041
7F410A9041
7F41000101
3F80155404
3FD0000014
2FF9000190
1FFFFFFF00
07FFFFF800
006FFE9000
ENDCHAR
STARTCHAR Ohungarumlaut
ENCODING 336
SWIDTH 837 0
DWIDTH 20 0
BBX 20 29 0 -3
BITMAP
0001550550
0006012004
001D01E010
007C12D110
00FC03C110
00F803C010
01F4078000
02F40B8040
03FFEAAF00
03F4000050
01C0155404
0741000104
1F41000041
2F041FD041
3F041FE041
7F041FE041
7F041BE041
7F041BE041
7F041BE041
7F041BE041
7F041BE041
7F410A9041
7F41000101
3F80155404
3FD0000014
2FF9000190
1FFFFFFF00
07FFFFF800
006FFE9000
ENDCHAR
STARTCHAR ohungarumlaut
ENCODING 337
SWIDTH 837 0
DWIDTH 20 0
BBX 20 29 0 -3
BITMAP
0001550550
0006012004
001D01E010
007C12D110
00FC03C110
00F803C010
01F4078000
02F40B8040
03FFEAAF00
03F4000050
01C0155404
0741000104
1F41000041
2F041FD041
3F041FE041
7F041FE041
7F041BE041
7F041BE041
7F041BE041
7F041BE041
7F041BE041
7F410A9041
7F41000101
3F80155404
3FD0000014
2FF9000190
1FFFFFFF00
07FFFFF800
006FFE9000
ENDCHAR
STARTCHAR OE
ENCODING 338
SWIDTH 1115 0
DWIDTH 27 0
BBX 27 21 0 -3
BITMAP
00055555555550
00100000000004
00800000000004
07405555555404
1F410000400000
2F000A9047FFD0
3F041FD047FF40
3F041FD0400000
7F041FD0400040
7F041FD0554040
7F041FD0400040
7F041FD0415500
7F041FD047F800
7F400A9042A550
7F410000400004
3F805555555404
3FD00000000004
2FF80000000000
1FFFFFFFFFFFD0
0BFFFFFFFFFF40
01BFFFFFFFFD00
ENDCHAR
STARTCHAR oe
ENCODING 339
SWIDTH 1115 0
DWIDTH 27 0
BBX 27 21 0 -3
BITMAP
00055555555550
00100000000004
00800000000004
07405555555404
1F410000400000
2F000A9047FFD0
3F041FD047FF40
3F041FD0400000
7F041FD0400040
7F041FD0554040
7F041FD0400040
7F041FD0415500
7F041FD047F800
7F400A9042A550
7F410000400004
3F805555555404
3FD00000000004
2FF80000000000
1FFFFFFFFFFFD0
0BFFFFFFFFFF40
01BFFFFFFFFD00
ENDCHAR
STARTCHAR Racute
ENCODING 340
SWIDTH 843 0
DWIDTH 20 0
BBX 19 27 1 -3
BITMAP
0000005500
0015554100
0060004100
02D0540100
0BD0000000
0FE15AF400
0FAAAA9400
0D00000140
1D00000040
BD05554000
FD04001010
FD043D0010
FD043E0400
FD043E0440
FD04000040
FD04001010
FD05555404
FD04000104
FD043F8104
FD043FC104
FD043FC104
FD001FC004
FD001FC004
FE001FD004
FFFE5FFFE0
FFFC1FFF80
BFE00FFE00
ENDCHAR
STARTCHAR racute
ENCODING 341
SWIDTH 843 0
DWIDTH 20 0
BBX 19 27 1 -3
BITMAP
0000005500
0015554100
0060004100
02D0540100
0BD0000000
0FE15AF400
0FAAAA9400
0D00000140
1D00000040
BD05554000
FD04001010
FD043D0010
FD043E0400
FD043E0440
FD04000040
FD04001010
FD05555404
FD04000104
FD043F8104
FD043FC104
FD043FC104
FD001FC004
FD001FC004
FE001FD004
FFFE5FFFE0
FFFC1FFF80
BFE00FFE00
ENDCHAR
STARTCHAR Rcommaaccent
ENCODING 342
SWIDTH 843 0
DWIDTH 20 0
BBX 19 30 1 -12
BITMAP
0155555500
0900000040
7D00000040
FD05554000
FD04001010
FD043D0010
FD043E0400
FD043E0440
FD04000040
FD04001010
FD05555404
FD04000104
FD043F8104
FD043FC104
FD043FC104
FD001FC004
FD001FC004
FE001FD004
FFFE5FFFE0
FFFD5ABF80
BFE6001E00
001F051000
003F005000
007F405000
007FFC1000
007F451000
002F954000
003FFD0000
003FF40000
0015400000
ENDCHAR
STARTCHAR rcommaaccent
ENCODING 343
SWIDTH 843 0
DWIDTH 20 0
BBX 19 30 1 -12
BITMAP
0155555500
0900000040
7D00000040
FD05554000
FD04001010
FD043D0010
FD043E0400
FD043E0440
FD04000040
FD04001010
FD05555404
FD04000104
FD043F8104
FD043FC104
FD043FC104
FD001FC004
FD001FC004
FE001FD004
FFFE5FFFE0
FFFD5ABF80
BFE6001E00
001F051000
003F005000
007F405000
007FFC1000
007F451000
002F954000
003FFD0000
003FF40000
0015400000
ENDCHAR
STARTCHAR Rcaron
ENCODING 344
SWIDTH 843 0
DWIDTH 20 0
BBX 19 27 1 -3
BITMAP
0000001500
0060154100
02E0000100
0BE0154100
0BF4000500
0BFF91B400
0BFFFFE000
0600000500
1D00000040
7D05554040
FD04001010
FD043D0010
FD043E0400
FD043E0440
FD04000040
FD04001010
FD05555404
FD04000104
FD043F8104
FD043FC104
FD043FC104
FD001FC004
FD001FC004
FE001FD004
FFFE5FFFE0
FFFC1FFF80
BFE00FFE00
ENDCHAR
STARTCHAR rcaron
ENCODING 345
SWIDTH 843 0
DWIDTH 20 0
BBX 19 27 1 -3
BITMAP
0000001500
0060154100
02E0000100
0BE0154100
0BF4000500
0BFF91B400
0BFFFFE000
0600000500
1D00000040
7D05554040
FD04001010
FD043D0010
FD043E0400
FD043E0440
FD04000040
FD04001010
FD05555404
FD04000104
FD043F8104
FD043FC104
FD043FC104
FD001FC004
FD001FC004
FE001FD004
FFFE5FFFE0
FFFC1FFF80
BFE00FFE00
ENDCHAR
STARTCHAR Sacute
ENCODING 346
SWIDTH 750 0
DWIDTH 18 0
BBX 18 27 0 -3
BITMAP
0000056A00
001AA54100
0060014100
02E0500100
07E0000000
0BF15AB400
0BF9555540
0BD0000040
0740000040
0200555040
0B01000040
2F041FFE00
7F041AF800
7F04000500
7F01000040
7F80154010
7FE0000410
3FFFA50410
2FFFFF0410
0755540410
0700000410
2F05555010
7F00000040
7F00000100
7FFFFFF800
7FFFFFD000
7FFFFE4000
ENDCHAR
STARTCHAR sacute
ENCODING 347
SWIDTH 750 0
DWIDTH 18 0
BBX 18 27 0 -3
BITMAP
0000056A00
001AA54100
0060014100
02E0500100
07E0000000
0BF15AB400
0BF9555540
0BD0000040
0740000040
0200555040
0B01000040
2F041FFE00
7F041AF800
7F04000500
7F01000040
7F80154010
7FE0000410
3FFFA50410
2FFFFF0410
0755540410
0700000410
2F05555010
7F00000040
7F00000100
7FFFFFF800
7FFFFFD000
7FFFFE4000
ENDCHAR
STARTCHAR Scircumflex
ENCODING 348
SWIDTH 750 0
DWIDTH 18 0
BBX 18 27 0 -3
BITMAP
0000150000
0000001400
0010150100
00A0000100
07E0190100
0BEAFFE900
0BF9555540
0BD0000040
0B40000040
0200555040
0B01000040
2F041FFE00
7F041AF800
7F04000500
7F01000040
7F80154010
7FE0000410
3FFFA50410
2FFFFF0410
0755540410
0700000410
2F05555010
7F00000040
7F00000100
7FFFFFF800
7FFFFFD000
7FFFFE4000
ENDCHAR
STARTCHAR scircumflex
ENCODING 349
SWIDTH 750 0
DWIDTH 18 0
BBX 18 27 0 -3
BITMAP
0000150000
0000001400
0010150100
00A0000100
07E0190100
0BEAFFE900
0BF9555540
0BD0000040
0B40000040
0200555040
0B01000040
2F041FFE00
7F041AF800
7F04000500
7F01000040
7F80154010
7FE0000410
3FFFA50410
2FFFFF0410
0755540410
0700000410
2F05555010
7F00000040
7F00000100
7FFFFFF800
7FFFFFD000
7FFFFE4000
ENDCHAR
STARTCHAR Scedilla
ENCODING 350
SWIDTH 750 0
DWIDTH 18 0
BBX 18 24 0 -6
BITMAP
0005555540
0050000040
0140000040
0B00555040
2F01000040
3F041FFE00
7F041AF800
7F04000500
7F01000040
7F80154010
7FE4000410
3FFFA50410
2FFFFF0410
0755540410
0700000410
2F05555010
7F00040040
7F40040600
7FFE047800
7FFD009000
7FFC004000
00BFF90000
00FFF40000
01FF800000
ENDCHAR
STARTCHAR scedilla
ENCODING 351
SWIDTH 750 0
DWIDTH 18 0
BBX 18 24 0 -6
BITMAP
0005555540
0050000040
0140000040
0B00555040
2F01000040
3F041FFE00
7F041AF800
7F04000500
7F01000040
7F80154010
7FE4000410
3FFFA50410
2FFFFF0410
0755540410
0700000410
2F05555010
7F00040040
7F40040600
7FFE047800
7FFD009000
7FFC004000
00BFF90000
00FFF40000
01FF800000
ENDCHAR
STARTCHAR Scaron
ENCODING 352
SWIDTH 750 0
DWIDTH 18 0
BBX 18 27 0 -3
BITMAP
0000001500
0060154100
02E0000100
07E0154100
0BF8000400
0BFF906000
0BF9555540
0190000040
0040000040
0700555040
1F01000040
3F041FFE00
7F041AF800
7F04000500
7F01000040
7F80154010
7FE0000410
3FFFA50410
2FFFFF0410
0755540410
0700000410
2F05555010
7F00000040
7F00000100
7FFFFFF800
7FFFFFD000
7FFFFE4000
ENDCHAR
STARTCHAR scaron
ENCODING 353
SWIDTH 750 0
DWIDTH 18 0
BBX 18 27 0 -3
BITMAP
0000001500
0060154100
02E0000100
07E0154100
0BF8000400
0BFF906000
0BF9555540
0190000040
0040000040
0700555040
1F01000040
3F041FFE00
7F041AF800
7F04000500
7F01000040
7F80154010
7FE0000410
3FFFA50410
2FFFFF0410
0755540410
0700000410
2F05555010
7F00000040
7F00000100
7FFFFFF800
7FFFFFD000
7FFFFE4000
ENDCHAR
STARTCHAR Tcommaaccent
ENCODING 354
SWIDTH 756 0
DWIDTH 18 0
BBX 18 30 0 -12
BITMAP
0155555550
0900000010
7D00000010
BD05555510
FE00040010
FFFE041F90
FFFE042F40
BFFE042800
00BE041000
00BE041000
00BE041000
00BE041000
00BE041000
00BE041000
00BE041000
00BE041000
00BE001000
00BF001000
00BFFF8000
00BF001000
007F001000
002F151000
007F011000
007F011000
007FF91000
007F540000
002F554000
003FFD0000
007FE00000
0015400000
ENDCHAR
STARTCHAR tcommaaccent
ENCODING 355
SWIDTH 756 0
DWIDTH 18 0
BBX 18 30 0 -12
BITMAP
0155555550
0900000010
7D00000010
BD05555510
FE00040010
FFFE041F90
FFFE042F40
BFFE042800
00BE041000
00BE041000
00BE041000
00BE041000
00BE041000
00BE041000
00BE041000
00BE041000
00BE001000
00BF001000
00BFFF8000
00BF001000
007F001000
002F151000
007F011000
007F011000
007FF91000
007F540000
002F554000
003FFD0000
007FE00000
0015400000
ENDCHAR
STARTCHAR Tcaron
ENCODING 356
SWIDTH 756 0
DWIDTH 18 0
BBX 18 27 0 -3
BITMAP
0000001500
00A0154100
02E0000100
0BE0154100
0BF4000400
0BFF91A000
0A55555550
0900000010
2D00000010
BD05555510
FE00040010
FFFE041F90
FFFE042F40
BFFE042800
00BE041000
00BE041000
00BE041000
00BE041000
00BE041000
00BE041000
00BE041000
00BE041000
00BE001000
00BF001000
00BFFF8000
00BFFE0000
007FF80000
ENDCHAR
STARTCHAR tcaron
ENCODING 357
SWIDTH 756 0
DWIDTH 18 0
BBX 18 27 0 -3
BITMAP
0000001500
00A0154100
02E0000100
0BE0154100
0BF4000400
0BFF91A000
0A55555550
0900000010
2D00000010
BD05555510
FE00040010
FFFE041F90
FFFE042F40
BFFE042800
00BE041000
00BE041000
00BE041000
00BE041000
00BE041000
00BE041000
00BE041000
00BE041000
00BE001000
00BF001000
00BFFF8000
00BFFE0000
007FF80000
ENDCHAR
STARTCHAR Tbar
ENCODING 358
SWIDTH 756 0
DWIDTH 18 0
BBX 18 21 0 -3
BITMAP
0155555550
0900000010
2D00000010
BD05555510
FD00040010
FE55041550
FFFE042F40
FFFE042D00
55AA041500
00C0040040
07C1555040
0FC0040040
1FE5041540
1FFE042D00
1FFE041000
0ABE041000
00BE001000
00BF001000
00BFFF8000
00BFFE0000
007FF80000
ENDCHAR
STARTCHAR tbar
ENCODING 359
SWIDTH 756 0
DWIDTH 18 0
BBX 18 21 0 -3
BITMAP
0155555550
0900000010
2D00000010
BD05555510
FD00040010
FE55041550
FFFE042F40
FFFE042D00
55AA041500
00C0040040
07C1555040
0FC0040040
1FE5041540
1FFE042D00
1FFE041000
0ABE041000
00BE001000
00BF001000
00BFFF8000
00BFFE0000
007FF80000
ENDCHAR
STARTCHAR Utilde
ENCODING 360
SWIDTH 846 0
DWIDTH 20 0
BBX 19 27 1 -3
BITMAP
0005550500
0010005100
00A0000100
02E0555100
0BE0000000
0BE5950000
0A55BFD554
1D007F8004
7D005F8004
FD046F8104
FD046F8104
FD046F8104
FD046F8104
FD046F8104
FD046F8104
FD046F8104
FD046F8104
FD046F8104
FD042F8104
FD04000104
FD05000404
FE00555010
FF80000050
BFE4000640
3FFFFFF800
1FFFFFE000
01BFFA4000
ENDCHAR
STARTCHAR utilde
ENCODING 361
SWIDTH 846 0
DWIDTH 20 0
BBX 19 27 1 -3
BITMAP
0005550500
0010005100
00A0000100
02E0555100
0BE0000000
0BE5950000
0A55BFD554
1D007F8004
7D005F8004
FD046F8104
FD046F8104
FD046F8104
FD046F8104
FD046F8104
FD046F8104
FD046F8104
FD046F8104
FD046F8104
FD042F8104
FD04000104
FD05000404
FE00555010
FF80000050
BFE4000640
3FFFFFF800
1FFFFFE000
01BFFA4000
ENDCHAR
STARTCHAR Umacron
ENCODING 362
SWIDTH 846 0
DWIDTH 20 0
BBX 19 26 1 -3
BITMAP
0005555500
0060000100
01E0554100
07E0000100
0BE0000000
0BFFFFFFF4
09007FC004
2D006F8004
BD045F8104
FD046F8104
FD046F8104
FD046F8104
FD046F8104
FD046F8104
FD046F8104
FD046F8104
FD046F8104
FD042F8104
FD04050104
FD05000404
FE00555010
FF40000000
BFE4000640
7FFFFFF800
1FFFFFE000
01BFFA4000
ENDCHAR
STARTCHAR umacron
ENCODING 363
SWIDTH 846 0
DWIDTH 20 0
BBX 19 26 1 -3
BITMAP
0005555500
0060000100
01E0554100
07E0000100
0BE0000000
0BFFFFFFF4
09007FC004
2D006F8004
BD045F8104
FD046F8104
FD046F8104
FD046F8104
FD046F8104
FD046F8104
FD046F8104
FD046F8104
FD046F8104
FD042F8104
FD04050104
FD05000404
FE00555010
FF40000000
BFE4000640
7FFFFFF800
1FFFFFE000
01BFFA4000
ENDCHAR
STARTCHAR Ubreve
ENCODING 364
SWIDTH 846 0
DWIDTH 20 0
BBX 19 27 1 -3
BITMAP
0015505500
00A0120000
02E1001000
0BE0554100
0BF0000000
0BFD401000
0655BFD554
09007F8004
7D006B8004
FD045F8104
FD046F8104
FD046F8104
FD046F8104
FD046F8104
FD046F8104
FD046F8104
FD046F8104
FD046F8104
FD042F8104
FD04050104
FD05000404
FE00555010
FF80000050
BFE4000640
3FFFFFF800
1FFFFFE000
01BFFA4000
ENDCHAR
STARTCHAR ubreve
ENCODING 365
SWIDTH 846 0
DWIDTH 20 0
BBX 19 27 1 -3
BITMAP
0015505500
00A0120000
02E1001000
0BE0554100
0BF0000000
0BFD401000
0655BFD554
09007F8004
7D006B8004
FD045F8104
FD046F8104
FD046F8104
FD046F8104
FD046F8104
FD046F8104
FD046F8104
FD046F8104
FD046F8104
FD042F8104
FD04050104
FD05000404
FE00555010
FF80000050
BFE4000640
3FFFFFF800
1FFFFFE000
01BFFA4000
ENDCHAR
STARTCHAR Uring
ENCODING 366
SWIDTH 846 0
DWIDTH 20 0
BBX 19 31 1 -3
BITMAP
0001555000
0004554500
0061001100
01E11A0100
07E12F0000
0BE11F0000
0BE1001000
0BE0554000
0BF0000000
0BFD401000
0655BFD554
1D007F8004
7D005B8004
FD045F8104
FD046F8104
FD046F8104
FD046F8104
FD046F8104
FD046F8104
FD046F8104
FD046F8104
FD046F8104
FD046F8104
FD042E4104
FD05000404
FE00555010
FF80000050
BFE4000640
3FFFFFF800
1FFFFFE000
01BFFA4000
ENDCHAR
STARTCHAR uring
ENCODING 367
SWIDTH 846 0
DWIDTH 20 0
BBX 19 31 1 -3
BITMAP
0001555000
0004554500
0061001100
01E11A0100
07E12F0000
0BE11F0000
0BE1001000
0BE0554000
0BF0000000
0BFD401000
0655BFD554
1D007F8004
7D005B8004
FD045F8104
FD046F8104
FD046F8104
FD046F8104
FD046F8104
FD046F8104
FD046F8104
FD046F8104
FD046F8104
FD046F8104
FD042E4104
FD05000404
FE00555010
FF80000050
BFE4000640
3FFFFFF800
1FFFFFE000
01BFFA4000
ENDCHAR
STARTCHAR Uhungarumlaut
ENCODING 368
SWIDTH 846 0
DWIDTH 20 0
BBX 19 29 1 -3
BITMAP
0001541540
0008018010
0078068010
01F4478400
02F04B4400
02F00F0000
03E00F0000
07E01F0100
0BFFFFFFF4
09007FC004
2D006F8004
BD045F8104
FD046F8104
FD046F8104
FD046F8104
FD046F8104
FD046F8104
FD046F8104
FD046F8104
FD046F8104
FD042F8104
FD04050104
FD05000404
FE00555010
FF40000000
BFE4000640
7FFFFFF800
1FFFFFE000
01BFFA4000
ENDCHAR
STARTCHAR uhungarumlaut
ENCODING 369
SWIDTH 846 0
DWIDTH 20 0
BBX 19 29 1 -3
BITMAP
0001541540
0008018010
0078068010
01F4478400
02F04B4400
02F00F0000
03E00F0000
07E01F0100
0BFFFFFFF4
09007FC004
2D006F8004
BD045F8104
FD046F8104
FD046F8104
FD046F8104
FD046F8104
FD046F8104
FD046F8104
FD046F8104
FD046F8104
FD042F8104
FD04050104
FD05000404
FE00555010
FF40000000
BFE4000640
7FFFFFF800
1FFFFFE000
01BFFA4000
ENDCHAR
STARTCHAR Uogonek
ENCODING 370
SWIDTH 846 0
DWIDTH 20 0
BBX 19 26 1 -8
BITMAP
0155405554
1D00428004
7D004B8004
FD046F8104
FD046F8104
FD046F8104
FD046F8104
FD046F8104
FD046F8104
FD046F8104
FD046F8104
FD046F8104
FD042F8104
FD04000104
FD05000404
FE00555010
FF80040050
BFE5040640
7FFF847D00
1FFF441400
06FF450400
003F800400
003FD00400
003FFFE000
002FFF4000
000BFD0000
ENDCHAR
STARTCHAR uogonek
ENCODING 371
SWIDTH 846 0
DWIDTH 20 0
BBX 19 26 1 -8
BITMAP
0155405554
1D00428004
7D004B8004
FD046F8104
FD046F8104
FD046F8104
FD046F8104
FD046F8104
FD046F8104
FD046F8104
FD046F8104
FD046F8104
FD042F8104
FD04000104
FD05000404
FE00555010
FF80040050
BFE5040640
7FFF847D00
1FFF441400
06FF450400
003F800400
003FD00400
003FFFE000
002FFF4000
000BFD0000
ENDCHAR
STARTCHAR Wcircumflex
ENCODING 372
SWIDTH 931 0
DWIDTH 22 0
BBX 21 27 1 -3
BITMAP
000005400000
000150050000
000805504000
007800004000
01F806404000
02FDBFFE4000
0655BFFD5540
1D005BFC0040
BD0040BC0040
FD1041FC1040
FD1041FC1040
FD1041FC1040
FD1045BC1040
FD10601C1040
FD1050081040
FD1041441040
FD1004101040
FD1000101040
FD0411041040
FE0403441000
FF0447800100
FF4107C14100
BF800BC00000
7FC00FD00400
3FFFEFFFE000
2FFF4FFF8000
0FFD0BFE0000
ENDCHAR
STARTCHAR wcircumflex
ENCODING 373
SWIDTH 931 0
DWIDTH 22 0
BBX 21 27 1 -3
BITMAP
000005400000
000150050000
000805504000
007800004000
01F806404000
02FDBFFE4000
0655BFFD5540
1D005BFC0040
BD0040BC0040
FD1041FC1040
FD1041FC1040
FD1041FC1040
FD1045BC1040
FD10601C1040
FD1050081040
FD1041441040
FD1004101040
FD1000101040
FD0411041040
FE0403441000
FF0447800100
FF4107C14100
BF800BC00000
7FC00FD00400
3FFFEFFFE000
2FFF4FFF8000
0FFD0BFE0000
ENDCHAR
STARTCHAR Ycircumflex
ENCODING 374
SWIDTH 805 0
DWIDTH 19 0
BBX 19 27 0 -3
BITMAP
0000154000
0001401500
0014054040
00B4401040
02F4000040
03F46F9000
07517FE454
07002FD004
2F0017D004
7F041FD104
BF041FD104
BF041FD104
BF041FC104
BF010F8104
7F41070404
7FD0400010
7FE0101040
2FF8054000
0FFD010100
07FF010400
02FF410400
00FF410400
007F400400
003F400400
003FFFD000
003FFF4000
002FFD0000
ENDCHAR
STARTCHAR ycircumflex
ENCODING 375
SWIDTH 805 0
DWIDTH 19 0
BBX 19 27 0 -3
BITMAP
0000154000
0001401500
0014054040
00B4401040
02F4000040
03F46F9000
07517FE454
07002FD004
2F0017D004
7F041FD104
BF041FD104
BF041FD104
BF041FC104
BF010F8104
7F41070404
7FD0400010
7FE0101040
2FF8054000
0FFD010100
07FF010400
02FF410400
00FF410400
007F400400
003F400400
003FFFD000
003FFF4000
002FFD0000
ENDCHAR
STARTCHAR Ydieresis
ENCODING 376
SWIDTH 805 0
DWIDTH 19 0
BBX 19 26 0 -3
BITMAP
0015555540
0060060040
02E0460440
0BE0060040
0BE00B0000
0BFFFFFFF8
0B003FD004
0F002BD004
3F041BD104
7F041FD104
BF041FD104
BF041FC104
BF000F4104
BF41060400
7FC0400000
7FE0101000
3FF4054000
1FFD010100
07FF010400
02FF410400
00FF410400
007F400400
003F400400
003FFFD000
003FFF4000
002FFD0000
ENDCHAR
STARTCHAR Zacute
ENCODING 377
SWIDTH 760 0
DWIDTH 18 0
BBX 18 27 0 -3
BITMAP
0000056A00
000AA94000
0070015040
01F0500000
07F0000000
07F15AB800
0795555540
0740000010
1F40000010
3F41555010
3F40000410
3FFFE01010
3FFFD00040
2FFF404100
000A010100
0028040400
0070101000
00D0404000
0340010000
0B01015550
2F04000010
7F01555410
7F00000010
7F00000010
7FFFFFFF80
7FFFFFFE00
7FFFFFF800
ENDCHAR
STARTCHAR zacute
ENCODING 378
SWIDTH 760 0
DWIDTH 18 0
BBX 18 27 0 -3
BITMAP
0000056A00
000AA94000
0070015040
01F0500000
07F0000000
07F15AB800
0795555540
0740000010
1F40000010
3F41555010
3F40000410
3FFFE01010
3FFFD00040
2FFF404100
000A010100
0028040400
0070101000
00D0404000
0340010000
0B01015550
2F04000010
7F01555410
7F00000010
7F00000010
7FFFFFFF80
7FFFFFFE00
7FFFFFF800
ENDCHAR
STARTCHAR Zdotaccent
ENCODING 379
SWIDTH 760 0
DWIDTH 18 0
BBX 18 27 0 -3
BITMAP
0000555000
0006001000
001F001000
007F041000
007F001000
007F000000
0055555540
0740000010
1F40000010
3F41555010
3F40000410
3FFFE01010
3FFFD00040
2FFF404100
000A010100
0028040400
0070101000
00D0404000
0340010000
0B01015550
2F04000010
7F01555410
7F00000010
7F00000010
7FFFFFFF80
7FFFFFFE00
7FFFFFF800
ENDCHAR
STARTCHAR zdotaccent
ENCODING 380
SWIDTH 760 0
DWIDTH 18 0
BBX 18 27 0 -3
BITMAP
0000555000
0006001000
001F001000
007F041000
007F001000
007F000000
0055555540
0740000010
1F40000010
3F41555010
3F40000410
3FFFE01010
3FFFD00040
2FFF404100
000A010100
0028040400
0070101000
00D0404000
0340010000
0B01015550
2F04000010
7F01555410
7F00000010
7F00000010
7FFFFFFF80
7FFFFFFE00
7FFFFFF800
ENDCHAR
STARTCHAR Zcaron
ENCODING 381
SWIDTH 760 0
DWIDTH 18 0
BBX 18 27 0 -3
BITMAP
0000001500
0060154100
02E0000100
0BE0154100
0BF4000400
0BFF91A000
0B95555540
0340000010
0B40000010
3F41555010
3F40000410
3FFFE01010
3FFFD00040
3FFF404100
000A010100
0028040400
0070101000
00D0404000
0340010000
0B01015550
2F04000010
7F01555410
7F00000010
7F00000010
7FFFFFFF80
7FFFFFFE00
7FFFFFF800
ENDCHAR
STARTCHAR zcaron
ENCODING 382
SWIDTH 760 0
DWIDTH 18 0
BBX 18 27 0 -3
BITMAP
0000001500
0060154100
02E0000100
0BE0154100
0BF4000400
0BFF91A000
0B95555540
0340000010
0B40000010
3F41555010
3F40000410
3FFFE01010
3FFFD00040
3FFF404100
000A010100
0028040400
0070101000
00D0404000
0340010000
0B01015550
2F04000010
7F01555410
7F00000010
7F00000010
7FFFFFFF80
7FFFFFFE00
7FFFFFF800
ENDCHAR
STARTCHAR Schwa
ENCODING 399
SWIDTH 815 0
DWIDTH 20 0
BBX 19 21 0 -3
BITMAP
0015555540
0070000010
02F0555404
07F0000104
07F0000104
07FFFFD004
07FFFFE004
0740000004
0700000004
2F05555504
7F04000004
7F042FE004
7F041FD004
7F04000104
7F41000104
7F80555404
7FD0000010
3FF9000180
2FFFFFFE00
0BFFFFF400
01AFFE4000
ENDCHAR
STARTCHAR florin
ENCODING 402
SWIDTH 674 0
DWIDTH 16 0
BBX 16 21 0 -3
BITMAP
00001555
00004001
00060001
001D0141
007C0401
00FC1014
01FC10B4
02A81055
0B001001
2F055541
7F001001
BF001001
BFFC10B8
7FF81090
2B001040
1F054040
7F000100
BF001400
BFFFE000
7FFF4000
7FE80000
ENDCHAR
STARTCHAR Ohorn
ENCODING 416
SWIDTH 847 0
DWIDTH 20 0
BBX 21 23 0 -3
BITMAP
000000005540
000000024040
000155550440
001000001040
008000154100
074000020100
1F4000004100
2F041FD04100
3F041FE04100
7F041FE04100
7F041BE04100
7F041BE04100
7F041BE04100
7F041BE04100
7F041BE04100
7F410A904100
7F4100010000
7F8015540400
3FD000001000
3FF900018000
2FFFFFFE0000
0BFFFFF80000
01AFFE900000
ENDCHAR
STARTCHAR ohorn
ENCODING 417
SWIDTH 847 0
DWIDTH 20 0
BBX 21 23 0 -3
BITMAP
000000005540
000000024040
000155550440
001000001040
008000154100
074000020100
1F4000004100
2F041FD04100
3F041FE04100
7F041FE04100
7F041BE04100
7F041BE04100
7F041BE04100
7F041BE04100
7F041BE04100
7F410A904100
7F4100010000
7F8015540400
3FD000001000
3FF900018000
2FFFFFFE0000
0BFFFFF80000
01AFFE900000
ENDCHAR
STARTCHAR Uhorn
ENCODING 431
SWIDTH 856 0
DWIDTH 21 0
BBX 20 23 1 -3
BITMAP
0000000155
0000000901
0155405411
1D00428011
7D004B8145
FD046F8104
FD046F8104
FD046F8104
FD046F8104
FD046F8104
FD046F8104
FD046F8104
FD046F8104
FD046F8104
FD042F8104
FD04000104
FD05000404
FE00555010
FF80000050
BFE4000640
7FFFFFF800
1FFFFFE000
01BFFA4000
ENDCHAR
STARTCHAR uhorn
ENCODING 432
SWIDTH 856 0
DWIDTH 21 0
BBX 20 23 1 -3
BITMAP
0000000155
0000000901
0155405411
1D00428011
7D004B8145
FD046F8104
FD046F8104
FD046F8104
FD046F8104
FD046F8104
FD046F8104
FD046F8104
FD046F8104
FD046F8104
FD042F8104
FD04000104
FD05000404
FE00555010
FF80000050
BFE4000640
7FFFFFF800
1FFFFFE000
01BFFA4000
ENDCHAR
STARTCHAR Acaron
ENCODING 461
SWIDTH 830 0
DWIDTH 20 0
BBX 20 27 0 -3
BITMAP
0000000540
0024054040
00B4000040
02F8054040
03FD000000
03FFE46800
02FE555500
01BC000040
0028000040
00B4155000
01E0000010
02D0474410
03C00B8004
07810F8104
0B401FC004
1F40000004
2F04000041
3F05555541
3F04000041
7F04000041
7F042FE041
7F042FE041
7F002FE001
7F001BE000
7FFF8BFFF4
7FFE0BFFD0
3FF40BFF40
ENDCHAR
STARTCHAR acaron
ENCODING 462
SWIDTH 830 0
DWIDTH 20 0
BBX 20 27 0 -3
BITMAP
0000000540
0024054040
00B4000040
02F8054040
03FD000000
03FFE46800
02FE555500
01BC000040
0028000040
00B4155000
01E0000010
02D0474410
03C00B8004
07810F8104
0B401FC004
1F40000004
2F04000041
3F05555541
3F04000041
7F04000041
7F042FE041
7F042FE041
7F002FE001
7F001BE000
7FFF8BFFF4
7FFE0BFFD0
3FF40BFF40
ENDCHAR
STARTCHAR Icaron
ENCODING 463
SWIDTH 705 0
DWIDTH 17 0
BBX 17 27 0 -3
BITMAP
0000005400
01C0550100
07C1004100
1FC0550100
1FE4000000
1FFE419000
1F55555500
0700000040
1F00000040
3F05555040
7F00000040
7F94001500
7FFD007800
7FFD006000
15FD004000
00FD004000
00FD004000
00FD004000
00FD004000
00A8001500
0200000040
1F05555040
3F00000040
7F00000040
7FFFFFFD00
7FFFFFF400
3FFFFFD000
ENDCHAR
STARTCHAR icaron
ENCODING 464
SWIDTH 705 0
DWIDTH 17 0
BBX 17 27 0 -3
BITMAP
0000005400
01C0550100
07C1004100
1FC0550100
1FE4000000
1FFE419000
1F55555500
0700000040
1F00000040
3F05555040
7F00000040
7F94001500
7FFD007800
7FFD006000
15FD004000
00FD004000
00FD004000
00FD004000
00FD004000
00A8001500
0200000040
1F05555040
3F00000040
7F00000040
7FFFFFFD00
7FFFFFF400
3FFFFFD000
ENDCHAR
STARTCHAR Ocaron
ENCODING 465
SWIDTH 837 0
DWIDTH 20 0
BBX 20 27 0 -3
BITMAP
0009500540
0038055040
01F8000040
02F8054040
02FD000140
02FFE46D00
02FF955500
0064000010
0080155404
0741000104
1F41000041
2F041FD041
3F041FE041
7F041FE041
7F041BE041
7F041BE041
7F041BE041
7F041BE041
7F041BE041
7F410A9041
7F41000101
3F80155404
3FD0000014
2FF9000190
1FFFFFFF00
07FFFFF800
006FFE9000
ENDCHAR
STARTCHAR ocaron
ENCODING 466
SWIDTH 837 0
DWIDTH 20 0
BBX 20 27 0 -3
BITMAP
0009500540
0038055040
01F8000040
02F8054040
02FD000140
02FFE46D00
02FF955500
0064000010
0080155404
0741000104
1F41000041
2F041FD041
3F041FE041
7F041FE041
7F041BE041
7F041BE041
7F041BE041
7F041BE041
7F041BE041
7F410A9041
7F41000101
3F80155404
3FD0000014
2FF9000190
1FFFFFFF00
07FFFFF800
006FFE9000
ENDCHAR
STARTCHAR Ucaron
ENCODING 467
SWIDTH 846 0
DWIDTH 20 0
BBX 19 27 1 -3
BITMAP
002A401500
01E0154100
07E0000100
0BE0154100
0BF4000400
0BFF91A000
0655BFD554
1D00668004
7D004B8004
FD046F8104
FD046F8104
FD046F8104
FD046F8104
FD046F8104
FD046F8104
FD046F8104
FD046F8104
FD046F8104
FD042F8104
FD04000104
FD05000404
FE00555010
FF80000050
BFE4000640
3FFFFFF800
1FFFFFE000
01BFFA4000
ENDCHAR
STARTCHAR ucaron
ENCODING 468
SWIDTH 846 0
DWIDTH 20 0
BBX 19 27 1 -3
BITMAP
002A401500
01E0154100
07E0000100
0BE0154100
0BF4000400
0BFF91A000
0655BFD554
1D00668004
7D004B8004
FD046F8104
FD046F8104
FD046F8104
FD046F8104
FD046F8104
FD046F8104
FD046F8104
FD046F8104
FD046F8104
FD042F8104
FD04000104
FD05000404
FE00555010
FF80000050
BFE4000640
3FFFFFF800
1FFFFFE000
01BFFA4000
ENDCHAR
STARTCHAR Udieresismacron
ENCODING 469
SWIDTH 846 0
DWIDTH 20 0
BBX 19 32 1 -3
BITMAP
0005555500
0060000100
01E0000100
07E0554100
0BE0000100
0BFABFA900
0BD00D0040
0BC00D0040
0BC10D1040
1FC00D0040
1FD00D0000
1FFFFFFFF4
1D007FC004
2D006F8004
BD045F8104
FD046F8104
FD046F8104
FD046F8104
FD046F8104
FD046F8104
FD046F8104
FD046F8104
FD046F8104
FD042F8104
FD04050104
FD05000404
FE00555010
FF40000000
BFE4000640
3FFFFFF800
1FFFFFE000
01BFFA4000
ENDCHAR
STARTCHAR udieresismacron
ENCODING 470
SWIDTH 846 0
DWIDTH 20 0
BBX 19 32 1 -3
BITMAP
0005555500
0060000100
01E0000100
07E0554100
0BE0000100
0BFABFA900
0BD00D0040
0BC00D0040
0BC10D1040
1FC00D0040
1FD00D0000
1FFFFFFFF4
1D007FC004
2D006F8004
BD045F8104
FD046F8104
FD046F8104
FD046F8104
FD046F8104
FD046F8104
FD046F8104
FD046F8104
FD046F8104
FD042F8104
FD04050104
FD05000404
FE00555010
FF40000000
BFE4000640
3FFFFFF800
1FFFFFE000
01BFFA4000
ENDCHAR
STARTCHAR Udieresisacute
ENCODING 471
SWIDTH 846 0
DWIDTH 20 0
BBX 19 33 1 -3
BITMAP
0000005000
00002BA000
0000900000
0007C50000
001FC00000
001FC01000
001A9A5500
00800D0040
07C00D0040
0FC10D1040
1FC00D0040
1FD01D0000
1FFFFFFFF4
1D007FC004
7D006F8004
FD045F8104
FD046F8104
FD046F8104
FD046F8104
FD046F8104
FD046F8104
FD046F8104
FD046F8104
FD046F8104
FD042F8104
FD04050104
FD05000404
FE00555010
FF40000000
BFE4000640
3FFFFFF800
1FFFFFE000
01BFFA4000
ENDCHAR
STARTCHAR udieresisacute
ENCODING 472
SWIDTH 846 0
DWIDTH 20 0
BBX 19 33 1 -3
BITMAP
0000005000
00002BA000
0000900000
0007C50000
001FC00000
001FC01000
001A9A5500
00800D0040
07C00D0040
0FC10D1040
1FC00D0040
1FD01D0000
1FFFFFFFF4
1D007FC004
7D006F8004
FD045F8104
FD046F8104
FD046F8104
FD046F8104
FD046F8104
FD046F8104
FD046F8104
FD046F8104
FD046F8104
FD042F8104
FD04050104
FD05000404
FE00555010
FF40000000
BFE4000640
3FFFFFF800
1FFFFFE000
01BFFA4000
ENDCHAR
STARTCHAR Udieresiscaron
ENCODING 473
SWIDTH 846 0
DWIDTH 20 0
BBX 19 33 1 -3
BITMAP
0010001500
0060154100
02E0000100
0BE0405100
0BF4150500
0BFF906400
0BEAAF9500
07C00D0040
02C00D0040
0BC10D1040
1FC00D0040
1FD01D0000
1FFFFFFFF4
1D007FC004
3D006F8004
FD045F8104
FD046F8104
FD046F8104
FD046F8104
FD046F8104
FD046F8104
FD046F8104
FD046F8104
FD046F8104
FD042F8104
FD04050104
FD05000404
FE00555010
FF40000000
BFE4000640
3FFFFFF800
1FFFFFE000
01BFFA4000
ENDCHAR
STARTCHAR udieresiscaron
ENCODING 474
SWIDTH 846 0
DWIDTH 20 0
BBX 19 33 1 -3
BITMAP
0010001500
0060154100
02E0000100
0BE0405100
0BF4150500
0BFF906400
0BEAAF9500
07C00D0040
02C00D0040
0BC10D1040
1FC00D0040
1FD01D0000
1FFFFFFFF4
1D007FC004
3D006F8004
FD045F8104
FD046F8104
FD046F8104
FD046F8104
FD046F8104
FD046F8104
FD046F8104
FD046F8104
FD046F8104
FD042F8104
FD04050104
FD05000404
FE00555010
FF40000000
BFE4000640
3FFFFFF800
1FFFFFE000
01BFFA4000
ENDCHAR
STARTCHAR Udieresisgrave
ENCODING 475
SWIDTH 846 0
DWIDTH 20 0
BBX 19 33 1 -3
BITMAP
0000500000
0002AE4000
001F018000
007F040000
007F000000
007F400000
006AAE1500
00800D0040
03C00D0040
0FC10D1040
1FC00D0040
1FD01D0000
1FFFFFFFF4
1D007FC004
7D006F8004
FD045F8104
FD046F8104
FD046F8104
FD046F8104
FD046F8104
FD046F8104
FD046F8104
FD046F8104
FD046F8104
FD042F8104
FD04050104
FD05000404
FE00555010
FF40000000
BFE4000640
3FFFFFF800
1FFFFFE000
01BFFA4000
ENDCHAR
STARTCHAR udieresisgrave
ENCODING 476
SWIDTH 846 0
DWIDTH 20 0
BBX 19 33 1 -3
BITMAP
0000500000
0002AE4000
001F018000
007F040000
007F000000
007F400000
006AAE1500
00800D0040
03C00D0040
0FC10D1040
1FC00D0040
1FD01D0000
1FFFFFFFF4
1D007FC004
7D006F8004
FD045F8104
FD046F8104
FD046F8104
FD046F8104
FD046F8104
FD046F8104
FD046F8104
FD046F8104
FD046F8104
FD042F8104
FD04050104
FD05000404
FE00555010
FF40000000
BFE4000640
3FFFFFF800
1FFFFFE000
01BFFA4000
ENDCHAR
STARTCHAR Gcaron
ENCODING 486
SWIDTH 808 0
DWIDTH 19 0
BBX 19 27 0 -3
BITMAP
0000001540
0024054040
00F4000040
03F4154040
03F9000000
03FFE06400
03FE555540
01A0000000
0040000000
0240555400
0B41000000
2F000BFE40
3F041FFD00
3F041FE000
7F04101554
7F04108004
7F0417C004
7F041FC104
7F041FC104
7F40054104
7F41000104
3F80555504
3FD0000004
2FF9000004
1FFFFFFFE0
07FFFFFF80
01BFFFFE00
ENDCHAR
STARTCHAR gcaron
ENCODING 487
SWIDTH 808 0
DWIDTH 19 0
BBX 19 27 0 -3
BITMAP
0000001540
0024054040
00F4000040
03F4154040
03F9000000
03FFE06400
03FE555540
01A0000000
0040000000
0240555400
0B41000000
2F000BFE40
3F041FFD00
3F041FE000
7F04101554
7F04108004
7F0417C004
7F041FC104
7F041FC104
7F40054104
7F41000104
3F80555504
3FD0000004
2FF9000004
1FFFFFFFE0
07FFFFFF80
01BFFFFE00
ENDCHAR
STARTCHAR Scommaaccent
ENCODING 536
SWIDTH 750 0
DWIDTH 18 0
BBX 18 30 0 -12
BITMAP
0005555540
0050000040
0140000040
0B00555040
2F01000040
3F041FFE00
7F041AF800
7F04000500
7F01000040
7F80154010
7FE0000410
3FFFA50410
2FFFFF0410
0755540410
0700000410
2F05555000
7F00000000
7F00000500
7FFFFFF400
7FFF401000
7FFF001000
002F051000
007F005000
007F005000
007FF91000
007F451000
002F954000
003FFD0000
003FF00000
0015400000
ENDCHAR
STARTCHAR scommaaccent
ENCODING 537
SWIDTH 750 0
DWIDTH 18 0
BBX 18 30 0 -12
BITMAP
0005555540
0050000040
0140000040
0B00555040
2F01000040
3F041FFE00
7F041AF800
7F04000500
7F01000040
7F80154010
7FE0000410
3FFFA50410
2FFFFF0410
0755540410
0700000410
2F05555000
7F00000000
7F00000500
7FFFFFF400
7FFF401000
7FFF001000
002F051000
007F005000
007F005000
007FF91000
007F451000
002F954000
003FFD0000
003FF00000
0015400000
ENDCHAR
STARTCHAR uni021A
ENCODING 538
SWIDTH 756 0
DWIDTH 18 0
BBX 18 30 0 -12
BITMAP
0155555550
0900000010
7D00000010
BD05555510
FE00040010
FFFE041F90
FFFE042F40
BFFE042800
00BE041000
00BE041000
00BE041000
00BE041000
00BE041000
00BE041000
00BE041000
00BE041000
00BE001000
00BF001000
00BFFF8000
00BF001000
007F001000
002F151000
007F011000
007F011000
007FF91000
007F540000
002F554000
003FFD0000
007FE00000
0015400000
ENDCHAR
STARTCHAR uni021B
ENCODING 539
SWIDTH 756 0
DWIDTH 18 0
BBX 18 30 0 -12
BITMAP
0155555550
0900000010
7D00000010
BD05555510
FE00040010
FFFE041F90
FFFE042F40
BFFE042800
00BE041000
00BE041000
00BE041000
00BE041000
00BE041000
00BE041000
00BE041000
00BE041000
00BE001000
00BF001000
00BFFF8000
00BF001000
007F001000
002F151000
007F011000
007F011000
007FF91000
007F540000
002F554000
003FFD0000
007FE00000
0015400000
ENDCHAR
STARTCHAR dotlessj
ENCODING 567
SWIDTH 788 0
DWIDTH 19 0
BBX 18 21 0 -3
BITMAP
0000005550
0000074010
00001F4010
00003F4010
00003F4010
00003F4010
00003F4010
00003F4010
00557F4010
06003F4010
1E003F4010
7E043F4010
BE043F0410
BE04040410
BF01000410
BF40554010
7F80000040
7FF5000500
2FFFFFF800
0BFFFFD000
01BFF90000
ENDCHAR
STARTCHAR ascript
ENCODING 593
SWIDTH 846 0
DWIDTH 20 0
BBX 20 21 0 -3
BITMAP
0001555540
0010000010
0080155004
0341000104
0F41000040
2F041FD041
3F041FE041
3F041FE041
7F041FE041
7F041BE041
7F041BE041
7F041BE041
7F041BE041
7F41055041
7F41000041
7F80555541
3FD0000001
3FF9000001
2FFFFFFFF4
0BFFFFFFD0
01BFFFFF40
ENDCHAR
STARTCHAR schwa
ENCODING 601
SWIDTH 815 0
DWIDTH 20 0
BBX 19 21 0 -3
BITMAP
0015555540
0070000010
02F0555404
07F0000104
07F0000104
07FFFFD004
07FFFFE004
0740000004
0700000004
2F05555504
7F04000004
7F042FE004
7F041FD004
7F04000104
7F41000104
7F80555404
7FD0000010
3FF9000180
2FFFFFFE00
0BFFFFF400
01AFFE4000
ENDCHAR
STARTCHAR gscript
ENCODING 609
SWIDTH 815 0
DWIDTH 20 0
BBX 19 22 0 -4
BITMAP
0005555500
0010000010
0080555404
0741000104
1F04000104
3F041FC004
7F042FD004
7F042FD004
7F04054004
7F01000004
7F40555504
7FD0000004
3FF9000004
2FFFFFD004
1FFFFFC004
01B0000104
00B0000104
03F0555410
07F0000040
07FFFFFE00
07FFFFF800
07FFFF9000
ENDCHAR
STARTCHAR commaturnedmod
ENCODING 699
SWIDTH 600 0
DWIDTH 14 0
BBX 10 11 2 7
BITMAP
001550
014510
071780
1F1010
3F1010
7F1510
7F0010
7F0010
7FFF80
7FFE00
2FF400
ENDCHAR
STARTCHAR apostrophemod
ENCODING 700
SWIDTH 600 0
DWIDTH 14 0
BBX 10 12 2 6
BITMAP
005550
020010
1F0010
3F0510
7F0050
7F0010
7FF910
7F4500
2F9540
3FFD00
3FF400
2A4000
ENDCHAR
STARTCHAR ringhalfright
ENCODING 702
SWIDTH 412 0
DWIDTH 10 0
BBX 10 11 0 7
BITMAP
015540
1E0410
7E0110
BFE110
BFF110
6E5110
1E0410
7E0040
BFFF40
BFF800
BFE000
ENDCHAR
STARTCHAR ringhalfleft
ENCODING 703
SWIDTH 412 0
DWIDTH 10 0
BBX 10 11 0 7
BITMAP
005550
020510
1E1010
7E12D0
BE1240
BE1150
BE0510
BF4010
BFFFD0
BFFF40
2FF800
ENDCHAR
STARTCHAR circumflex
ENCODING 710
SWIDTH 600 0
DWIDTH 14 0
BBX 14 9 0 15
BITMAP
00015000
00540140
02015410
0A040010
7E015010
BF6FFE50
BFFFFFD0
BF9BFE00
64005400
ENDCHAR
STARTCHAR caron
ENCODING 711
SWIDTH 600 0
DWIDTH 14 0
BBX 14 9 0 15
BITMAP
00000150
06015410
2E000010
7E015410
BF400050
BFF90B40
BFFFFD00
2FFFE400
01B90000
ENDCHAR
STARTCHAR verticallinemod
ENCODING 712
SWIDTH 456 0
DWIDTH 11 0
BBX 9 12 1 6
BITMAP
055540
1D0000
7D0000
FD0000
FD0000
FD0000
FD0000
FD0000
FD0040
FFFF40
FFFD00
FFE000
ENDCHAR
STARTCHAR firsttonechinese
ENCODING 713
SWIDTH 600 0
DWIDTH 14 0
BBX 14 8 0 15
BITMAP
00555550
06000010
1E000010
7E055410
BE000010
BFFFFFC0
BFFFFE00
7FFFF800
ENDCHAR
STARTCHAR secondtonechinese
ENCODING 714
SWIDTH 600 0
DWIDTH 14 0
BBX 14 9 0 15
BITMAP
00000040
00555410
02000010
0E055410
7E000010
BF15AB80
BFFFFE00
BFFFE400
6A500000
ENDCHAR
STARTCHAR fourthtonechinese
ENCODING 715
SWIDTH 600 0
DWIDTH 14 0
BBX 14 9 0 15
BITMAP
00500000
02055540
1E000010
7E055410
BF000010
BFFEA510
BFFFFFD0
6FFFFE00
0015A800
ENDCHAR
STARTCHAR verticallinelowmod
ENCODING 716
SWIDTH 456 0
DWIDTH 11 0
BBX 9 12 1 -6
BITMAP
055540
1D0000
7D0000
FD0000
FD0000
FD0000
FD0000
FD0000
FD0040
FFFF40
FFFD00
FFE000
ENDCHAR
STARTCHAR breve
ENCODING 728
SWIDTH 600 0
DWIDTH 14 0
BBX 15 9 0 15
BITMAP
01550550
06012404
2E01A004
BE100110
BF055410
BFD40140
BFFFFE00
3FFFF800
0AFF9000
ENDCHAR
STARTCHAR dotaccent
ENCODING 729
SWIDTH 600 0
DWIDTH 14 0
BBX 10 8 2 15
BITMAP
005550
030010
1F0410
7F0010
7F4010
7FFFD0
7FFE00
2FF400
ENDCHAR
STARTCHAR ring
ENCODING 730
SWIDTH 600 0
DWIDTH 14 0
BBX 15 13 0 15
BITMAP
00055500
00400050
02055410
0E100100
3E11F004
BE12F444
BE11A004
BE100110
BF055410
BFD40140
BFFFFE00
3FFFF400
0AFF9000
ENDCHAR
STARTCHAR ogonek
ENCODING 731
SWIDTH 600 0
DWIDTH 14 0
BBX 11 10 2 -8
BITMAP
005540
024440
0B4440
2F0450
3F0504
3F4004
7F9004
7FFFD0
3FFF40
1BF900
ENDCHAR
STARTCHAR tilde
ENCODING 732
SWIDTH 600 0
DWIDTH 14 0
BBX 14 8 0 15
BITMAP
00400000
02000010
1E055410
7E000010
BE555050
BFFFFF80
BFFFFD00
69ABE400
ENDCHAR
STARTCHAR hungarumlaut
ENCODING 733
SWIDTH 600 0
DWIDTH 14 0
BBX 16 10 -1 15
BITMAP
00154155
00801901
07803C01
1F447840
2F44B444
2F00F004
3E01F004
7FFFFFE0
BFF7FF40
7F87F900
ENDCHAR
STARTCHAR gravecmb
ENCODING 768
SWIDTH 100 0
DWIDTH 2 0
BBX 14 9 -6 15
BITMAP
00500000
02055540
1E000010
7E055410
BF000010
BFFEA510
BFFFFFD0
6FFFFE00
0015A800
ENDCHAR
STARTCHAR acutecmb
ENCODING 769
SWIDTH 100 0
DWIDTH 2 0
BBX 14 9 -6 15
BITMAP
00000040
00555410
02000010
0E055410
7E000010
BF15AB80
BFFFFE00
BFFFE400
6A500000
ENDCHAR
STARTCHAR circumflexcmb
ENCODING 770
SWIDTH 100 0
DWIDTH 2 0
BBX 14 9 -6 15
BITMAP
00015000
00540140
02015410
0A040010
7E015010
BF6FFE50
BFFFFFD0
BF9BFE00
64005400
ENDCHAR
STARTCHAR tildecmb
ENCODING 771
SWIDTH 100 0
DWIDTH 2 0
BBX 14 8 -6 15
BITMAP
00400000
02000010
0E055410
7E000010
BF555050
BFFFFF80
BFFFFD00
79ABE400
ENDCHAR
STARTCHAR uni0304
ENCODING 772
SWIDTH 600 0
DWIDTH 14 0
BBX 14 8 0 15
BITMAP
00555550
06000010
1E000010
7E055410
BE000010
BFFFFFC0
BFFFFE00
7FFFF800
ENDCHAR
STARTCHAR brevecmb
ENCODING 774
SWIDTH 100 0
DWIDTH 2 0
BBX 15 9 -6 15
BITMAP
01550550
06012404
2E01A004
BE100110
BF055410
BFD40140
BFFFFE00
3FFFF800
0AFF9000
ENDCHAR
STARTCHAR dotaccentcmb
ENCODING 775
SWIDTH 100 0
DWIDTH 2 0
BBX 10 8 -4 15
BITMAP
005550
070010
1F0410
7F0010
7F0010
7FFFC0
7FFE00
2FF400
ENDCHAR
STARTCHAR dieresiscmb
ENCODING 776
SWIDTH 100 0
DWIDTH 2 0
BBX 15 8 -6 15
BITMAP
01551550
09009004
3D10D104
FD00D004
FD00E004
FFFFFFE0
FFFFFF80
BF9BFD00
ENDCHAR
STARTCHAR hookcmb
ENCODING 777
SWIDTH 100 0
DWIDTH 2 0
BBX 12 10 -4 15
BITMAP
015550
071544
2F5411
7FFA11
7FC051
2BC004
1FE6A0
1FFF80
0FFD00
054000
ENDCHAR
STARTCHAR ringcmb
ENCODING 778
SWIDTH 100 0
DWIDTH 2 0
BBX 15 13 -6 15
BITMAP
00055500
00400050
02055410
0E100100
3E11F004
BE12F444
BE11A004
BE100110
BF055410
BFD40140
BFFFFE00
3FFFF400
0AFF9000
ENDCHAR
STARTCHAR hungarumlautcmb
ENCODING 779
SWIDTH 100 0
DWIDTH 2 0
BBX 16 10 -6 15
BITMAP
00154155
00801801
07803C01
1F447844
2F04B444
2F00F004
3E01F004
7FFFFFD0
BFF7FF40
7F87F900
ENDCHAR
STARTCHAR caroncmb
ENCODING 780
SWIDTH 100 0
DWIDTH 2 0
BBX 14 9 -6 15
BITMAP
00000150
06015410
2E000010
7E015410
BF400050
BFF90B40
BFFFFD00
2FFFE400
01B90000
ENDCHAR
STARTCHAR horncmb
ENCODING 795
SWIDTH 100 0
DWIDTH 2 0
BBX 10 9 -4 11
BITMAP
005540
018010
0B0410
1E0440
3E1040
BE5500
BFF400
BF8000
550000
ENDCHAR
STARTCHAR dotbelowcmb
ENCODING 803
SWIDTH 100 0
DWIDTH 2 0
BBX 10 8 -4 -9
BITMAP
005550
070010
1F0410
7F0010
7F0010
7FFFC0
7FFE00
2FF400
ENDCHAR
STARTCHAR dieresisbelowcmb
ENCODING 804
SWIDTH 100 0
DWIDTH 2 0
BBX 15 8 -6 -9
BITMAP
01551550
09009004
3D10D104
FD00D004
FD00E004
FFFFFFE0
FFFFFF80
BF9BFD00
ENDCHAR
STARTCHAR commaaccent
ENCODING 806
SWIDTH 600 0
DWIDTH 14 0
BBX 10 12 2 -12
BITMAP
005550
020010
1F0010
3F0510
7F0050
7F0010
7FF910
7F4500
2F9540
3FFD00
3FF400
2A4000
ENDCHAR
STARTCHAR cedillacmb
ENCODING 807
SWIDTH 100 0
DWIDTH 2 0
BBX 10 10 -4 -6
BITMAP
001540
01C010
078110
0F4410
1F0410
2E0040
3D0040
7FFE00
BFF400
FFD000
ENDCHAR
STARTCHAR ogonekcmb
ENCODING 808
SWIDTH 100 0
DWIDTH 2 0
BBX 10 10 -3 -8
BITMAP
015540
071040
1E1100
7E1150
7E1410
BE0010
BF4010
BFFF80
BFFE00
2FF800
ENDCHAR
STARTCHAR brevebelowcmb
ENCODING 814
SWIDTH 100 0
DWIDTH 2 0
BBX 15 9 -6 -9
BITMAP
01550550
06012404
2E01A004
BE100110
BF055410
BFD40140
BFFFFE00
3FFFF800
0AFF9000
ENDCHAR
STARTCHAR macronbelowcmb
ENCODING 817
SWIDTH 100 0
DWIDTH 2 0
BBX 14 8 -6 -8
BITMAP
00555550
06000010
1E000010
7E055410
BF000010
BFFFFFC0
BFFFFE00
7FFFF800
ENDCHAR
STARTCHAR uni0394
ENCODING 916
SWIDTH 830 0
DWIDTH 20 0
BBX 20 21 0 -3
BITMAP
0001555500
0008000040
0028000040
00F4155040
02F0400400
02F0410410
03E0474410
07D10B4010
0BC10B8104
0FC10FC104
0F811FC104
1F441FD004
2F442FE044
3F04155041
3F04000041
7F05555541
7F00000001
7F40000004
7FFFFFFFF4
7FFFFFFFD0
2FFFFFFE00
ENDCHAR
STARTCHAR uni03A9
ENCODING 937
SWIDTH 877 0
DWIDTH 21 0
BBX 21 21 0 -3
BITMAP
000155554000
000400001400
005005500400
01C040010100
0B8100004100
1F810BE04100
2F810FF04100
2F810FF04100
2F810BF04100
2F8107F04100
2F8107F04100
2F8107F04100
2FC107F04100
2F8107E04140
2E0042810040
2E0552855040
BE0002800040
BE0002C00040
BFFFFFFFFE00
BFFFFFFFF800
7FFF5FFFD000
ENDCHAR
STARTCHAR uni03BC
ENCODING 956
SWIDTH 813 0
DWIDTH 20 0
BBX 18 20 1 -5
BITMAP
0155405550
0900424010
2D004B0010
FD006F0410
FD007F0410
FD007F0410
FD007F0410
FD007F0410
FD007F0410
FD007F0410
FD04150410
FD04001010
FD00554010
FD00000040
FD00001A00
FD007FF400
FD00BFD000
FFFFF90000
FFF8000000
FFE0000000
ENDCHAR
STARTCHAR pi
ENCODING 960
SWIDTH 821 0
DWIDTH 20 0
BBX 18 17 1 -3
BITMAP
0155555550
1D00000010
7D05555410
FD00000410
FD00000410
FD007F0410
FD007F0410
FD007F0410
FD007F0410
FD007F0410
FD007F0410
FD007F0410
FD007F0010
FD007F4010
FFFF7FFF80
FFF87FFE00
BFE02FF800
ENDCHAR
STARTCHAR Ddotbelow
ENCODING 7692
SWIDTH 846 0
DWIDTH 20 0
BBX 19 27 1 -9
BITMAP
0155555500
0900000050
7D00000010
FD05555004
FD04000404
FD04150104
FD043F8104
FD043FC104
FD043FC104
FD042FC104
FD042FC104
FD042FC104
FD042F8104
FD041A4104
FD04000504
FD05555010
FD00000010
FE00000540
FFFFFFFD00
FFFF002400
BFFF001000
002F041000
007F001000
007F001000
007FFF8000
007FFE0000
002FF40000
ENDCHAR
STARTCHAR ddotbelow
ENCODING 7693
SWIDTH 846 0
DWIDTH 20 0
BBX 19 27 1 -9
BITMAP
0155555500
0900000050
7D00000010
FD05555004
FD04000404
FD04150104
FD043F8104
FD043FC104
FD043FC104
FD042FC104
FD042FC104
FD042FC104
FD042F8104
FD041A4104
FD04000504
FD05555010
FD00000010
FE00000540
FFFFFFFD00
FFFF002400
BFFF001000
002F041000
007F001000
007F001000
007FFF8000
007FFE0000
002FF40000
ENDCHAR
STARTCHAR Dlinebelow
ENCODING 7694
SWIDTH 846 0
DWIDTH 20 0
BBX 19 26 1 -8
BITMAP
0155555500
0900000050
7D00000010
FD05555004
FD04000404
FD04150104
FD043F8104
FD043FC104
FD043FC104
FD042FC104
FD042FC104
FD042FC104
FD042F8104
FD041A4104
FD04000504
FD05555010
FD00000010
FE00000640
FFFFFFFD00
FFE5555500
BFE0000100
02E0554100
0BE0000100
0BFFFFF900
0BFFFFE000
0BFFFF8000
ENDCHAR
STARTCHAR dlinebelow
ENCODING 7695
SWIDTH 846 0
DWIDTH 20 0
BBX 19 26 1 -8
BITMAP
0155555500
0900000050
7D00000010
FD05555004
FD04000404
FD04150104
FD043F8104
FD043FC104
FD043FC104
FD042FC104
FD042FC104
FD042FC104
FD042F8104
FD041A4104
FD04000504
FD05555010
FD00000010
FE00000640
FFFFFFFD00
FFE5555500
BFE0000100
02E0554100
0BE0000100
0BFFFFF900
0BFFFFE000
0BFFFF8000
ENDCHAR
STARTCHAR Gmacron
ENCODING 7712
SWIDTH 808 0
DWIDTH 19 0
BBX 19 26 0 -3
BITMAP
0001555540
0008000000
007C155400
00FC000000
01FC000000
01FFFFFFC0
01F9000040
01D0000000
0180555400
0741000000
1F400BFE40
3F041FFD00
3F041FE000
7F04101554
7F04108004
7F0417C004
7F041FC104
7F041FC104
7F40054104
7F41000104
3F80555504
3FD0000004
2FF8000004
1FFFFFFFE0
0BFFFFFF80
01BFFFFE00
ENDCHAR
STARTCHAR gmacron
ENCODING 7713
SWIDTH 808 0
DWIDTH 19 0
BBX 19 26 0 -3
BITMAP
0001555540
0008000000
007C155400
00FC000000
01FC000000
01FFFFFFC0
01F9000040
01D0000000
0180555400
0741000000
1F400BFE40
3F041FFD00
3F041FE000
7F04101554
7F04108004
7F0417C004
7F041FC104
7F041FC104
7F40054104
7F41000104
3F80555504
3FD0000004
2FF8000004
1FFFFFFFE0
0BFFFFFF80
01BFFFFE00
ENDCHAR
STARTCHAR Hdotbelow
ENCODING 7716
SWIDTH 859 0
DWIDTH 21 0
BBX 19 27 1 -9
BITMAP
0155405554
090001C004
7D000BC004
FD041FC104
FD042FC104
FD042FC104
FD041A8104
FD04000104
FD04000104
FD05555504
FD04000104
FD04000104
FD043FC104
FD043FC104
FD043FC104
FD042FC104
FD002FC004
FE006FC004
FFFF9AAFE0
FFFF001F80
BFFF001D00
003F041000
007F001000
007F401000
007FFF8000
007FFE0000
002FF80000
ENDCHAR
STARTCHAR hdotbelow
ENCODING 7717
SWIDTH 859 0
DWIDTH 21 0
BBX 19 27 1 -9
BITMAP
0155405554
090001C004
7D000BC004
FD041FC104
FD042FC104
FD042FC104
FD041A8104
FD04000104
FD04000104
FD05555504
FD04000104
FD04000104
FD043FC104
FD043FC104
FD043FC104
FD042FC104
FD002FC004
FE006FC004
FFFF9AAFE0
FFFF001F80
BFFF001D00
003F041000
007F001000
007F401000
007FFF8000
007FFE0000
002FF80000
ENDCHAR
STARTCHAR Hbrevebelow
ENCODING 7722
SWIDTH 859 0
DWIDTH 21 0
BBX 19 27 1 -9
BITMAP
0155405554
090001C004
7D000BC004
FD041FC104
FD042FC104
FD042FC104
FD041A8104
FD04000104
FD04000104
FD05555504
FD04000104
FD04000104
FD043FC104
FD043FC104
FD043FC104
FD042FC104
FD002FC004
FE555FD554
FFFA6FAAD0
FFE01F4040
BFE01F4040
03E1000440
0BF4554100
0BFD000400
0BFFFFE000
03FFFF8000
00AFF90000
ENDCHAR
STARTCHAR hbrevebelow
ENCODING 7723
SWIDTH 859 0
DWIDTH 21 0
BBX 19 27 1 -9
BITMAP
0155405554
090001C004
7D000BC004
FD041FC104
FD042FC104
FD042FC104
FD041A8104
FD04000104
FD04000104
FD05555504
FD04000104
FD04000104
FD043FC104
FD043FC104
FD043FC104
FD042FC104
FD002FC004
FE555FD554
FFFA6FAAD0
FFE01F4040
BFE01F4040
03E1000440
0BF4554100
0BFD000400
0BFFFFE000
03FFFF8000
00AFF90000
ENDCHAR
STARTCHAR Ldotbelow
ENCODING 7734
SWIDTH 795 0
DWIDTH 19 0
BBX 18 27 1 -9
BITMAP
0155400000
0900000000
7D00000000
FD04000000
FD04000000
FD04000000
FD04000000
FD04000000
FD04005540
FD04024010
FD041F0010
FD043F0410
FD043F0410
FD04150410
FD04000410
FD05555410
FD00000010
FE00000010
FFFFFFFF80
FFFE003E00
BFFE002400
003E041000
00BE001000
00BE001000
00BFFF8000
00BFFD0000
007FE40000
ENDCHAR
STARTCHAR ldotbelow
ENCODING 7735
SWIDTH 795 0
DWIDTH 19 0
BBX 18 27 1 -9
BITMAP
0155400000
0900000000
7D00000000
FD04000000
FD04000000
FD04000000
FD04000000
FD04000000
FD04005540
FD04024010
FD041F0010
FD043F0410
FD043F0410
FD04150410
FD04000410
FD05555410
FD00000010
FE00000010
FFFFFFFF80
FFFE003E00
BFFE002400
003E041000
00BE001000
00BE001000
00BFFF8000
00BFFD0000
007FE40000
ENDCHAR
STARTCHAR Ldotbelowmacron
ENCODING 7736
SWIDTH 795 0
DWIDTH 19 0
BBX 18 32 1 -9
BITMAP
0015555400
0080000100
03C1554100
0FC0000100
1FD0000000
1FFFFFF400
1E007FD000
2D002A0000
BD04000000
FD04000000
FD04000000
FD04000000
FD04000000
FD04005540
FD04024010
FD041F0010
FD043F0410
FD043F0410
FD04150410
FD04000410
FD05555410
FD00000010
FE00000010
FFFFFFFF80
FFFE003E00
BFFE002400
003E041000
00BE001000
00BE001000
00BFFF8000
00BFFD0000
007FE40000
ENDCHAR
STARTCHAR ldotbelowmacron
ENCODING 7737
SWIDTH 795 0
DWIDTH 19 0
BBX 18 32 1 -9
BITMAP
0015555400
0080000100
03C1554100
0FC0000100
1FD0000000
1FFFFFF400
1E007FD000
2D002A0000
BD04000000
FD04000000
FD04000000
FD04000000
FD04000000
FD04005540
FD04024010
FD041F0010
FD043F0410
FD043F0410
FD04150410
FD04000410
FD05555410
FD00000010
FE00000010
FFFFFFFF80
FFFE003E00
BFFE002400
003E041000
00BE001000
00BE001000
00BFFF8000
00BFFD0000
007FE40000
ENDCHAR
STARTCHAR Llinebelow
ENCODING 7738
SWIDTH 795 0
DWIDTH 19 0
BBX 18 26 1 -8
BITMAP
0155400000
0900000000
7D00000000
FD04000000
FD04000000
FD04000000
FD04000000
FD04000000
FD04005540
FD04024010
FD041F0010
FD043F0410
FD043F0410
FD04150410
FD04000410
FD05555410
FD00000010
FE00000010
FFFFFFFF80
FFD0000200
BFC1554100
0BC0000100
1FD0000100
1FFFFFF400
1FFFFFD000
0BFFFE4000
ENDCHAR
STARTCHAR llinebelow
ENCODING 7739
SWIDTH 795 0
DWIDTH 19 0
BBX 18 26 1 -8
BITMAP
0155400000
0900000000
7D00000000
FD04000000
FD04000000
FD04000000
FD04000000
FD04000000
FD04005540
FD04024010
FD041F0010
FD043F0410
FD043F0410
FD04150410
FD04000410
FD05555410
FD00000010
FE00000010
FFFFFFFF80
FFD0000200
BFC1554100
0BC0000100
1FD0000100
1FFFFFF400
1FFFFFD000
0BFFFE4000
ENDCHAR
STARTCHAR Mdotbelow
ENCODING 7746
SWIDTH 949 0
DWIDTH 23 0
BBX 21 27 1 -9
BITMAP
015540055540
090010140040
7D0000700040
FD0501D05040
FD0442C11040
FD0441441040
FD0410001040
FD0404101040
FD0401401040
FD0450081040
FD04600C1040
FD04782C1040
FD047FFC1040
FD047EFC1040
FD0475FC1040
FD0441FC1040
FD0041FC0040
FE0041FC0040
FFFE55AFFE00
FFFC9007F800
BFE2D007E000
000BD1040000
000FD0040000
000FD0040000
000FFFF00000
000FFF800000
000BFE000000
ENDCHAR
STARTCHAR mdotbelow
ENCODING 7747
SWIDTH 949 0
DWIDTH 23 0
BBX 21 27 1 -9
BITMAP
015540055540
090010140040
7D0000700040
FD0501D05040
FD0442C11040
FD0441441040
FD0410001040
FD0404101040
FD0401401040
FD0450081040
FD04600C1040
FD04782C1040
FD047FFC1040
FD047EFC1040
FD0475FC1040
FD0441FC1040
FD0041FC0040
FE0041FC0040
FFFE55AFFE00
FFFC9007F800
BFE2D007E000
000BD1040000
000FD0040000
000FD0040000
000FFFF00000
000FFF800000
000BFE000000
ENDCHAR
STARTCHAR Ndotaccent
ENCODING 7748
SWIDTH 853 0
DWIDTH 20 0
BBX 19 27 1 -3
BITMAP
0000555000
0002001000
001F001000
003F041000
007F001000
007F401000
0155FFD554
09007FC004
7D002BC004
FD040BC104
FD0503C104
FD04418104
FD04104104
FD04040104
FD04010104
FD04004104
FD04604104
FD04781104
FD047D0504
FD047F4104
FD047F8104
FD047FC104
FD007FC004
FE005FC004
FFFE5FFFD0
FFFD1FFF40
BFE01FFD00
ENDCHAR
STARTCHAR ndotaccent
ENCODING 7749
SWIDTH 853 0
DWIDTH 20 0
BBX 19 27 1 -3
BITMAP
0000555000
0002001000
001F001000
003F041000
007F001000
007F401000
0155FFD554
09007FC004
7D002BC004
FD040BC104
FD0503C104
FD04418104
FD04104104
FD04040104
FD04010104
FD04004104
FD04604104
FD04781104
FD047D0504
FD047F4104
FD047F8104
FD047FC104
FD007FC004
FE005FC004
FFFE5FFFD0
FFFD1FFF40
BFE01FFD00
ENDCHAR
STARTCHAR Ndotbelow
ENCODING 7750
SWIDTH 853 0
DWIDTH 20 0
BBX 19 27 1 -9
BITMAP
0155005554
0900418004
7D0007C004
FD040BC104
FD0503C104
FD04418104
FD04104104
FD04040104
FD04010104
FD04004104
FD04604104
FD04781104
FD047D0504
FD047F4104
FD047F8104
FD047FC104
FD007FC004
FE005FC004
FFFF9AAFD0
FFFF001F40
BFFF001D00
003F041000
007F001000
007F401000
007FFF8000
007FFE0000
002FF40000
ENDCHAR
STARTCHAR ndotbelow
ENCODING 7751
SWIDTH 853 0
DWIDTH 20 0
BBX 19 27 1 -9
BITMAP
0155005554
0900418004
7D0007C004
FD040BC104
FD0503C104
FD04418104
FD04104104
FD04040104
FD04010104
FD04004104
FD04604104
FD04781104
FD047D0504
FD047F4104
FD047F8104
FD047FC104
FD007FC004
FE005FC004
FFFF9AAFD0
FFFF001F40
BFFF001D00
003F041000
007F001000
007F401000
007FFF8000
007FFE0000
002FF40000
ENDCHAR
STARTCHAR Nlinebelow
ENCODING 7752
SWIDTH 853 0
DWIDTH 20 0
BBX 19 26 1 -8
BITMAP
0155005554
0900418004
7D0007C004
FD040BC104
FD0503C104
FD04418104
FD04104104
FD04040104
FD04010104
FD04004104
FD04604104
FD04781104
FD047D0504
FD047F4104
FD047F8104
FD047FC104
FD006FC004
FE555FD554
FFFA5AAAD0
FFE0000140
BFE0554100
03E0000100
0BF0000100
0BFFFFFC00
0BFFFFE000
07FFFF8000
ENDCHAR
STARTCHAR nlinebelow
ENCODING 7753
SWIDTH 853 0
DWIDTH 20 0
BBX 19 26 1 -8
BITMAP
0155005554
0900418004
7D0007C004
FD040BC104
FD0503C104
FD04418104
FD04104104
FD04040104
FD04010104
FD04004104
FD04604104
FD04781104
FD047D0504
FD047F4104
FD047F8104
FD047FC104
FD006FC004
FE555FD554
FFFA5AAAD0
FFE0000140
BFE0554100
03E0000100
0BF0000100
0BFFFFFC00
0BFFFFE000
07FFFF8000
ENDCHAR
STARTCHAR Rdotbelow
ENCODING 7770
SWIDTH 843 0
DWIDTH 20 0
BBX 19 27 1 -9
BITMAP
0155555500
0900000040
7D00000040
FD05554000
FD04001010
FD043D0010
FD043E0400
FD043E0440
FD04000040
FD04001010
FD05555404
FD04000104
FD043F8104
FD043FC104
FD043FC104
FD001FC004
FD001FC004
FE001FD004
FFFE5AAFE0
FFFE401F80
BFEB401E00
002F411000
003F401000
003F401000
003FFFD000
003FFE0000
002FF80000
ENDCHAR
STARTCHAR rdotbelow
ENCODING 7771
SWIDTH 843 0
DWIDTH 20 0
BBX 19 27 1 -9
BITMAP
0155555500
0900000040
7D00000040
FD05554000
FD04001010
FD043D0010
FD043E0400
FD043E0440
FD04000040
FD04001010
FD05555404
FD04000104
FD043F8104
FD043FC104
FD043FC104
FD001FC004
FD001FC004
FE001FD004
FFFE5AAFE0
FFFE401F80
BFEB401E00
002F411000
003F401000
003F401000
003FFFD000
003FFE0000
002FF80000
ENDCHAR
STARTCHAR Rdotbelowmacron
ENCODING 7772
SWIDTH 843 0
DWIDTH 20 0
BBX 19 32 1 -9
BITMAP
0055555400
0180000400
0781550400
1F80000400
2F80000400
2FFFFFF400
2E00000500
2D00000040
7D05554040
FD04001010
FD043D0010
FD043E0400
FD043E0440
FD04000040
FD04001010
FD05555404
FD04000104
FD043F8104
FD043FC104
FD043FC104
FD001FC004
FD001FC004
FE001FD004
FFFE5AAFE0
FFFE401F80
BFEB401E00
002F411000
003F401000
003F401000
003FFFD000
003FFE0000
002FF80000
ENDCHAR
STARTCHAR rdotbelowmacron
ENCODING 7773
SWIDTH 843 0
DWIDTH 20 0
BBX 19 32 1 -9
BITMAP
0055555400
0180000400
0781550400
1F80000400
2F80000400
2FFFFFF400
2E00000500
2D00000040
7D05554040
FD04001010
FD043D0010
FD043E0400
FD043E0440
FD04000040
FD04001010
FD05555404
FD04000104
FD043F8104
FD043FC104
FD043FC104
FD001FC004
FD001FC004
FE001FD004
FFFE5AAFE0
FFFE401F80
BFEB401E00
002F411000
003F401000
003F401000
003FFFD000
003FFE0000
002FF80000
ENDCHAR
STARTCHAR Rlinebelow
ENCODING 7774
SWIDTH 843 0
DWIDTH 20 0
BBX 19 26 1 -8
BITMAP
0155555500
0900000040
7D05554040
FD04001000
FD04001010
FD043E0410
FD043E0400
FD043D0440
FD04001040
FD04001010
FD05555404
FD04000104
FD04154104
FD043FC104
FD043FC104
FD002FC004
FD001FC004
FE555FE554
FFFA5AABE0
FFE0000180
BFE0554100
07E0000100
0BE0000100
0BFFFFF800
0BFFFFE000
07FFFF8000
ENDCHAR
STARTCHAR rlinebelow
ENCODING 7775
SWIDTH 843 0
DWIDTH 20 0
BBX 19 26 1 -8
BITMAP
0155555500
0900000040
7D05554040
FD04001000
FD04001010
FD043E0410
FD043E0400
FD043D0440
FD04001040
FD04001010
FD05555404
FD04000104
FD04154104
FD043FC104
FD043FC104
FD002FC004
FD001FC004
FE555FE554
FFFA5AABE0
FFE0000180
BFE0554100
07E0000100
0BE0000100
0BFFFFF800
0BFFFFE000
07FFFF8000
ENDCHAR
STARTCHAR Sdotaccent
ENCODING 7776
SWIDTH 750 0
DWIDTH 18 0
BBX 18 27 0 -3
BITMAP
0000555000
0002001000
001F001000
007F041000
007F001000
007F000000
0079555540
0050000040
0140000040
0700555040
1F01000040
3F041FFE00
7F041AF800
7F04000500
7F01000040
7F80154010
7FE0000410
3FFFA50410
2FFFFF0410
0755540410
0700000410
2F05555010
7F00000040
7F00000100
7FFFFFF800
7FFFFFD000
7FFFFE4000
ENDCHAR
STARTCHAR sdotaccent
ENCODING 7777
SWIDTH 750 0
DWIDTH 18 0
BBX 18 27 0 -3
BITMAP
0000555000
0002001000
001F001000
007F041000
007F001000
007F000000
0079555540
0050000040
0140000040
0700555040
1F01000040
3F041FFE00
7F041AF800
7F04000500
7F01000040
7F80154010
7FE0000410
3FFFA50410
2FFFFF0410
0755540410
0700000410
2F05555010
7F00000040
7F00000100
7FFFFFF800
7FFFFFD000
7FFFFE4000
ENDCHAR
STARTCHAR Sdotbelow
ENCODING 7778
SWIDTH 750 0
DWIDTH 18 0
BBX 18 27 0 -9
BITMAP
0005555540
0050000040
0140000040
0B00555040
2F01000040
3F041FFE00
7F041AF800
7F04000500
7F01000040
7F80154010
7FE0000410
3FFFA50410
2FFFFF0410
0755540410
0700000410
2F05555010
7F00000040
7F00000500
7FFFFFF800
7FFF001000
7FFF001000
002F041000
007F001000
007F401000
007FFF8000
007FFE0000
002FF40000
ENDCHAR
STARTCHAR sdotbelow
ENCODING 7779
SWIDTH 750 0
DWIDTH 18 0
BBX 18 27 0 -9
BITMAP
0005555540
0050000040
0140000040
0B00555040
2F01000040
3F041FFE00
7F041AF800
7F04000500
7F01000040
7F80154010
7FE0000410
3FFFA50410
2FFFFF0410
0755540410
0700000410
2F05555010
7F00000040
7F00000500
7FFFFFF800
7FFF001000
7FFF001000
002F041000
007F001000
007F401000
007FFF8000
007FFE0000
002FF40000
ENDCHAR
STARTCHAR Tdotbelow
ENCODING 7788
SWIDTH 756 0
DWIDTH 18 0
BBX 18 27 0 -9
BITMAP
0155555550
0900000010
7D00000010
BD05555510
FE00040010
FFFE041F90
FFFE042F40
BFFE042800
00BE041000
00BE041000
00BE041000
00BE041000
00BE041000
00BE041000
00BE041000
00BE041000
00BE001000
00BF001000
00BFFFC000
00BF001000
007F001000
002F041000
007F001000
007F001000
007FFF8000
007FFD0000
006FF40000
ENDCHAR
STARTCHAR tdotbelow
ENCODING 7789
SWIDTH 756 0
DWIDTH 18 0
BBX 18 27 0 -9
BITMAP
0155555550
0900000010
7D00000010
BD05555510
FE00040010
FFFE041F90
FFFE042F40
BFFE042800
00BE041000
00BE041000
00BE041000
00BE041000
00BE041000
00BE041000
00BE041000
00BE041000
00BE001000
00BF001000
00BFFFC000
00BF001000
007F001000
002F041000
007F001000
007F001000
007FFF8000
007FFD0000
006FF40000
ENDCHAR
STARTCHAR Tlinebelow
ENCODING 7790
SWIDTH 756 0
DWIDTH 18 0
BBX 18 26 0 -8
BITMAP
0155555550
0900000010
7D05555510
BD00040010
FE00040010
FFFE041F90
FFFE042F40
BFFE042800
00BE041000
00BE041000
00BE041000
00BE041000
00BE041000
00BE041000
00BE041000
00BE001000
00BF001000
00BF555000
00BAAA9500
00A0000100
01E0554100
07E0000100
0BE0000100
0BFFFFF800
0BFFFFE000
07FFFF8000
ENDCHAR
STARTCHAR tlinebelow
ENCODING 7791
SWIDTH 756 0
DWIDTH 18 0
BBX 18 26 0 -8
BITMAP
0155555550
0900000010
7D05555510
BD00040010
FE00040010
FFFE041F90
FFFE042F40
BFFE042800
00BE041000
00BE041000
00BE041000
00BE041000
00BE041000
00BE041000
00BE041000
00BE001000
00BF001000
00BF555000
00BAAA9500
00A0000100
01E0554100
07E0000100
0BE0000100
0BFFFFF800
0BFFFFE000
07FFFF8000
ENDCHAR
STARTCHAR Wgrave
ENCODING 7808
SWIDTH 931 0
DWIDTH 22 0
BBX 21 27 1 -3
BITMAP
000AA5000000
002815AA4000
00F415004000
02F400504000
03F800004000
03FFFA540000
0255BFFD5540
1D007FFC0040
7D0045BC0040
FD1041FC1040
FD1041FC1040
FD1041FC1040
FD1045BC1040
FD10601C1040
FD1050081040
FD1041441040
FD1004101040
FD1000101040
FD0411041040
FE0403441000
FF0447800100
FF4107C14100
BF800BC00000
7FC00FD00400
3FFFEFFFE000
2FFF4FFF8000
0FFD0BFE0000
ENDCHAR
STARTCHAR wgrave
ENCODING 7809
SWIDTH 931 0
DWIDTH 22 0
BBX 21 27 1 -3
BITMAP
000AA5000000
002815AA4000
00F415004000
02F400504000
03F800004000
03FFFA540000
0255BFFD5540
1D007FFC0040
7D0045BC0040
FD1041FC1040
FD1041FC1040
FD1041FC1040
FD1045BC1040
FD10601C1040
FD1050081040
FD1041441040
FD1004101040
FD1000101040
FD0411041040
FE0403441000
FF0447800100
FF4107C14100
BF800BC00000
7FC00FD00400
3FFFEFFFE000
2FFF4FFF8000
0FFD0BFE0000
ENDCHAR
STARTCHAR Wacute
ENCODING 7810
SWIDTH 931 0
DWIDTH 22 0
BBX 21 27 1 -3
BITMAP
0000015A8000
0002AA501000
001C00541000
007C14001000
01FC00000000
01FD56AE0000
0155BFF95540
1D006A6C0040
7D00407C0040
FD1041FC1040
FD1041FC1040
FD1041FC1040
FD1045BC1040
FD10601C1040
FD1050081040
FD1041441040
FD1004101040
FD1000101040
FD0411041040
FE0403441000
FF0447800100
FF4107C14100
BF800BC00000
7FC00FD00400
3FFFEFFFE000
2FFF4FFF8000
0FFD0BFE0000
ENDCHAR
STARTCHAR wacute
ENCODING 7811
SWIDTH 931 0
DWIDTH 22 0
BBX 21 27 1 -3
BITMAP
0000015A8000
0002AA501000
001C00541000
007C14001000
01FC00000000
01FD56AE0000
0155BFF95540
1D006A6C0040
7D00407C0040
FD1041FC1040
FD1041FC1040
FD1041FC1040
FD1045BC1040
FD10601C1040
FD1050081040
FD1041441040
FD1004101040
FD1000101040
FD0411041040
FE0403441000
FF0447800100
FF4107C14100
BF800BC00000
7FC00FD00400
3FFFEFFFE000
2FFF4FFF8000
0FFD0BFE0000
ENDCHAR
STARTCHAR Wdieresis
ENCODING 7812
SWIDTH 931 0
DWIDTH 22 0
BBX 21 26 1 -3
BITMAP
000554554000
002003401000
01F043441000
03F003401000
07F403400000
07FFFFFFFF40
05007FFC0040
2D006AFC0040
BD1040FC1040
FD1041FC1040
FD1041FC1040
FD1045BC1040
FD10601C1040
FD1050081040
FD1041441040
FD1004101040
FD0000101040
FD0411041040
FE0403441000
FE0447800000
FF4107C14100
BF800BC00000
7FC00FD00400
3FFFEFFFE000
2FFF4FFF8000
0FFD0BFE0000
ENDCHAR
STARTCHAR wdieresis
ENCODING 7813
SWIDTH 931 0
DWIDTH 22 0
BBX 21 26 1 -3
BITMAP
000554554000
002003401000
01F043441000
03F003401000
07F403400000
07FFFFFFFF40
05007FFC0040
2D006AFC0040
BD1040FC1040
FD1041FC1040
FD1041FC1040
FD1045BC1040
FD10601C1040
FD1050081040
FD1041441040
FD1004101040
FD0000101040
FD0411041040
FE0403441000
FE0447800000
FF4107C14100
BF800BC00000
7FC00FD00400
3FFFEFFFE000
2FFF4FFF8000
0FFD0BFE0000
ENDCHAR
STARTCHAR Ydotaccent
ENCODING 7822
SWIDTH 805 0
DWIDTH 19 0
BBX 19 27 0 -3
BITMAP
0000555000
0002400400
000B400400
002F410400
003F400400
003F800000
01557FE554
0B002FD004
2F002FD004
7F041FD004
BF041FD104
BF041FD104
BF041FC104
BF000B4104
7F41060404
7FD0400010
7FE0101040
2FF8054000
0FFD010100
07FF010400
02FF410400
00FF410400
007F400400
003F400400
003FFFD000
003FFF4000
002FFD0000
ENDCHAR
STARTCHAR ydotaccent
ENCODING 7823
SWIDTH 805 0
DWIDTH 19 0
BBX 19 27 0 -3
BITMAP
0000555000
0002400400
000B400400
002F410400
003F400400
003F800000
01557FE554
0B002FD004
2F002FD004
7F041FD004
BF041FD104
BF041FD104
BF041FC104
BF000B4104
7F41060404
7FD0400010
7FE0101040
2FF8054000
0FFD010100
07FF010400
02FF410400
00FF410400
007F400400
003F400400
003FFFD000
003FFF4000
002FFD0000
ENDCHAR
STARTCHAR Zdotbelow
ENCODING 7826
SWIDTH 760 0
DWIDTH 18 0
BBX 18 27 0 -9
BITMAP
0055555540
0740000010
1F40000010
3F41555010
3F40000410
3FFFE01010
3FFFD00040
2FFF404100
000A010100
0028040400
0070101000
00D0404000
0340010000
0B01015550
2F04000010
7F01555410
7F00000010
7F00000010
7FFFFFFFD0
7FFF401E00
7FFF001800
002F041000
003F001000
007F401000
007FFFC000
003FFE0000
002FF80000
ENDCHAR
STARTCHAR zdotbelow
ENCODING 7827
SWIDTH 760 0
DWIDTH 18 0
BBX 18 27 0 -9
BITMAP
0055555540
0740000010
1F40000010
3F41555010
3F40000410
3FFFE01010
3FFFD00040
2FFF404100
000A010100
0028040400
0070101000
00D0404000
0340010000
0B01015550
2F04000010
7F01555410
7F00000010
7F00000010
7FFFFFFFD0
7FFF401E00
7FFF001800
002F041000
003F001000
007F401000
007FFFC000
003FFE0000
002FF80000
ENDCHAR
STARTCHAR tdieresis
ENCODING 7831
SWIDTH 756 0
DWIDTH 18 0
BBX 18 26 0 -3
BITMAP
0015515500
00C00D0040
07C10D1040
0FC00D0040
1FD00D0000
1E55555550
1D00000010
2D00000010
BD05555510
FE00040010
FFFE041F90
FFFE042F40
BFFE042800
00BE041000
00BE041000
00BE041000
00BE041000
00BE041000
00BE041000
00BE041000
00BE041000
00BE001000
00BF001000
00BFFF8000
00BFFE0000
007FF80000
ENDCHAR
STARTCHAR Germandbls
ENCODING 7838
SWIDTH 859 0
DWIDTH 21 0
BBX 20 21 1 -3
BITMAP
0155555500
0900000040
7D00000040
FD05554040
FD04001040
FD04141040
FD043C1040
FD043C1040
FD04380010
FD04345504
FD04380041
FD043FE041
FD043FE041
FD04394041
FD04340041
FD00341501
FD00340004
FE00740050
FFFFFFFF80
FFFFFFFD00
BFE2FFE400
ENDCHAR
STARTCHAR Adotbelow
ENCODING 7840
SWIDTH 830 0
DWIDTH 20 0
BBX 20 27 0 -9
BITMAP
0001555500
0008000040
0028000040
00B4155000
01E0000010
02D0474410
03C00B8004
07810F8104
0B401FC004
1F40000004
2F04000041
3F05555541
3F04000041
7F04000041
7F042FE041
7F042FE041
7F002FE001
7F001BE000
7FFF9AAFF4
7FFE800BD0
3FFB800B40
001F810400
002F800400
002FC00400
002FFFE000
002FFF4000
001FF90000
ENDCHAR
STARTCHAR adotbelow
ENCODING 7841
SWIDTH 830 0
DWIDTH 20 0
BBX 20 27 0 -9
BITMAP
0001555500
0008000040
0028000040
00B4155000
01E0000010
02D0474410
03C00B8004
07810F8104
0B401FC004
1F40000004
2F04000041
3F05555541
3F04000041
7F04000041
7F042FE041
7F042FE041
7F002FE001
7F001BE000
7FFF9AAFF4
7FFE800BD0
3FFB800B40
001F810400
002F800400
002FC00400
002FFFE000
002FFF4000
001FF90000
ENDCHAR
STARTCHAR Ahookabove
ENCODING 7842
SWIDTH 830 0
DWIDTH 20 0
BBX 20 28 0 -3
BITMAP
0000555000
0007055000
001F551100
003FFA1100
007FD05100
002BD00400
000FE6A000
000E555500
000C000040
0028000040
00B4155000
01E0000010
02D0474410
03C00B8004
07810F8104
0B401FC004
1F40000004
2F04000041
3F05555541
3F04000041
7F04000041
7F042FE041
7F042FE041
7F002FE001
7F001BE000
7FFF8BFFF4
7FFE0BFFD0
3FF40BFF40
ENDCHAR
STARTCHAR ahookabove
ENCODING 7843
SWIDTH 830 0
DWIDTH 20 0
BBX 20 28 0 -3
BITMAP
0000555000
0007055000
001F551100
003FFA1100
007FD05100
002BD00400
000FE6A000
000E555500
000C000040
0028000040
00B4155000
01E0000010
02D0474410
03C00B8004
07810F8104
0B401FC004
1F40000004
2F04000041
3F05555541
3F04000041
7F04000041
7F042FE041
7F042FE041
7F002FE001
7F001BE000
7FFF8BFFF4
7FFE0BFFD0
3FF40BFF40
ENDCHAR
STARTCHAR Acircumflexacute
ENCODING 7844
SWIDTH 830 0
DWIDTH 20 0
BBX 20 32 0 -3
BITMAP
0000001550
0000018010
0000078510
00001F8010
00002F8180
00002ABE00
0001400900
0004054040
0034101040
01F4000040
02F86BA440
03FFFFFF40
03FD000100
02F8000040
00B4155040
01F0000010
02E0474410
03D00B8010
07C10F8104
0B801FC004
1F40000004
2F04000040
3F05555541
3F04000041
7F04000041
7F042FE041
7F042FE041
7F002FE001
7F001BE001
7FFF8BFFF4
7FFE0BFFD0
3FF40BFF40
ENDCHAR
STARTCHAR acircumflexacute
ENCODING 7845
SWIDTH 830 0
DWIDTH 20 0
BBX 20 32 0 -3
BITMAP
0000001550
0000018010
0000078510
00001F8010
00002F8180
00002ABE00
0001400900
0004054040
0034101040
01F4000040
02F86BA440
03FFFFFF40
03FD000100
02F8000040
00B4155040
01F0000010
02E0474410
03D00B8010
07C10F8104
0B801FC004
1F40000004
2F04000040
3F05555541
3F04000041
7F04000041
7F042FE041
7F042FE041
7F002FE001
7F001BE001
7FFF8BFFF4
7FFE0BFFD0
3FF40BFF40
ENDCHAR
STARTCHAR Acircumflexgrave
ENCODING 7846
SWIDTH 830 0
DWIDTH 20 0
BBX 20 32 0 -3
BITMAP
0000005400
0000020140
00001F0010
00003F0410
00007F4010
00007AB940
0001400B40
0008054040
0034101040
01F4000040
02F86BA440
03FFFFFF40
03FD000100
02F8000040
00B4155040
01F0000010
02E0474410
03D00B8010
07C10F8104
0B801FC004
1F40000004
2F04000040
3F05555541
3F04000041
7F04000041
7F042FE041
7F042FE041
7F002FE001
7F001BE001
7FFF8BFFF4
7FFE0BFFD0
3FF40BFF40
ENDCHAR
STARTCHAR acircumflexgrave
ENCODING 7847
SWIDTH 830 0
DWIDTH 20 0
BBX 20 32 0 -3
BITMAP
0000005400
0000020140
00001F0010
00003F0410
00007F4010
00007AB940
0001400B40
0008054040
0034101040
01F4000040
02F86BA440
03FFFFFF40
03FD000100
02F8000040
00B4155040
01F0000010
02E0474410
03D00B8010
07C10F8104
0B801FC004
1F40000004
2F04000040
3F05555541
3F04000041
7F04000041
7F042FE041
7F042FE041
7F002FE001
7F001BE001
7FFF8BFFF4
7FFE0BFFD0
3FF40BFF40
ENDCHAR
STARTCHAR Acircumflexhookabove
ENCODING 7848
SWIDTH 830 0
DWIDTH 20 0
BBX 20 34 0 -3
BITMAP
0000005554
0000024001
00000B4551
00002F9501
00003FFA41
00003FE051
00001BE000
000005A6A4
00014007C0
0004054040
0034101040
01F4000040
02F86BA440
03FFFFFF40
03FD000100
02F8000040
00B4155040
01F0000010
02E0474410
03D00B8010
07C10F8104
0B801FC004
1F40000004
2F04000040
3F05555541
3F04000041
7F04000041
7F042FE041
7F042FE041
7F002FE001
7F001BE001
7FFF8BFFF4
7FFE0BFFD0
3FF40BFF40
ENDCHAR
STARTCHAR acircumflexhookabove
ENCODING 7849
SWIDTH 830 0
DWIDTH 20 0
BBX 20 34 0 -3
BITMAP
0000005554
0000024001
00000B4551
00002F9501
00003FFA41
00003FE051
00001BE000
000005A6A4
00014007C0
0004054040
0034101040
01F4000040
02F86BA440
03FFFFFF40
03FD000100
02F8000040
00B4155040
01F0000010
02E0474410
03D00B8010
07C10F8104
0B801FC004
1F40000004
2F04000040
3F05555541
3F04000041
7F04000041
7F042FE041
7F042FE041
7F002FE001
7F001BE001
7FFF8BFFF4
7FFE0BFFD0
3FF40BFF40
ENDCHAR
STARTCHAR Acircumflextilde
ENCODING 7850
SWIDTH 830 0
DWIDTH 20 0
BBX 20 32 0 -3
BITMAP
0001000000
0014000040
0074155040
02F4000040
03F9AA5540
03FFF9BD00
03FE400500
0158054040
0074101040
01F4000040
02F86BA440
03FFFFFF40
03FD000100
02F8000040
00B4155040
01F0000010
02E0474410
03D00B8010
07C10F8104
0B801FC004
1F40000004
2F04000040
3F05555541
3F04000041
7F04000041
7F042FE041
7F042FE041
7F002FE001
7F001BE001
7FFF8BFFF4
7FFE0BFFD0
3FF40BFF40
ENDCHAR
STARTCHAR acircumflextilde
ENCODING 7851
SWIDTH 830 0
DWIDTH 20 0
BBX 20 32 0 -3
BITMAP
0001000000
0014000040
0074155040
02F4000040
03F9AA5540
03FFF9BD00
03FE400500
0158054040
0074101040
01F4000040
02F86BA440
03FFFFFF40
03FD000100
02F8000040
00B4155040
01F0000010
02E0474410
03D00B8010
07C10F8104
0B801FC004
1F40000004
2F04000040
3F05555541
3F04000041
7F04000041
7F042FE041
7F042FE041
7F002FE001
7F001BE001
7FFF8BFFF4
7FFE0BFFD0
3FF40BFF40
ENDCHAR
STARTCHAR Acircumflexdotbelow
ENCODING 7852
SWIDTH 830 0
DWIDTH 20 0
BBX 20 33 0 -9
BITMAP
0000054000
0001501500
0004054040
0024101040
00F4000040
02F86BA440
03FFFFFF40
03FD000100
02F8000040
00B4155040
01F0000010
02E0474410
03D00B8010
07C10F8104
0B801FC004
1F40000004
2F04000040
3F05555541
3F04000041
7F04000041
7F042FE041
7F042FE041
7F002FE001
7F001BE001
7FFF9AAFF4
7FFE800BD0
3FFB800B40
001F810400
002F800400
002FC00400
002FFFE000
002FFF4000
001FF90000
ENDCHAR
STARTCHAR acircumflexdotbelow
ENCODING 7853
SWIDTH 830 0
DWIDTH 20 0
BBX 20 33 0 -9
BITMAP
0000054000
0001501500
0004054040
0024101040
00F4000040
02F86BA440
03FFFFFF40
03FD000100
02F8000040
00B4155040
01F0000010
02E0474410
03D00B8010
07C10F8104
0B801FC004
1F40000004
2F04000040
3F05555541
3F04000041
7F04000041
7F042FE041
7F042FE041
7F002FE001
7F001BE001
7FFF9AAFF4
7FFE800BD0
3FFB800B40
001F810400
002F800400
002FC00400
002FFFE000
002FFF4000
001FF90000
ENDCHAR
STARTCHAR Abreveacute
ENCODING 7854
SWIDTH 830 0
DWIDTH 20 0
BBX 20 32 0 -3
BITMAP
0000015500
0000140100
0000745100
0002F40100
0003F45800
0006AFE540
00240FC040
00B4068040
02F4400440
03F8155000
03FF400400
03FFEAAA00
01FD000140
0078000040
0074155040
01F0000010
02E0474410
03D00B8014
07C10F8104
0B801FC004
1F40000004
2F04000041
3F05555541
3F04000041
7F04000041
7F042FE041
7F042FE041
7F002FE001
7F001BE000
7FFF8BFFF4
7FFE0BFFD0
3FF40BFF40
ENDCHAR
STARTCHAR abreveacute
ENCODING 7855
SWIDTH 830 0
DWIDTH 20 0
BBX 20 32 0 -3
BITMAP
0000015500
0000140100
0000745100
0002F40100
0003F45800
0006AFE540
00240FC040
00B4068040
02F4400440
03F8155000
03FF400400
03FFEAAA00
01FD000140
0078000040
0074155040
01F0000010
02E0474410
03D00B8014
07C10F8104
0B801FC004
1F40000004
2F04000041
3F05555541
3F04000041
7F04000041
7F042FE041
7F042FE041
7F002FE001
7F001BE000
7FFF8BFFF4
7FFE0BFFD0
3FF40BFF40
ENDCHAR
STARTCHAR Abrevegrave
ENCODING 7856
SWIDTH 830 0
DWIDTH 20 0
BBX 20 32 0 -3
BITMAP
0001550000
000B004000
002F140000
007F000000
007F944000
007EAF5540
00740AC040
00B4068040
02F4400440
03F8155000
03FF400400
03FFEAAA00
01FD000140
0078000040
0074155040
01F0000010
02E0474410
03D00B8014
07C10F8104
0B801FC004
1F40000004
2F04000041
3F05555541
3F04000041
7F04000041
7F042FE041
7F042FE041
7F002FE001
7F001BE000
7FFF8BFFF4
7FFE0BFFD0
3FF40BFF40
ENDCHAR
STARTCHAR abrevegrave
ENCODING 7857
SWIDTH 830 0
DWIDTH 20 0
BBX 20 32 0 -3
BITMAP
0001550000
000B004000
002F140000
007F000000
007F944000
007EAF5540
00740AC040
00B4068040
02F4400440
03F8155000
03FF400400
03FFEAAA00
01FD000140
0078000040
0074155040
01F0000010
02E0474410
03D00B8014
07C10F8104
0B801FC004
1F40000004
2F04000041
3F05555541
3F04000041
7F04000041
7F042FE041
7F042FE041
7F002FE001
7F001BE000
7FFF8BFFF4
7FFE0BFFD0
3FF40BFF40
ENDCHAR
STARTCHAR Abrevehookabove
ENCODING 7858
SWIDTH 830 0
DWIDTH 20 0
BBX 20 34 0 -3
BITMAP
0000555400
0001C55100
000BC00400
001FEA8440
001FF40440
001FF15100
0002F05500
0006AFE540
00240FC040
00B4068040
02F4400440
03F8155000
03FF400400
03FFEAAA00
01FD000140
0078000040
0074155040
01F0000010
02E0474410
03D00B8014
07C10F8104
0B801FC004
1F40000004
2F04000041
3F05555541
3F04000041
7F04000041
7F042FE041
7F042FE041
7F002FE001
7F001BE000
7FFF8BFFF4
7FFE0BFFD0
3FF40BFF40
ENDCHAR
STARTCHAR abrevehookabove
ENCODING 7859
SWIDTH 830 0
DWIDTH 20 0
BBX 20 34 0 -3
BITMAP
0000555400
0001C55100
000BC00400
001FEA8440
001FF40440
001FF15100
0002F05500
0006AFE540
00240FC040
00B4068040
02F4400440
03F8155000
03FF400400
03FFEAAA00
01FD000140
0078000040
0074155040
01F0000010
02E0474410
03D00B8014
07C10F8104
0B801FC004
1F40000004
2F04000041
3F05555541
3F04000041
7F04000041
7F042FE041
7F042FE041
7F002FE001
7F001BE000
7FFF8BFFF4
7FFE0BFFD0
3FF40BFF40
ENDCHAR
STARTCHAR Abrevetilde
ENCODING 7860
SWIDTH 830 0
DWIDTH 20 0
BBX 20 32 0 -3
BITMAP
0004555500
0014000040
00B4155040
02F4000040
03F9AA5640
03FEAFE940
03F40FC040
01F4068040
02F4400440
03F8155000
03FF400400
03FFEAAA00
01FD000140
0078000040
0074155040
01F0000010
02E0474410
03D00B8014
07C10F8104
0B801FC004
1F40000004
2F04000041
3F05555541
3F04000041
7F04000041
7F042FE041
7F042FE041
7F002FE001
7F001BE000
7FFF8BFFF4
7FFE0BFFD0
3FF40BFF40
ENDCHAR
STARTCHAR abrevetilde
ENCODING 7861
SWIDTH 830 0
DWIDTH 20 0
BBX 20 32 0 -3
BITMAP
0004555500
0014000040
00B4155040
02F4000040
03F9AA5640
03FEAFE940
03F40FC040
01F4068040
02F4400440
03F8155000
03FF400400
03FFEAAA00
01FD000140
0078000040
0074155040
01F0000010
02E0474410
03D00B8014
07C10F8104
0B801FC004
1F40000004
2F04000041
3F05555541
3F04000041
7F04000041
7F042FE041
7F042FE041
7F002FE001
7F001BE000
7FFF8BFFF4
7FFE0BFFD0
3FF40BFF40
ENDCHAR
STARTCHAR Abrevedotbelow
ENCODING 7862
SWIDTH 830 0
DWIDTH 20 0
BBX 20 33 0 -9
BITMAP
0005501540
002405C040
00B4068040
02F4400440
03F8155000
03FF400400
03FFEAAA00
01FD000140
0078000040
0074155040
01F0000010
02E0474410
03D00B8014
07C10F8104
0B801FC004
1F40000004
2F04000041
3F05555541
3F04000041
7F04000041
7F042FE041
7F042FE041
7F002FE001
7F001BE000
7FFF9AAFF4
7FFE800BD0
3FFB800B40
001F810400
002F800400
002FC00400
002FFFE000
002FFF4000
001FF90000
ENDCHAR
STARTCHAR abrevedotbelow
ENCODING 7863
SWIDTH 830 0
DWIDTH 20 0
BBX 20 33 0 -9
BITMAP
0005501540
002405C040
00B4068040
02F4400440
03F8155000
03FF400400
03FFEAAA00
01FD000140
0078000040
0074155040
01F0000010
02E0474410
03D00B8014
07C10F8104
0B801FC004
1F40000004
2F04000041
3F05555541
3F04000041
7F04000041
7F042FE041
7F042FE041
7F002FE001
7F001BE000
7FFF9AAFF4
7FFE800BD0
3FFB800B40
001F810400
002F800400
002FC00400
002FFFE000
002FFF4000
001FF90000
ENDCHAR
STARTCHAR Edotbelow
ENCODING 7864
SWIDTH 754 0
DWIDTH 18 0
BBX 17 27 1 -9
BITMAP
0155555540
0900000040
7D00000040
FD05555040
FD04000040
FD047FFE00
FD047FF800
FD04000400
FD04000400
FD05550400
FD04000400
FD04155000
FD047FD000
FD042A5500
FD04000040
FD05555040
FD00000040
FE00000040
FFFFFFFE00
FFFD007800
BFFC005000
00BC104000
00FC004000
01FD004000
01FFFF0000
00FFF80000
00BFE00000
ENDCHAR
STARTCHAR edotbelow
ENCODING 7865
SWIDTH 754 0
DWIDTH 18 0
BBX 17 27 1 -9
BITMAP
0155555540
0900000040
7D00000040
FD05555040
FD04000040
FD047FFE00
FD047FF800
FD04000400
FD04000400
FD05550400
FD04000400
FD04155000
FD047FD000
FD042A5500
FD04000040
FD05555040
FD00000040
FE00000040
FFFFFFFE00
FFFD007800
BFFC005000
00BC104000
00FC004000
01FD004000
01FFFF0000
00FFF80000
00BFE00000
ENDCHAR
STARTCHAR Ehookabove
ENCODING 7866
SWIDTH 754 0
DWIDTH 18 0
BBX 17 28 1 -3
BITMAP
0005554000
0024551000
01F9501000
03FFA41000
03FD051000
01BE001000
00BF6A4000
0155555540
0900000040
7D00000040
FD05555040
FD04000040
FD047FFE00
FD047FF800
FD04000400
FD04000400
FD05550400
FD04000400
FD04155000
FD047FD000
FD042A5500
FD04000040
FD05555040
FD00000040
FE00000040
FFFFFFFE00
FFFFFFF800
BFFFFFD000
ENDCHAR
STARTCHAR ehookabove
ENCODING 7867
SWIDTH 754 0
DWIDTH 18 0
BBX 17 28 1 -3
BITMAP
0005554000
0024551000
01F9501000
03FFA41000
03FD051000
01BE001000
00BF6A4000
0155555540
0900000040
7D00000040
FD05555040
FD04000040
FD047FFE00
FD047FF800
FD04000400
FD04000400
FD05550400
FD04000400
FD04155000
FD047FD000
FD042A5500
FD04000040
FD05555040
FD00000040
FE00000040
FFFFFFFE00
FFFFFFF800
BFFFFFD000
ENDCHAR
STARTCHAR Etilde
ENCODING 7868
SWIDTH 754 0
DWIDTH 18 0
BBX 17 26 1 -3
BITMAP
0010000000
0080000000
0781550000
1F80000000
2FC5540000
2E55555540
2D00000040
2D00000040
BD05555040
FD04000040
FD047FFE00
FD047FF800
FD04000400
FD04000400
FD05550400
FD04000400
FD04155000
FD047FD000
FD042A5500
FD04000040
FD05555040
FD00000040
FE00000040
FFFFFFFE00
FFFFFFF800
BFFFFFD000
ENDCHAR
STARTCHAR etilde
ENCODING 7869
SWIDTH 754 0
DWIDTH 18 0
BBX 17 26 1 -3
BITMAP
0010000000
0080000000
0781550000
1F80000000
2FC5540000
2E55555540
2D00000040
2D00000040
BD05555040
FD04000040
FD047FFE00
FD047FF800
FD04000400
FD04000400
FD05550400
FD04000400
FD04155000
FD047FD000
FD042A5500
FD04000040
FD05555040
FD00000040
FE00000040
FFFFFFFE00
FFFFFFF800
BFFFFFD000
ENDCHAR
STARTCHAR Ecircumflexacute
ENCODING 7870
SWIDTH 754 0
DWIDTH 18 0
BBX 17 32 1 -3
BITMAP
0000015500
0000080100
00002C5100
0000FC0100
0001FC1900
0001AAF400
0004005000
0080550400
0281000000
0F80650000
2FDBFFE400
2E55555540
2D00000040
2D00000040
BD05555040
FD04000040
FD047FFE00
FD047FF800
FD04000400
FD04000400
FD05550400
FD04000400
FD04155000
FD047FD000
FD042A5500
FD04000040
FD05555040
FD00000040
FE00000040
FFFFFFFE00
FFFFFFF800
BFFFFFD000
ENDCHAR
STARTCHAR ecircumflexacute
ENCODING 7871
SWIDTH 754 0
DWIDTH 18 0
BBX 17 32 1 -3
BITMAP
0000015500
0000080100
00002C5100
0000FC0100
0001FC1900
0001AAF400
0004005000
0080550400
0281000000
0F80650000
2FDBFFE400
2E55555540
2D00000040
2D00000040
BD05555040
FD04000040
FD047FFE00
FD047FF800
FD04000400
FD04000400
FD05550400
FD04000400
FD04155000
FD047FD000
FD042A5500
FD04000040
FD05555040
FD00000040
FE00000040
FFFFFFFE00
FFFFFFF800
BFFFFFD000
ENDCHAR
STARTCHAR Ecircumflexgrave
ENCODING 7872
SWIDTH 754 0
DWIDTH 18 0
BBX 17 32 1 -3
BITMAP
0000054000
0000241500
0000B40100
0002F45100
0003F80100
0003AB9500
0014006400
0080550400
0281000000
0F80650000
2FDBFFE400
2E55555540
2D00000040
2D00000040
BD05555040
FD04000040
FD047FFE00
FD047FF800
FD04000400
FD04000400
FD05550400
FD04000400
FD04155000
FD047FD000
FD042A5500
FD04000040
FD05555040
FD00000040
FE00000040
FFFFFFFE00
FFFFFFF800
BFFFFFD000
ENDCHAR
STARTCHAR ecircumflexgrave
ENCODING 7873
SWIDTH 754 0
DWIDTH 18 0
BBX 17 32 1 -3
BITMAP
0000054000
0000241500
0000B40100
0002F45100
0003F80100
0003AB9500
0014006400
0080550400
0281000000
0F80650000
2FDBFFE400
2E55555540
2D00000040
2D00000040
BD05555040
FD04000040
FD047FFE00
FD047FF800
FD04000400
FD04000400
FD05550400
FD04000400
FD04155000
FD047FD000
FD042A5500
FD04000040
FD05555040
FD00000040
FE00000040
FFFFFFFE00
FFFFFFF800
BFFFFFD000
ENDCHAR
STARTCHAR Ecircumflexhookabove
ENCODING 7874
SWIDTH 754 0
DWIDTH 18 0
BBX 18 34 1 -3
BITMAP
0000055540
0000180010
0000785510
0001FD5040
0002FFA440
0002FF0500
0001BF0000
00005B5A40
0000006D00
0080550400
0281000000
0F80650000
2FDBFFE400
2E55555540
2D00000040
2D00000040
BD05555040
FD04000040
FD047FFE00
FD047FF800
FD04000400
FD04000400
FD05550400
FD04000400
FD04155000
FD047FD000
FD042A5500
FD04000040
FD05555040
FD00000040
FE00000040
FFFFFFFE00
FFFFFFF800
BFFFFFD000
ENDCHAR
STARTCHAR ecircumflexhookabove
ENCODING 7875
SWIDTH 754 0
DWIDTH 18 0
BBX 18 34 1 -3
BITMAP
0000055540
0000180010
0000785510
0001FD5040
0002FFA440
0002FF0500
0001BF0000
00005B5A40
0000006D00
0080550400
0281000000
0F80650000
2FDBFFE400
2E55555540
2D00000040
2D00000040
BD05555040
FD04000040
FD047FFE00
FD047FF800
FD04000400
FD04000400
FD05550400
FD04000400
FD04155000
FD047FD000
FD042A5500
FD04000040
FD05555040
FD00000040
FE00000040
FFFFFFFE00
FFFFFFF800
BFFFFFD000
ENDCHAR
STARTCHAR Ecircumflextilde
ENCODING 7876
SWIDTH 754 0
DWIDTH 18 0
BBX 17 32 1 -3
BITMAP
0010000000
0080000000
0781554000
1F80000400
2FDAA55400
2FFF9AD000
2FE4001400
1580550400
0381000000
1F80650000
2FDBFFE400
2E55555540
2D00000040
2D00000040
BD05555040
FD04000040
FD047FFE00
FD047FF800
FD04000400
FD04000400
FD05550400
FD04000400
FD04155000
FD047FD000
FD042A5500
FD04000040
FD05555040
FD00000040
FE00000040
FFFFFFFE00
FFFFFFF800
BFFFFFD000
ENDCHAR
STARTCHAR ecircumflextilde
ENCODING 7877
SWIDTH 754 0
DWIDTH 18 0
BBX 17 32 1 -3
BITMAP
0010000000
0080000000
0781554000
1F80000400
2FDAA55400
2FFF9AD000
2FE4001400
1580550400
0381000000
1F80650000
2FDBFFE400
2E55555540
2D00000040
2D00000040
BD05555040
FD04000040
FD047FFE00
FD047FF800
FD04000400
FD04000400
FD05550400
FD04000400
FD04155000
FD047FD000
FD042A5500
FD04000040
FD05555040
FD00000040
FE00000040
FFFFFFFE00
FFFFFFF800
BFFFFFD000
ENDCHAR
STARTCHAR Ecircumflexdotbelow
ENCODING 7878
SWIDTH 754 0
DWIDTH 18 0
BBX 17 33 1 -9
BITMAP
0000550000
0001005000
0040550400
0281000000
0B80650000
1FDBFFE400
2E55555540
2D00000040
2D00000040
BD05555040
FD04000040
FD047FFE00
FD047FF800
FD04000400
FD04000400
FD05550400
FD04000400
FD04155000
FD047FD000
FD042A5500
FD04000040
FD05555040
FD00000040
FE00000040
FFFFFFFE00
FFFC00B800
BFFC009000
00BC104000
01FC004000
01FC004000
01FFFE0000
01FFF40000
01BF900000
ENDCHAR
STARTCHAR ecircumflexdotbelow
ENCODING 7879
SWIDTH 754 0
DWIDTH 18 0
BBX 17 33 1 -9
BITMAP
0000550000
0001005000
0040550400
0281000000
0B80650000
1FDBFFE400
2E55555540
2D00000040
2D00000040
BD05555040
FD04000040
FD047FFE00
FD047FF800
FD04000400
FD04000400
FD05550400
FD04000400
FD04155000
FD047FD000
FD042A5500
FD04000040
FD05555040
FD00000040
FE00000040
FFFFFFFE00
FFFC00B800
BFFC009000
00BC104000
01FC004000
01FC004000
01FFFE0000
01FFF40000
01BF900000
ENDCHAR
STARTCHAR Ihookabove
ENCODING 7880
SWIDTH 705 0
DWIDTH 17 0
BBX 17 28 0 -3
BITMAP
0005554000
0024551000
01F9501000
03FFA41000
03FE051000
01BE001000
00BF5A4000
0155555500
0700000040
2F00000040
7F05555040
7F00000040
7F94001500
7FFD007800
7FFD006000
15FD004000
00FD004000
00FD004000
00FD004000
00FD004000
00A8001500
0200000040
1F05555040
3F00000040
7F00000040
7FFFFFFD00
7FFFFFF400
3FFFFFD000
ENDCHAR
STARTCHAR ihookabove
ENCODING 7881
SWIDTH 705 0
DWIDTH 17 0
BBX 17 28 0 -3
BITMAP
0005554000
0024551000
01F9501000
03FFA41000
03FE051000
01BE001000
00BF5A4000
0155555500
0700000040
2F00000040
7F05555040
7F00000040
7F94001500
7FFD007800
7FFD006000
15FD004000
00FD004000
00FD004000
00FD004000
00FD004000
00A8001500
0200000040
1F05555040
3F00000040
7F00000040
7FFFFFFD00
7FFFFFF400
3FFFFFD000
ENDCHAR
STARTCHAR Idotbelow
ENCODING 7882
SWIDTH 705 0
DWIDTH 17 0
BBX 17 27 0 -9
BITMAP
0155555500
0700000040
1F00000040
7F05555040
7F00000040
7F94001500
7FFD007800
7FFD006000
15FD004000
00FD004000
00FD004000
00FD004000
00FD004000
00A8001500
0200000040
1F05555040
3F00000040
7F40000040
7FFFFFFE00
7FFD007400
3FFD005000
007D004000
00FD004000
00FD004000
00FFFF4000
00FFF80000
00BFE00000
ENDCHAR
STARTCHAR idotbelow
ENCODING 7883
SWIDTH 705 0
DWIDTH 17 0
BBX 17 27 0 -9
BITMAP
0155555500
0700000040
1F00000040
7F05555040
7F00000040
7F94001500
7FFD007800
7FFD006000
15FD004000
00FD004000
00FD004000
00FD004000
00FD004000
00A8001500
0200000040
1F05555040
3F00000040
7F40000040
7FFFFFFE00
7FFD007400
3FFD005000
007D004000
00FD004000
00FD004000
00FFFF4000
00FFF80000
00BFE00000
ENDCHAR
STARTCHAR Odotbelow
ENCODING 7884
SWIDTH 837 0
DWIDTH 20 0
BBX 20 27 0 -9
BITMAP
0001555540
0010000010
0080155004
0241000104
0F41000041
2F041FD041
3F041FE041
3F041FE041
7F041BE041
7F041BE041
7F041BE041
7F041BE041
7F041BE041
7F440A9041
7F41000041
7F81000104
3FD0155414
3FF9000190
2FFFEAAF40
1FFFC00900
02FFC00400
001FC10400
001FC00400
001FC00400
001FFFE000
001FFF4000
001BF90000
ENDCHAR
STARTCHAR odotbelow
ENCODING 7885
SWIDTH 837 0
DWIDTH 20 0
BBX 20 27 0 -9
BITMAP
0001555540
0010000010
0080155004
0241000104
0F41000041
2F041FD041
3F041FE041
3F041FE041
7F041BE041
7F041BE041
7F041BE041
7F041BE041
7F041BE041
7F440A9041
7F41000041
7F81000104
3FD0155414
3FF9000190
2FFFEAAF40
1FFFC00900
02FFC00400
001FC10400
001FC00400
001FC00400
001FFFE000
001FFF4000
001BF90000
ENDCHAR
STARTCHAR Ohookabove
ENCODING 7886
SWIDTH 837 0
DWIDTH 20 0
BBX 20 28 0 -3
BITMAP
0000555000
0007055000
001F551100
003FFA1100
007FD05100
002BD00400
000FE6A400
000E400540
0010000010
0080155404
0741000100
1F41000041
2F041FD041
3F041FE041
7F041FE041
7F041BE041
7F041BE041
7F041BE041
7F041BE041
7F041BE041
7F410A9041
7F41000100
3F80155404
3FD0000014
2FF9000190
1FFFFFFE00
07FFFFF800
006FFE9000
ENDCHAR
STARTCHAR ohookabove
ENCODING 7887
SWIDTH 837 0
DWIDTH 20 0
BBX 20 28 0 -3
BITMAP
0000555000
0007055000
001F551100
003FFA1100
007FD05100
002BD00400
000FE6A400
000E400540
0010000010
0080155404
0741000100
1F41000041
2F041FD041
3F041FE041
7F041FE041
7F041BE041
7F041BE041
7F041BE041
7F041BE041
7F041BE041
7F410A9041
7F41000100
3F80155404
3FD0000014
2FF9000190
1FFFFFFE00
07FFFFF800
006FFE9000
ENDCHAR
STARTCHAR Ocircumflexacute
ENCODING 7888
SWIDTH 837 0
DWIDTH 20 0
BBX 20 33 0 -3
BITMAP
0000000150
0000006950
0000018010
00000B8410
00002F8000
00002F8140
0000145E00
0001000000
0018054040
00B8000040
02F8064040
02FABFFE40
02FE400540
02E0000010
0280155404
0741000100
1F41000041
2F041FD041
3F041FE041
7F041FE041
7F041BE041
7F041BE041
7F041BE041
7F041BE041
7F041BE041
7F410A9041
7F41000100
3F80155404
3FD0000014
2FF9000190
1FFFFFFE00
07FFFFF800
006FFE9000
ENDCHAR
STARTCHAR ocircumflexacute
ENCODING 7889
SWIDTH 837 0
DWIDTH 20 0
BBX 20 33 0 -3
BITMAP
0000000150
0000006950
0000018010
00000B8410
00002F8000
00002F8140
0000145E00
0001000000
0018054040
00B8000040
02F8064040
02FABFFE40
02FE400540
02E0000010
0280155404
0741000100
1F41000041
2F041FD041
3F041FE041
7F041FE041
7F041BE041
7F041BE041
7F041BE041
7F041BE041
7F041BE041
7F410A9041
7F41000100
3F80155404
3FD0000014
2FF9000190
1FFFFFFE00
07FFFFF800
006FFE9000
ENDCHAR
STARTCHAR Ocircumflexgrave
ENCODING 7890
SWIDTH 837 0
DWIDTH 20 0
BBX 20 32 0 -3
BITMAP
000001A900
0000074190
00001F0410
00007F0010
00007F4010
0000645900
0000000100
0018054040
0078000040
02F8064040
02FABFFE40
02FE400540
02E0000010
0280155404
0741000100
1F41000041
2F041FD041
3F041FE041
7F041FE041
7F041BE041
7F041BE041
7F041BE041
7F041BE041
7F041BE041
7F410A9041
7F41000100
3F80155404
3FD0000014
2FF9000190
1FFFFFFE00
07FFFFF800
006FFE9000
ENDCHAR
STARTCHAR ocircumflexgrave
ENCODING 7891
SWIDTH 837 0
DWIDTH 20 0
BBX 20 32 0 -3
BITMAP
000001A900
0000074190
00001F0410
00007F0010
00007F4010
0000645900
0000000100
0018054040
0078000040
02F8064040
02FABFFE40
02FE400540
02E0000010
0280155404
0741000100
1F41000041
2F041FD041
3F041FE041
7F041FE041
7F041BE041
7F041BE041
7F041BE041
7F041BE041
7F041BE041
7F410A9041
7F41000100
3F80155404
3FD0000014
2FF9000190
1FFFFFFE00
07FFFFF800
006FFE9000
ENDCHAR
STARTCHAR Ocircumflexhookabove
ENCODING 7892
SWIDTH 837 0
DWIDTH 20 0
BBX 20 34 0 -3
BITMAP
0000005554
0000028001
00000B8551
00002F9501
00002FFA45
00002FE051
00001BE000
000005A6A4
00004006D0
0004054040
0078000040
01F8064040
02FABFFE40
02FE400540
02E0000010
0280155404
0741000100
1F41000041
2F041FD041
3F041FE041
7F041FE041
7F041BE041
7F041BE041
7F041BE041
7F041BE041
7F041BE041
7F410A9041
7F41000100
3F80155404
3FD0000014
2FF9000190
1FFFFFFE00
07FFFFF800
006FFE9000
ENDCHAR
STARTCHAR ocircumflexhookabove
ENCODING 7893
SWIDTH 837 0
DWIDTH 20 0
BBX 20 34 0 -3
BITMAP
0000005554
0000028001
00000B8551
00002F9501
00002FFA45
00002FE051
00001BE000
000005A6A4
00004006D0
0004054040
0078000040
01F8064040
02FABFFE40
02FE400540
02E0000010
0280155404
0741000100
1F41000041
2F041FD041
3F041FE041
7F041FE041
7F041BE041
7F041BE041
7F041BE041
7F041BE041
7F041BE041
7F410A9041
7F41000100
3F80155404
3FD0000014
2FF9000190
1FFFFFFE00
07FFFFF800
006FFE9000
ENDCHAR
STARTCHAR Ocircumflextilde
ENCODING 7894
SWIDTH 837 0
DWIDTH 20 0
BBX 20 33 0 -3
BITMAP
0001554140
0004000040
0028140040
00F8015040
02F8000040
02FEFEAA00
02FFE56800
02FE400100
0158054040
0078000040
01F8064040
02FABFFE40
02FE400540
02E0000010
0280155404
0741000100
1F41000041
2F041FD041
3F041FE041
7F041FE041
7F041BE041
7F041BE041
7F041BE041
7F041BE041
7F041BE041
7F410A9041
7F41000100
3F80155404
3FD0000014
2FF9000190
1FFFFFFE00
07FFFFF800
006FFE9000
ENDCHAR
STARTCHAR ocircumflextilde
ENCODING 7895
SWIDTH 837 0
DWIDTH 20 0
BBX 20 33 0 -3
BITMAP
0001554140
0004000040
0028140040
00F8015040
02F8000040
02FEFEAA00
02FFE56800
02FE400100
0158054040
0078000040
01F8064040
02FABFFE40
02FE400540
02E0000010
0280155404
0741000100
1F41000041
2F041FD041
3F041FE041
7F041FE041
7F041BE041
7F041BE041
7F041BE041
7F041BE041
7F041BE041
7F410A9041
7F41000100
3F80155404
3FD0000014
2FF9000190
1FFFFFFE00
07FFFFF800
006FFE9000
ENDCHAR
STARTCHAR Ocircumflexdotbelow
ENCODING 7896
SWIDTH 837 0
DWIDTH 20 0
BBX 20 33 0 -9
BITMAP
0000054000
0001501500
0008054040
0078101040
01F8000040
02F86BE440
02FFEAAF40
02F8000050
02D0155004
0781000104
1F41000041
2F440A9041
3F041FE041
3F041FE041
7F041FE041
7F041BE041
7F041BE041
7F041BE041
7F041BE041
7F040BD041
7F41000041
7F41000100
3F80155400
3FD0000000
2FF9000140
1FFFEAAE00
02FFC00400
001FC10400
001FC00400
001FC00400
001FFFE000
001FFF8000
001FFD0000
ENDCHAR
STARTCHAR ocircumflexdotbelow
ENCODING 7897
SWIDTH 837 0
DWIDTH 20 0
BBX 20 33 0 -9
BITMAP
0000054000
0001501500
0008054040
0078101040
01F8000040
02F86BE440
02FFEAAF40
02F8000050
02D0155004
0781000104
1F41000041
2F440A9041
3F041FE041
3F041FE041
7F041FE041
7F041BE041
7F041BE041
7F041BE041
7F041BE041
7F040BD041
7F41000041
7F41000100
3F80155400
3FD0000000
2FF9000140
1FFFEAAE00
02FFC00400
001FC10400
001FC00400
001FC00400
001FFFE000
001FFF8000
001FFD0000
ENDCHAR
STARTCHAR Ohornacute
ENCODING 7898
SWIDTH 847 0
DWIDTH 20 0
BBX 21 27 0 -3
BITMAP
000000550000
0006A5410000
006000010000
01E055010000
07E000015540
0BE15ABB4040
0BFE40050440
0BE000001040
068000154100
074000020100
1F4000004100
2F041FD04100
3F041FE04100
7F041FE04100
7F041BE04100
7F041BE04100
7F041BE04100
7F041BE04100
7F041BE04100
7F410A904100
7F4100010000
7F8015540400
3FD000001000
3FF900018000
2FFFFFFE0000
0BFFFFF80000
01AFFE900000
ENDCHAR
STARTCHAR ohornacute
ENCODING 7899
SWIDTH 847 0
DWIDTH 20 0
BBX 21 27 0 -3
BITMAP
000000550000
0006A5410000
006000010000
01E055010000
07E000015540
0BE15ABB4040
0BFE40050440
0BE000001040
068000154100
074000020100
1F4000004100
2F041FD04100
3F041FE04100
7F041FE04100
7F041BE04100
7F041BE04100
7F041BE04100
7F041BE04100
7F041BE04100
7F410A904100
7F4100010000
7F8015540400
3FD000001000
3FF900018000
2FFFFFFE0000
0BFFFFF80000
01AFFE900000
ENDCHAR
STARTCHAR Ohorngrave
ENCODING 7900
SWIDTH 847 0
DWIDTH 20 0
BBX 21 27 0 -3
BITMAP
001554000000
009005550000
03D050010000
0FD001410000
0FE500015540
0FFFFA964040
0FFD40050440
015000001040
008000154100
074000020100
1F4000004100
2F041FD04100
3F041FE04100
7F041FE04100
7F041BE04100
7F041BE04100
7F041BE04100
7F041BE04100
7F041BE04100
7F410A904100
7F4100010000
7F8015540400
3FD000001000
3FF900018000
2FFFFFFE0000
0BFFFFF80000
01AFFE900000
ENDCHAR
STARTCHAR ohorngrave
ENCODING 7901
SWIDTH 847 0
DWIDTH 20 0
BBX 21 27 0 -3
BITMAP
001554000000
009005550000
03D050010000
0FD001410000
0FE500015540
0FFFFA964040
0FFD40050440
015000001040
008000154100
074000020100
1F4000004100
2F041FD04100
3F041FE04100
7F041FE04100
7F041BE04100
7F041BE04100
7F041BE04100
7F041BE04100
7F041BE04100
7F410A904100
7F4100010000
7F8015540400
3FD000001000
3FF900018000
2FFFFFFE0000
0BFFFFF80000
01AFFE900000
ENDCHAR
STARTCHAR Ohornhookabove
ENCODING 7902
SWIDTH 847 0
DWIDTH 20 0
BBX 21 28 0 -3
BITMAP
000055500000
000705500000
001F55110000
003FFA110000
007FD0110000
002FD1455540
000BE6A74040
000E40050440
001000001040
018000154100
074000020100
1F4000004100
3F041FD04100
3F041FE04100
7F041FE04100
7F041BE04100
7F041BE04100
7F041BE04100
7F041BE04100
7F041BE04100
7F410A904100
7F4100010000
7F8015540400
3FD000001000
3FF900018000
2FFFFFFE0000
0BFFFFF80000
01AFFE900000
ENDCHAR
STARTCHAR ohornhookabove
ENCODING 7903
SWIDTH 847 0
DWIDTH 20 0
BBX 21 28 0 -3
BITMAP
000055500000
000705500000
001F55110000
003FFA110000
007FD0110000
002FD1455540
000BE6A74040
000E40050440
001000001040
018000154100
074000020100
1F4000004100
3F041FD04100
3F041FE04100
7F041FE04100
7F041BE04100
7F041BE04100
7F041BE04100
7F041BE04100
7F041BE04100
7F410A904100
7F4100010000
7F8015540400
3FD000001000
3FF900018000
2FFFFFFE0000
0BFFFFF80000
01AFFE900000
ENDCHAR
STARTCHAR Ohorntilde
ENCODING 7904
SWIDTH 847 0
DWIDTH 20 0
BBX 21 27 0 -3
BITMAP
000555050000
001000510000
00A040010000
02E005410000
0BE000015540
0BF5A5064040
0BFE40050440
0BE000001040
018000154100
074000020100
1F4000004100
2F041FD04100
3F041FE04100
7F041FE04100
7F041BE04100
7F041BE04100
7F041BE04100
7F041BE04100
7F041BE04100
7F410A904100
7F4100010000
7F8015540400
3FD000001000
3FF900018000
2FFFFFFE0000
0BFFFFF80000
01AFFE900000
ENDCHAR
STARTCHAR ohorntilde
ENCODING 7905
SWIDTH 847 0
DWIDTH 20 0
BBX 21 27 0 -3
BITMAP
000555050000
001000510000
00A040010000
02E005410000
0BE000015540
0BF5A5064040
0BFE40050440
0BE000001040
018000154100
074000020100
1F4000004100
2F041FD04100
3F041FE04100
7F041FE04100
7F041BE04100
7F041BE04100
7F041BE04100
7F041BE04100
7F041BE04100
7F410A904100
7F4100010000
7F8015540400
3FD000001000
3FF900018000
2FFFFFFE0000
0BFFFFF80000
01AFFE900000
ENDCHAR
STARTCHAR Ohorndotbelow
ENCODING 7906
SWIDTH 847 0
DWIDTH 20 0
BBX 21 28 0 -8
BITMAP
000000005540
000000024040
000155550440
001000001040
008000154100
074000020100
1F4000004100
2F041FD04100
3F041FE04100
7F041FE04100
7F041BE04100
7F041BE04100
7F041BE04100
7F041BE04100
7F041BE04100
7F410A904100
7F4100010000
7F8015540000
3FD000000000
3FF900014000
1FFFEAAE0000
06FFC0040000
001FC1040000
001FC0040000
001FC0040000
001FFFE00000
001FFF800000
001FFD000000
ENDCHAR
STARTCHAR ohorndotbelow
ENCODING 7907
SWIDTH 847 0
DWIDTH 20 0
BBX 21 28 0 -8
BITMAP
000000005540
000000024040
000155550440
001000001040
008000154100
074000020100
1F4000004100
2F041FD04100
3F041FE04100
7F041FE04100
7F041BE04100
7F041BE04100
7F041BE04100
7F041BE04100
7F041BE04100
7F410A904100
7F4100010000
7F8015540000
3FD000000000
3FF900014000
1FFFEAAE0000
06FFC0040000
001FC1040000
001FC0040000
001FC0040000
001FFFE00000
001FFF800000
001FFD000000
ENDCHAR
STARTCHAR Udotbelow
ENCODING 7908
SWIDTH 846 0
DWIDTH 20 0
BBX 19 26 1 -8
BITMAP
0155405554
1D00428004
7D004B8004
FD046F8104
FD046F8104
FD046F8104
FD046F8104
FD046F8104
FD046F8104
FD046F8104
FD046F8104
FD046F8104
FD042F8104
FD04000104
FD05000404
FE00555000
FF40000000
BFE4000500
3FFFEAB800
0BFF001000
007F041000
007F001000
007F001000
007FFF8000
007FFE0000
007FF80000
ENDCHAR
STARTCHAR udotbelow
ENCODING 7909
SWIDTH 846 0
DWIDTH 20 0
BBX 19 26 1 -8
BITMAP
0155405554
1D00428004
7D004B8004
FD046F8104
FD046F8104
FD046F8104
FD046F8104
FD046F8104
FD046F8104
FD046F8104
FD046F8104
FD046F8104
FD042F8104
FD04000104
FD05000404
FE00555000
FF40000000
BFE4000500
3FFFEAB800
0BFF001000
007F041000
007F001000
007F001000
007FFF8000
007FFE0000
007FF80000
ENDCHAR
STARTCHAR Uhookabove
ENCODING 7910
SWIDTH 846 0
DWIDTH 20 0
BBX 19 28 1 -3
BITMAP
0001555000
0007154400
002F541000
007FF91100
007FC05000
006FC00400
001FD6A000
0155BFD554
1D007F8004
7D004B8004
FD046F8104
FD046F8104
FD046F8104
FD046F8104
FD046F8104
FD046F8104
FD046F8104
FD046F8104
FD046F8104
FD042F8104
FD04000104
FD05000404
FE00555010
FF80000050
BFE4000640
3FFFFFF800
1FFFFFE000
01BFFA4000
ENDCHAR
STARTCHAR uhookabove
ENCODING 7911
SWIDTH 846 0
DWIDTH 20 0
BBX 19 28 1 -3
BITMAP
0001555000
0007154400
002F541000
007FF91100
007FC05000
006FC00400
001FD6A000
0155BFD554
1D007F8004
7D004B8004
FD046F8104
FD046F8104
FD046F8104
FD046F8104
FD046F8104
FD046F8104
FD046F8104
FD046F8104
FD046F8104
FD042F8104
FD04000104
FD05000404
FE00555010
FF80000050
BFE4000640
3FFFFFF800
1FFFFFE000
01BFFA4000
ENDCHAR
STARTCHAR Uhornacute
ENCODING 7912
SWIDTH 856 0
DWIDTH 21 0
BBX 20 27 1 -3
BITMAP
000015A800
006A950400
0180000400
0B81540400
2F80000155
2F856AD901
2E55BF5411
2D00568011
7D004B8145
FD046F8104
FD046F8104
FD046F8104
FD046F8104
FD046F8104
FD046F8104
FD046F8104
FD046F8104
FD046F8104
FD042F8104
FD04000104
FD05000404
FE00555010
FF80000050
BFE4000640
7FFFFFF800
1FFFFFE000
01BFFA4000
ENDCHAR
STARTCHAR uhornacute
ENCODING 7913
SWIDTH 856 0
DWIDTH 21 0
BBX 20 27 1 -3
BITMAP
000015A800
006A950400
0180000400
0B81540400
2F80000155
2F856AD901
2E55BF5411
2D00568011
7D004B8145
FD046F8104
FD046F8104
FD046F8104
FD046F8104
FD046F8104
FD046F8104
FD046F8104
FD046F8104
FD046F8104
FD042F8104
FD04000104
FD05000404
FE00555010
FF80000050
BFE4000640
7FFFFFF800
1FFFFFE000
01BFFA4000
ENDCHAR
STARTCHAR Uhorngrave
ENCODING 7914
SWIDTH 856 0
DWIDTH 21 0
BBX 20 27 1 -3
BITMAP
0055000000
0281555000
0B40000400
2F40550400
3F80000555
3FFFA54901
3E55BFD411
1D007F8011
7D005F8145
FD046F8104
FD046F8104
FD046F8104
FD046F8104
FD046F8104
FD046F8104
FD046F8104
FD046F8104
FD046F8104
FD042F8104
FD04000104
FD05000404
FE00555010
FF80000050
BFE4000640
7FFFFFF800
1FFFFFE000
01BFFA4000
ENDCHAR
STARTCHAR uhorngrave
ENCODING 7915
SWIDTH 856 0
DWIDTH 21 0
BBX 20 27 1 -3
BITMAP
0055000000
0281555000
0B40000400
2F40550400
3F80000555
3FFFA54901
3E55BFD411
1D007F8011
7D005F8145
FD046F8104
FD046F8104
FD046F8104
FD046F8104
FD046F8104
FD046F8104
FD046F8104
FD046F8104
FD046F8104
FD042F8104
FD04000104
FD05000404
FE00555010
FF80000050
BFE4000640
7FFFFFF800
1FFFFFE000
01BFFA4000
ENDCHAR
STARTCHAR Uhornhookabove
ENCODING 7916
SWIDTH 856 0
DWIDTH 21 0
BBX 20 28 1 -3
BITMAP
0001555000
000A154400
002E001400
00BFF91400
00BF804400
007F850555
001FD6A901
0155BF9411
1D007A8011
7D004B8145
FD046F8104
FD046F8104
FD046F8104
FD046F8104
FD046F8104
FD046F8104
FD046F8104
FD046F8104
FD046F8104
FD042F8104
FD04000104
FD05000404
FE00555010
FF80000050
BFE4000640
7FFFFFF800
1FFFFFE000
01BFFA4000
ENDCHAR
STARTCHAR uhornhookabove
ENCODING 7917
SWIDTH 856 0
DWIDTH 21 0
BBX 20 28 1 -3
BITMAP
0001555000
000A154400
002E001400
00BFF91400
00BF804400
007F850555
001FD6A901
0155BF9411
1D007A8011
7D004B8145
FD046F8104
FD046F8104
FD046F8104
FD046F8104
FD046F8104
FD046F8104
FD046F8104
FD046F8104
FD046F8104
FD042F8104
FD04000104
FD05000404
FE00555010
FF80000050
BFE4000640
7FFFFFF800
1FFFFFE000
01BFFA4000
ENDCHAR
STARTCHAR Uhorntilde
ENCODING 7918
SWIDTH 856 0
DWIDTH 21 0
BBX 20 27 1 -3
BITMAP
0015541400
0080014400
0280000400
0F81550400
2F80000155
2F96541901
2E55BFD411
2D007F8011
7D005F8145
FD046F8104
FD046F8104
FD046F8104
FD046F8104
FD046F8104
FD046F8104
FD046F8104
FD046F8104
FD046F8104
FD042F8104
FD04000104
FD05000404
FE00555010
FF80000050
BFE4000640
7FFFFFF800
1FFFFFE000
01BFFA4000
ENDCHAR
STARTCHAR uhorntilde
ENCODING 7919
SWIDTH 856 0
DWIDTH 21 0
BBX 20 27 1 -3
BITMAP
0015541400
0080014400
0280000400
0F81550400
2F80000155
2F96541901
2E55BFD411
2D007F8011
7D005F8145
FD046F8104
FD046F8104
FD046F8104
FD046F8104
FD046F8104
FD046F8104
FD046F8104
FD046F8104
FD046F8104
FD042F8104
FD04000104
FD05000404
FE00555010
FF80000050
BFE4000640
7FFFFFF800
1FFFFFE000
01BFFA4000
ENDCHAR
STARTCHAR Uhorndotbelow
ENCODING 7920
SWIDTH 856 0
DWIDTH 21 0
BBX 20 28 1 -8
BITMAP
0000000155
0000000901
0155405411
1D00428011
7D004B8145
FD046F8104
FD046F8104
FD046F8104
FD046F8104
FD046F8104
FD046F8104
FD046F8104
FD046F8104
FD046F8104
FD042F8104
FD04000104
FD05000404
FE00555010
FF40000000
BFE4000500
3FFFEAB800
0BFF001000
007F041000
007F001000
007F001000
007FFF8000
007FFE0000
007FF80000
ENDCHAR
STARTCHAR uhorndotbelow
ENCODING 7921
SWIDTH 856 0
DWIDTH 21 0
BBX 20 28 1 -8
BITMAP
0000000155
0000000901
0155405411
1D00428011
7D004B8145
FD046F8104
FD046F8104
FD046F8104
FD046F8104
FD046F8104
FD046F8104
FD046F8104
FD046F8104
FD046F8104
FD042F8104
FD04000104
FD05000404
FE00555010
FF40000000
BFE4000500
3FFFEAB800
0BFF001000
007F041000
007F001000
007F001000
007FFF8000
007FFE0000
007FF80000
ENDCHAR
STARTCHAR Ygrave
ENCODING 7922
SWIDTH 805 0
DWIDTH 19 0
BBX 19 27 0 -3
BITMAP
001A950000
007016AA00
01F0540040
07F0005040
07F4000040
07FFEA5000
07557FE554
0B002FD004
2F0017D004
7F041FD104
BF041FD104
BF041FD104
BF041FC104
BF010B4104
7F41010404
7FD0401010
7FE0101040
2FF8054000
0FFD010100
07FF010400
02FF410400
00FF410400
007F400400
003F400400
003FFFD000
003FFF4000
002FFD0000
ENDCHAR
STARTCHAR ygrave
ENCODING 7923
SWIDTH 805 0
DWIDTH 19 0
BBX 19 27 0 -3
BITMAP
001A950000
007016AA00
01F0540040
07F0005040
07F4000040
07FFEA5000
07557FE554
0B002FD004
2F0017D004
7F041FD104
BF041FD104
BF041FD104
BF041FC104
BF010B4104
7F41010404
7FD0401010
7FE0101040
2FF8054000
0FFD010100
07FF010400
02FF410400
00FF410400
007F400400
003F400400
003FFFD000
003FFF4000
002FFD0000
ENDCHAR
STARTCHAR Ydotbelow
ENCODING 7924
SWIDTH 805 0
DWIDTH 19 0
BBX 19 27 0 -9
BITMAP
0155501554
0B0011D004
2F0017D004
7F041FD104
BF041FD104
BF041FD104
BF041FC104
BF010B4104
7F41010404
7FD0401010
7FF0101040
2FF8054000
0FFD010100
07FF010400
02FF410400
00BF410400
003F400400
003F800400
003FFFE000
003F801000
002F400400
001F410400
003F400400
003F800000
003FFFD000
003FFF4000
002FF80000
ENDCHAR
STARTCHAR ydotbelow
ENCODING 7925
SWIDTH 805 0
DWIDTH 19 0
BBX 19 27 0 -9
BITMAP
0155501554
0B0011D004
2F0017D004
7F041FD104
BF041FD104
BF041FD104
BF041FC104
BF010B4104
7F41010404
7FD0401010
7FF0101040
2FF8054000
0FFD010100
07FF010400
02FF410400
00BF410400
003F400400
003F800400
003FFFE000
003F801000
002F400400
001F410400
003F400400
003F800000
003FFFD000
003FFF4000
002FF80000
ENDCHAR
STARTCHAR Yhookabove
ENCODING 7926
SWIDTH 805 0
DWIDTH 19 0
BBX 19 28 0 -3
BITMAP
0001555000
0007154400
002F541000
007FF91100
007FC05100
002BC00400
001FD6A000
01557F9554
0B002ED004
2F0017D004
7F041FD104
BF041FD104
BF041FD104
BF041FC104
BF010B4104
7F41010404
7FD0401010
7FE0101040
2FF8054000
0FFD010100
07FF010400
02FF410400
00FF410400
007F400400
003F400400
003FFFD000
003FFF4000
002FFD0000
ENDCHAR
STARTCHAR yhookabove
ENCODING 7927
SWIDTH 805 0
DWIDTH 19 0
BBX 19 28 0 -3
BITMAP
0001555000
0007154400
002F541000
007FF91100
007FC05100
002BC00400
001FD6A000
01557F9554
0B002ED004
2F0017D004
7F041FD104
BF041FD104
BF041FD104
BF041FC104
BF010B4104
7F41010404
7FD0401010
7FE0101040
2FF8054000
0FFD010100
07FF010400
02FF410400
00FF410400
007F400400
003F400400
003FFFD000
003FFF4000
002FFD0000
ENDCHAR
STARTCHAR Ytilde
ENCODING 7928
SWIDTH 805 0
DWIDTH 19 0
BBX 19 26 0 -3
BITMAP
0004000000
0024000040
00B4554040
03F4000040
07F5550000
07557FE554
0B002FD004
2F001BD004
7F041FD104
BF041FD104
BF041FD104
BF041FC104
BF010B4104
7F41010404
7FD0401010
7FE0101040
2FF8054000
0FFD010100
07FF010400
02FF410400
00FF410400
007F400400
003F400400
003FFFD000
003FFF4000
002FFD0000
ENDCHAR
STARTCHAR ytilde
ENCODING 7929
SWIDTH 805 0
DWIDTH 19 0
BBX 19 26 0 -3
BITMAP
0004000000
0024000040
00B4554040
03F4000040
07F5550000
07557FE554
0B002FD004
2F001BD004
7F041FD104
BF041FD104
BF041FD104
BF041FC104
BF010B4104
7F41010404
7FD0401010
7FE0101040
2FF8054000
0FFD010100
07FF010400
02FF410400
00FF410400
007F400400
003F400400
003FFFD000
003FFF4000
002FFD0000
ENDCHAR
STARTCHAR enspace
ENCODING 8192
SWIDTH 500 0
DWIDTH 12 0
BBX 1 1 0 0
BITMAP
00
ENDCHAR
STARTCHAR emspace
ENCODING 8193
SWIDTH 1000 0
DWIDTH 24 0
BBX 1 1 0 0
BITMAP
00
ENDCHAR
STARTCHAR uni2002
ENCODING 8194
SWIDTH 500 0
DWIDTH 12 0
BBX 1 1 0 0
BITMAP
00
ENDCHAR
STARTCHAR uni2003
ENCODING 8195
SWIDTH 1000 0
DWIDTH 24 0
BBX 1 1 0 0
BITMAP
00
ENDCHAR
STARTCHAR space.tab_en
ENCODING 8199
SWIDTH 1100 0
DWIDTH 26 0
BBX 1 1 0 0
BITMAP
00
ENDCHAR
STARTCHAR uni2010
ENCODING 8208
SWIDTH 520 0
DWIDTH 12 0
BBX 12 8 0 3
BITMAP
015555
060000
2E0550
BE0000
BE0001
BFFFFD
BFFFF4
7FFFD0
ENDCHAR
STARTCHAR figuredash
ENCODING 8210
SWIDTH 834 0
DWIDTH 20 0
BBX 18 8 1 3
BITMAP
0155555550
0900000010
2D05555410
BD00000010
FE00000010
FFFFFFFFD0
FFFFFFFF40
BFFFFFF800
ENDCHAR
STARTCHAR endash
ENCODING 8211
SWIDTH 834 0
DWIDTH 20 0
BBX 18 8 1 3
BITMAP
0155555550
0900000010
2D05555410
BD00000010
FE00000010
FFFFFFFFD0
FFFFFFFF40
BFFFFFF800
ENDCHAR
STARTCHAR emdash
ENCODING 8212
SWIDTH 1234 0
DWIDTH 30 0
BBX 28 8 1 3
BITMAP
01555555555554
09000000000001
2D055555555541
BD000000000001
FE000000000001
FFFFFFFFFFFFF8
FFFFFFFFFFFFE0
BFFFFFFFFFFF40
ENDCHAR
STARTCHAR horizontalbar
ENCODING 8213
SWIDTH 1234 0
DWIDTH 30 0
BBX 28 8 1 3
BITMAP
01555555555554
09000000000001
2D055555555541
BD000000000001
FE000000000001
FFFFFFFFFFFFF8
FFFFFFFFFFFFE0
BFFFFFFFFFFF40
ENDCHAR
STARTCHAR quoteleft
ENCODING 8216
SWIDTH 484 0
DWIDTH 12 0
BBX 11 12 0 6
BITMAP
001554
008544
034404
1F12E0
3F1004
3F1004
7F0544
7F0004
7F4004
7FFFE4
7FFFC0
3FFE00
ENDCHAR
STARTCHAR quoteright
ENCODING 8217
SWIDTH 484 0
DWIDTH 12 0
BBX 11 13 0 5
BITMAP
015554
070004
2F0544
7F0044
7F4044
7FFD44
7F8044
7F4504
1F4010
2FFB80
3FFE00
3FF400
050000
ENDCHAR
STARTCHAR quotesinglbase
ENCODING 8218
SWIDTH 484 0
DWIDTH 12 0
BBX 11 13 0 -5
BITMAP
005554
020004
0F0004
3F0544
7F0044
7F4044
7FFD44
7F8044
3F4504
1F4010
3FFF80
3FFD00
2FE400
ENDCHAR
STARTCHAR quotedblleft
ENCODING 8220
SWIDTH 784 0
DWIDTH 19 0
BBX 19 12 0 6
BITMAP
0015541550
0145454510
07100A1010
1F13FE17D0
3F100A1014
7F100A1004
7F154A1504
BF000A0004
BF000A0004
BFFFFFFFE0
7FFFFFFF40
7FFEBFFD00
ENDCHAR
STARTCHAR quotedblright
ENCODING 8221
SWIDTH 784 0
DWIDTH 19 0
BBX 19 13 0 5
BITMAP
0155555554
0B000A0004
2F054A1544
7F004A0044
BF004A0044
BFFD4BFC44
BF404B4004
7F050E1510
1F406F0050
3FEBBFEF40
7FFDBFFD00
3FE47FE000
0500150000
ENDCHAR
STARTCHAR quotedblbase
ENCODING 8222
SWIDTH 784 0
DWIDTH 19 0
BBX 19 13 0 -5
BITMAP
0055515550
0600060004
1F000A0004
7F054A1544
7F004A0044
BF004A0044
BFFD4BFC44
BF404B4004
7F050E1510
1F407F0040
3FFFBFFF00
7FFD7FF800
3FE07FE000
ENDCHAR
STARTCHAR dagger
ENCODING 8224
SWIDTH 818 0
DWIDTH 20 0
BBX 19 21 0 -3
BITMAP
0000555000
0002800400
000B800400
001F810400
006FC10054
0200410404
0F00010004
3F05555504
7F00010004
7F00410404
7FFFC11FF4
7FFFC11FD0
7EAFC11E00
001FC11000
001FC10000
001F810400
001F800400
002F800400
002FFFE000
002FFF4000
001FFD0000
ENDCHAR
STARTCHAR daggerdbl
ENCODING 8225
SWIDTH 818 0
DWIDTH 20 0
BBX 19 21 0 -3
BITMAP
0000555000
0002800400
005BC00554
0600010004
1F05555504
7F00010004
7F01410504
7FFFC10FF8
7FFF810FD0
7AAFC10E50
0205410504
0B00010004
2F05555504
7F00010004
7F00010004
7F5A810A94
7FFF800FE0
7FFF800F80
151FFFE500
002FFF4000
001FFD0000
ENDCHAR
STARTCHAR bullet
ENCODING 8226
SWIDTH 543 0
DWIDTH 13 0
BBX 13 12 0 2
BITMAP
00555500
06000040
1F055040
7F040040
7F040040
BF040040
BF055040
BF000040
BF000040
BFFFFE00
7FFFF800
7FFFD000
ENDCHAR
STARTCHAR ellipsis
ENCODING 8230
SWIDTH 1210 0
DWIDTH 29 0
BBX 29 10 0 -3
BITMAP
0055541555155500
0200058001A00040
1F00078002E00040
3F01078042E04040
7F01078042E04040
7F00078002E00040
7F0007C002E00040
7FFFFFFFFFFFFE00
7FFFAFFFEFFFF400
3FFE1FFF4BFFD000
ENDCHAR
STARTCHAR perthousand
ENCODING 8240
SWIDTH 1517 0
DWIDTH 36 0
BBX 37 21 0 -3
BITMAP
00155401550000000000
01400008010000000000
07055068010000000000
2E1004B4440000000000
7E1284B4440000000000
BE12C4B0440000000000
BE12C4A0040000000000
BE1144A1105540155400
BF100491140000400100
BF4550C1241506055040
7FD00680304046100440
7FFFFF84711C46128440
2FFFDF44711D46138440
06FA2F04B11D46138440
00002E00F11C46128440
00003E10F44046100440
00007D01F4550B055000
0000BD02FD001F900500
0000BFFBFFFFFFFFF400
0000FFE2FFFE7FFFD000
0000FF40BFE41BFE0000
ENDCHAR
STARTCHAR minute
ENCODING 8242
SWIDTH 456 0
DWIDTH 11 0
BBX 11 12 0 6
BITMAP
005554
074004
1F4104
3F4104
3F4100
3F4010
3F0410
3F0010
3F0010
7FFF80
7FFE00
3FF800
ENDCHAR
STARTCHAR second
ENCODING 8243
SWIDTH 766 0
DWIDTH 18 0
BBX 18 12 0 6
BITMAP
0055555550
07400A0010
1F410E0410
3F410E0410
3F410E0410
3F401E0410
3F041E0410
3F001E0010
3F002E0000
7FFFFFFF40
7FFEFFFD00
3FF8BFF400
ENDCHAR
STARTCHAR guilsinglleft
ENCODING 8249
SWIDTH 663 0
DWIDTH 16 0
BBX 14 16 1 -1
BITMAP
00000140
00055010
00500010
02005410
1D050010
7D100150
BD10BF00
FD101540
FD040010
FE015410
FF800010
FFFA4010
BFFFFE90
1FFFFF40
016BFC00
00005000
ENDCHAR
STARTCHAR guilsinglright
ENCODING 8250
SWIDTH 663 0
DWIDTH 16 0
BBX 14 16 1 -1
BITMAP
00500000
06015400
1E000140
7E054010
BE001410
BF900110
BFFF8110
BFA50110
1A000510
1E055010
7E000040
BE006A00
BFAFF800
BFFFD000
BFA40000
10000000
ENDCHAR
STARTCHAR fraction
ENCODING 8260
SWIDTH 417 0
DWIDTH 10 0
BBX 12 21 -1 -3
BITMAP
000555
001801
00B801
01F440
02F444
02F044
03F044
03E004
07E104
0BD110
0BC110
0FC110
0F8110
1F8410
1F4410
2F4440
2F0040
3F0040
3FFE00
7FF800
7FD000
ENDCHAR
STARTCHAR zero.sups
ENCODING 8304
SWIDTH 656 0
DWIDTH 16 0
BBX 13 15 1 3
BITMAP
00550000
04055040
18400440
74414000
F44BC000
F44BC000
F44BC000
F44BC000
F44BC000
F4478000
F8400440
FC055040
BF500500
7FFFF400
0BFF9000
ENDCHAR
STARTCHAR foursuperior
ENCODING 8308
SWIDTH 608 0
DWIDTH 15 0
BBX 14 16 0 2
BITMAP
01551550
0A01B010
2E11F110
BE11F110
BE11F110
BE11F110
BE10A110
BF100110
BF055510
BF900110
7FFFF110
3FFFF010
1BFFF010
0007FFC0
0007FE00
0006A800
ENDCHAR
STARTCHAR five.sups
ENCODING 8309
SWIDTH 593 0
DWIDTH 14 0
BBX 14 16 0 2
BITMAP
01555540
07455410
1F440010
3F440000
3F44BF40
3F440540
3F455410
3F400110
3FFFE110
3F554110
3F000110
1F055410
3F400140
7FFFFE00
7FFFF400
3FFF9000
ENDCHAR
STARTCHAR six.sups
ENCODING 8310
SWIDTH 628 0
DWIDTH 15 0
BBX 15 16 0 2
BITMAP
00155540
00815410
02440010
0F440000
2F04BF40
3F045540
7F055010
7F041004
7F04F444
7F44B444
7F440004
7F805410
3FE40150
2FFFFE00
0FFFF800
01AA9000
ENDCHAR
STARTCHAR seven.sups
ENCODING 8311
SWIDTH 577 0
DWIDTH 14 0
BBX 14 16 0 2
BITMAP
01555540
0A055410
2E000010
BE000010
BFFFC010
BFFF8010
7FF41400
00514040
02C00100
0BC02800
1FC02000
1FC01000
1FC01000
1FFF4000
1FFD0000
1FE40000
ENDCHAR
STARTCHAR eight.sups
ENCODING 8312
SWIDTH 638 0
DWIDTH 15 0
BBX 15 17 0 1
BITMAP
00055540
00515410
02840110
0B84B410
1FC4B410
2FD40110
2F415504
1F040044
1F11F844
3F11F844
7F001044
7F415504
7FD00050
7FFFFF80
3FFFFD00
0BFFE400
00140000
ENDCHAR
STARTCHAR nine.sups
ENCODING 8313
SWIDTH 628 0
DWIDTH 15 0
BBX 15 16 0 2
BITMAP
00155540
00415410
03040100
1F105004
3F11F044
7F10F044
7F000144
7F404444
7FD00044
7FFFF004
2FD54000
07D15410
0FD00140
0FFFFE00
0FFFF800
0FFF9000
ENDCHAR
STARTCHAR parenleft.sups
ENCODING 8317
SWIDTH 434 0
DWIDTH 10 0
BBX 9 18 0 2
BITMAP
000540
010000
051400
1D1040
3C1240
7C1100
7C1100
7C1100
7C1100
7C1100
7C1100
7C1100
7C1140
7D1000
7E0000
3F9040
2FFF40
0BFC00
ENDCHAR
STARTCHAR parenright.sups
ENCODING 8318
SWIDTH 435 0
DWIDTH 10 0
BBX 9 18 0 2
BITMAP
015400
080000
3C1440
7D0400
7FC000
7FC000
0BC000
07C000
07C000
07C000
07C000
07C000
068000
080440
2C0040
7D0500
7FF400
3F9000
ENDCHAR
STARTCHAR n.sups
ENCODING 8319
SWIDTH 673 0
DWIDTH 16 0
BBX 14 15 1 3
BITMAP
00555500
05055040
18000400
78468110
B84BD110
F84BD110
F847D110
F847D110
F847D110
F847D110
F847D110
F807D010
F807D010
FFE7FF40
BF43FD00
ENDCHAR
STARTCHAR zero.sinf
ENCODING 8320
SWIDTH 656 0
DWIDTH 16 0
BBX 13 15 1 -2
BITMAP
00550000
04055040
18400440
74414000
F44BC000
F44BC000
F44BC000
F44BC000
F44BC000
F4478000
F8400440
FC055040
BF500500
7FFFF400
0BFF9000
ENDCHAR
STARTCHAR one.sinf
ENCODING 8321
SWIDTH 557 0
DWIDTH 13 0
BBX 13 16 0 -3
BITMAP
01555400
07454400
1F404400
3F504400
3FF44400
3FF44400
2BF44400
03F44400
03F44400
03A44540
07004040
1F055440
7F000040
7FFFFF40
7FFFFD00
7FFFE000
ENDCHAR
STARTCHAR two.sinf
ENCODING 8322
SWIDTH 585 0
DWIDTH 14 0
BBX 14 16 0 -3
BITMAP
00555500
07455440
1F400110
3FEA8110
3FFE4110
3FE00410
16415040
07040100
1E106800
3E11A540
7E100010
BE155410
BE000010
BFFFFF80
BFFFFD00
7FFFF400
ENDCHAR
STARTCHAR three.sinf
ENCODING 8323
SWIDTH 584 0
DWIDTH 14 0
BBX 14 16 0 -3
BITMAP
01555500
0B055000
2F000440
7F000440
7FFF4440
7FE50500
17D15440
0BD00110
0FFFD110
0FAA5110
0F000110
1F055410
7F000140
7FFFFD00
7FFFF400
7FFE8000
ENDCHAR
STARTCHAR four.sinf
ENCODING 8324
SWIDTH 620 0
DWIDTH 15 0
BBX 14 16 0 -3
BITMAP
01551550
0A01A010
7E11E110
BE11E110
BE11E110
BE11E110
BE119110
BE100110
BF055510
BF900110
BFFFE110
7FFFE010
1BFFE010
000BFF80
000BFE00
0006A400
ENDCHAR
STARTCHAR five.sinf
ENCODING 8325
SWIDTH 593 0
DWIDTH 14 0
BBX 14 16 0 -3
BITMAP
01555540
07455410
1F440010
3F440000
3F44BF40
3F440540
3F455410
3F400110
3FFFE110
3F554110
3F000110
1F055410
3F400140
7FFFFE00
7FFFF400
3FFF9000
ENDCHAR
STARTCHAR six.sinf
ENCODING 8326
SWIDTH 628 0
DWIDTH 15 0
BBX 15 16 0 -3
BITMAP
00155540
00815410
02440010
0F440000
2F04BF40
3F045540
7F055010
7F041004
7F04F444
7F44B444
7F440004
7F805410
3FE40150
2FFFFE00
0FFFF800
01AA9000
ENDCHAR
STARTCHAR seven.sinf
ENCODING 8327
SWIDTH 577 0
DWIDTH 14 0
BBX 14 16 0 -3
BITMAP
01555540
0A055410
2E000010
BE000010
BFFFC010
BFFF8010
7FF41400
00514040
02C00100
0BC02800
1FC02000
1FC01000
1FC01000
1FFF4000
1FFD0000
1FE40000
ENDCHAR
STARTCHAR eight.sinf
ENCODING 8328
SWIDTH 638 0
DWIDTH 15 0
BBX 15 17 0 -4
BITMAP
00055540
00515410
02840110
0B84B410
1FC4B410
2FD40110
2F415504
1F040044
1F11F844
3F11F844
7F001044
7F415504
7FD00050
7FFFFF80
3FFFFD00
0BFFE400
00140000
ENDCHAR
STARTCHAR nine.sinf
ENCODING 8329
SWIDTH 628 0
DWIDTH 15 0
BBX 15 16 0 -3
BITMAP
00155540
00415410
03040100
1F105004
3F11F044
7F10F044
7F000144
7F404444
7FD00044
7FFFF004
2FD54000
07D15410
0FD00140
0FFFFE00
0FFFF800
0FFF9000
ENDCHAR
STARTCHAR parenleft.sinf
ENCODING 8333
SWIDTH 434 0
DWIDTH 10 0
BBX 9 18 0 -3
BITMAP
000540
010000
051400
1D1040
3C1240
7C1100
7C1100
7C1100
7C1100
7C1100
7C1100
7C1100
7C1140
7D1000
7E0000
3F9040
2FFF40
0BFC00
ENDCHAR
STARTCHAR parenright.sinf
ENCODING 8334
SWIDTH 435 0
DWIDTH 10 0
BBX 9 18 0 -3
BITMAP
015400
080000
3C1440
7D0400
7FC000
7FC000
0BC000
07C000
07C000
07C000
07C000
07C000
068000
080440
2C0040
7D0500
7FF400
3F9000
ENDCHAR
STARTCHAR colonsign
ENCODING 8353
SWIDTH 728 0
DWIDTH 17 0
BBX 17 23 0 -4
BITMAP
0000145400
0001824400
0007824140
0014001040
0040555040
0281000040
0B40000040
2F040BFF40
3F041FFD00
3F041FE000
7F04100000
7F04100000
7F04100000
7F40055540
7F41000040
3F80555040
3FD0001040
2FF9400040
1FFFC24740
07FFC38400
01BFFFF400
001FFFD000
001F6E0000
ENDCHAR
STARTCHAR lira
ENCODING 8356
SWIDTH 795 0
DWIDTH 19 0
BBX 19 21 0 -3
BITMAP
0001555500
0010000100
0080000100
0280554100
0B41000100
1F410FFD00
2E0105F400
3D0550C000
7D01010000
FF410D0000
FD01011550
BD0551D004
BF410FC104
FF41000104
FF41000104
3F41555504
3F40000004
3F40000004
3FFFFFFFE0
3FFFFFFF80
2FFFFFFD00
ENDCHAR
STARTCHAR naira
ENCODING 8358
SWIDTH 853 0
DWIDTH 20 0
BBX 21 21 0 -3
BITMAP
005540155500
024010600100
1F4001F00100
3F4102F04100
3F4140F04100
3F4110204100
3E4104104100
3D0501005040
7D0100404040
FF4100004200
FD0118104040
FD051E045040
7E011F414140
FF411FD04100
FF411FE04100
7F411FF04100
3F401FF00100
3F8017F00100
3FFF97FFF800
3FFF47FFE000
2FF807FF4000
ENDCHAR
STARTCHAR peseta
ENCODING 8359
SWIDTH 812 0
DWIDTH 19 0
BBX 20 21 0 -3
BITMAP
0055555500
0240000040
0B40000010
2F41555404
3F41000104
3E410A4105
3D011FC101
3D051FC141
BD011FC101
FF41000108
FF41000004
BF41000010
3F41000140
3F410FFE00
3F410FF400
3F410F9000
3F40000000
3F80100000
3FFF900000
3FFF400000
2FF8000000
ENDCHAR
STARTCHAR dong
ENCODING 8363
SWIDTH 782 0
DWIDTH 19 0
BBX 19 25 0 -7
BITMAP
0000015540
0000030040
00001A0010
0000800404
0007C15504
000FD00414
001FFF0450
0019550440
0041555440
0244000440
1F04000440
3E047F0440
7E04BF0440
BE04BF0440
BE046A0440
BF05001040
BF40554040
7FD0000100
7FFE95A400
2FEAAA9500
07C1554100
0BC0000100
1FFFFFFD00
1FFFFFE000
1FFFFF8000
ENDCHAR
STARTCHAR Euro
ENCODING 8364
SWIDTH 748 0
DWIDTH 18 0
BBX 18 21 0 -3
BITMAP
0001555550
0014000010
0050000010
01C0555410
0B81000010
1F810BFF80
2E01000500
2E05554400
7E01000400
BF810FF400
BE01000400
7E05554400
7F41055400
BF8106A540
BF81000010
2FC0555410
2FE0000010
1FF9000010
0FFFFFFF80
07FFFFFE00
00AFFFF400
ENDCHAR
ENDFONT
